<svg width="100" height="101" viewBox="0 0 100 101" fill="none" xmlns="http://www.w3.org/2000/svg">
<path d="M95.4567 15.3047H56.8243C53.0614 15.3047 50.0046 18.2515 50.0046 21.879C50.0046 18.2515 46.9479 15.3047 43.185 15.3047H4.54334C2.03475 15.3047 0 17.2662 0 19.6845V81.0384C0 83.4567 2.03475 85.4182 4.54334 85.4182H95.4567C97.9653 85.4182 100 83.4567 100 81.0384V19.6845C100 17.2662 97.9653 15.3047 95.4567 15.3047Z" fill="#EB2D42"/>
<path d="M4.54395 78.845V21.88C4.54395 20.6708 5.56596 19.6855 6.82026 19.6855H40.9093C45.9264 19.6855 49.9959 23.6086 49.9959 28.4453C49.9959 23.6086 54.0654 19.6855 59.0826 19.6855H93.1716C94.4259 19.6855 95.4479 20.6708 95.4479 21.88V78.845C95.4479 80.0541 94.4259 81.0394 93.1716 81.0394H6.82026C5.56596 81.0394 4.54395 80.0541 4.54395 78.845Z" fill="white"/>
<path d="M4.54382 78.8448V74.4649C4.54382 73.2558 5.56584 72.2705 6.82014 72.2705H40.9091C45.9263 72.2705 49.9958 76.1936 49.9958 81.0302C49.9958 76.1936 54.0653 72.2705 59.0825 72.2705H93.1715C94.4258 72.2705 95.4478 73.2558 95.4478 74.4649V78.8448C95.4478 80.0539 94.4258 81.0392 93.1715 81.0392H6.82014C5.56584 81.0392 4.54382 80.0539 4.54382 78.8448Z" fill="#FFECEE"/>
<path d="M49.9964 70.0763C48.7421 70.0763 47.7201 69.091 47.7201 67.8819V32.8341C47.7201 31.6249 48.7328 30.6396 49.9964 30.6396C51.26 30.6396 52.2727 31.6249 52.2727 32.8341V67.8908C52.2727 69.1 51.26 70.0852 49.9964 70.0852V70.0763Z" fill="#FFECEE"/>
<path d="M86.3605 32.8332H63.6345C62.3802 32.8332 61.3582 31.8479 61.3582 30.6387C61.3582 29.4296 62.3709 28.4443 63.6345 28.4443H86.3605C87.6148 28.4443 88.6368 29.4296 88.6368 30.6387C88.6368 31.8479 87.6241 32.8332 86.3605 32.8332Z" fill="#FFD3D8"/>
<path d="M86.3606 45.9816H84.0843C82.83 45.9816 81.808 44.9963 81.808 43.7872C81.808 42.578 82.8207 41.5928 84.0843 41.5928H86.3606C87.6149 41.5928 88.6369 42.578 88.6369 43.7872C88.6369 44.9963 87.6242 45.9816 86.3606 45.9816Z" fill="#FFD3D8"/>
<path d="M74.9975 45.9816H63.6345C62.3802 45.9816 61.3582 44.9963 61.3582 43.7872C61.3582 42.578 62.3709 41.5928 63.6345 41.5928H74.9975C76.2518 41.5928 77.2738 42.578 77.2738 43.7872C77.2738 44.9963 76.2611 45.9816 74.9975 45.9816Z" fill="#FFD3D8"/>
<path d="M86.3605 54.7413H63.6345C62.3802 54.7413 61.3582 53.7561 61.3582 52.5469C61.3582 51.3378 62.3709 50.3525 63.6345 50.3525H86.3605C87.6148 50.3525 88.6368 51.3378 88.6368 52.5469C88.6368 53.7561 87.6241 54.7413 86.3605 54.7413Z" fill="#FFD3D8"/>
<path d="M77.2738 63.5099H63.6345C62.3802 63.5099 61.3582 62.5247 61.3582 61.3155C61.3582 60.1063 62.3709 59.1211 63.6345 59.1211H77.2738C78.5281 59.1211 79.5501 60.1063 79.5501 61.3155C79.5501 62.5247 78.5374 63.5099 77.2738 63.5099Z" fill="#FFD3D8"/>
<path d="M36.3675 32.8332H13.6322C12.3779 32.8332 11.3558 31.8479 11.3558 30.6387C11.3558 29.4296 12.3686 28.4443 13.6322 28.4443H36.3582C37.6125 28.4443 38.6345 29.4296 38.6345 30.6387C38.6345 31.8479 37.6217 32.8332 36.3582 32.8332H36.3675Z" fill="#FFD3D8"/>
<path d="M15.9085 54.7423H13.6322C12.3779 54.7423 11.3558 53.7571 11.3558 52.5479C11.3558 51.3388 12.3686 50.3535 13.6322 50.3535H15.9085C17.1628 50.3535 18.1848 51.3388 18.1848 52.5479C18.1848 53.7571 17.1721 54.7423 15.9085 54.7423Z" fill="#FFD3D8"/>
<path d="M36.3661 54.7423H25.0031C23.7488 54.7423 22.7268 53.7571 22.7268 52.5479C22.7268 51.3388 23.7395 50.3535 25.0031 50.3535H36.3661C37.6204 50.3535 38.6424 51.3388 38.6424 52.5479C38.6424 53.7571 37.6297 54.7423 36.3661 54.7423Z" fill="#FFD3D8"/>
<path d="M36.3675 45.9826H13.6322C12.3779 45.9826 11.3558 44.9973 11.3558 43.7882C11.3558 42.579 12.3686 41.5938 13.6322 41.5938H36.3582C37.6125 41.5938 38.6345 42.579 38.6345 43.7882C38.6345 44.9973 37.6217 45.9826 36.3582 45.9826H36.3675Z" fill="#FFD3D8"/>
<path d="M36.3675 63.5099H13.6322C12.3779 63.5099 11.3558 62.5247 11.3558 61.3155C11.3558 60.1063 12.3686 59.1211 13.6322 59.1211H36.3582C37.6125 59.1211 38.6345 60.1063 38.6345 61.3155C38.6345 62.5247 37.6217 63.5099 36.3582 63.5099H36.3675Z" fill="#FFD3D8"/>
<path d="M65.2388 45.5608V45.2834L64.2858 44.6979L43.3194 31.8149L43.3127 31.8108L43.306 31.8067C40.7801 30.2819 38 32.3356 38 34.9217V60.6877C38 63.2737 40.7801 65.3274 43.306 63.8027L43.3127 63.7986L43.3194 63.7945L64.2803 50.9148C66.1895 49.7557 66.509 47.1905 65.2388 45.5608Z" fill="#EB2D42" stroke="white" stroke-width="4"/>
</svg>
