<svg width="101" height="100" viewBox="0 0 101 100" fill="none" xmlns="http://www.w3.org/2000/svg">
<path d="M85.6713 56.9079L85.6709 56.9072C83.578 52.5308 78.6158 49.7161 73.446 49.4156C68.9918 49.1567 64.8364 50.4606 61.7123 53.2703C58.5862 56.0818 56.5345 60.3631 56.2169 65.9807C55.8949 71.676 57.4686 76.1883 60.2777 79.3453C63.0848 82.4999 67.0863 84.257 71.5385 84.5157C76.8944 84.827 82.2285 82.5753 84.7286 78.4155C85.7731 76.6867 85.4619 74.4171 83.9634 73.3057L83.9611 73.3039C83.1918 72.7403 82.1988 72.4862 81.2729 72.5541C80.3475 72.6219 79.4252 73.0192 78.876 73.8366C77.3727 76.0644 74.7578 77.4529 71.9471 77.2895C69.7199 77.1601 67.6596 76.1674 66.1998 74.3661C64.7396 72.5644 63.8519 69.917 64.0487 66.4359C64.2468 62.9324 65.4084 60.4249 67.0394 58.8292C68.6694 57.2345 70.8061 56.5121 73.0374 56.6418C76.0081 56.8145 77.9663 58.5164 79.2389 60.7545C79.7612 61.6935 80.64 62.2015 81.5639 62.3622C82.4799 62.5215 83.4617 62.3456 84.256 61.9016L84.2569 61.9011C86.0453 60.8962 86.4478 58.5385 85.6713 56.9079Z" fill="#70E200" stroke="#70E200"/>
<path d="M42.2594 81.1355L42.2611 81.1374C43.8929 82.942 46.561 83.1136 48.4781 81.4651L48.4813 81.4623C50.2349 79.9282 50.5078 77.3343 49.0708 75.7333L49.0708 75.7333L49.0659 75.728L27.5718 52.4687C27.5716 52.4686 27.5715 52.4684 27.5713 52.4682C26.8726 51.7094 26.0461 51.2003 25.1226 50.9861C24.199 50.7719 23.2109 50.8601 22.201 51.243C20.3105 51.9598 19.0943 53.6021 19.0207 55.7098C19.0207 55.7102 19.0207 55.7106 19.0206 55.7109L17.7744 87.5881C17.6634 89.7435 19.6352 91.5847 21.9762 91.5156C24.5152 91.4665 26.4424 89.6135 26.4894 87.1139L26.4894 87.1111L26.5539 82.2551L39.0286 77.5252L42.2594 81.1355ZM33.5081 71.4062L26.7175 73.9809L26.9077 64.0038L33.5081 71.4062Z" fill="#FBEC3B" stroke="#FBEC3B"/>
<path d="M48.886 32.9057C49.9797 33.1587 50.7503 33.749 51.198 34.5018C51.6481 35.2586 51.7936 36.2164 51.5644 37.235C51.3405 38.2298 50.8067 39.007 50.0827 39.4761C49.3615 39.9433 48.4154 40.1283 47.318 39.8745L38.1552 37.7551L39.7232 30.7864L48.886 32.9057ZM32.7642 44.3967L46.002 47.4586C49.5845 48.2873 52.6716 47.8687 55.0549 46.3975C57.4385 44.9261 59.0537 42.4415 59.7685 39.2646C60.4468 36.25 59.7425 32.7236 57.2006 30.6211C59.4647 29.6717 61.5122 27.4658 62.1671 24.5554C62.8908 21.339 62.3402 18.4075 60.7294 16.0802C59.1222 13.7582 56.4926 12.0845 53.138 11.3086L40.8488 8.46607C39.4991 8.15388 38.2341 8.3436 37.221 8.9892C36.2085 9.63439 35.494 10.7051 35.1872 12.0685L29.2037 38.6611C28.8969 40.0245 29.0828 41.3036 29.7191 42.3301C30.3559 43.3573 31.4145 44.0845 32.7642 44.3967ZM49.6318 25.5416L41.3351 23.6225L42.8654 16.8211L51.1622 18.7401C52.2812 18.999 53.0301 19.5764 53.4544 20.297C53.8819 21.023 54.0075 21.9419 53.7864 22.9248C53.5703 23.8851 53.0647 24.6596 52.3652 25.1321C51.6715 25.6007 50.7473 25.7996 49.6318 25.5416Z" fill="#FF8C00" stroke="#FF8C00"/>
<circle cx="38.75" cy="11" r="2" fill="white"/>
<circle cx="22.75" cy="55" r="2" fill="white"/>
<circle cx="82.75" cy="58" r="2" fill="white"/>
</svg>
