<svg width="100" height="100" viewBox="0 0 100 100" fill="none" xmlns="http://www.w3.org/2000/svg">
<path d="M54.9298 6.96366C52.8885 2.96378 47.1731 2.96379 45.1319 6.96366L33.7226 29.3201C33.3594 30.0319 32.6777 30.5271 31.8885 30.6527L7.10064 34.595C2.66573 35.3003 0.899612 40.7359 4.07294 43.9133L21.8095 61.6726C22.3742 62.2381 22.6346 63.0394 22.5101 63.8288L18.5996 88.6217C17.8999 93.0575 22.5237 96.4169 26.5262 94.3807L48.8973 83.0002C49.6095 82.6378 50.4521 82.6378 51.1644 83.0002L73.5354 94.3807C77.5379 96.4169 82.1617 93.0575 81.4621 88.6217L77.5515 63.8288C77.427 63.0394 77.6874 62.2381 78.2521 61.6726L95.9887 43.9133C99.162 40.7359 97.3959 35.3003 92.961 34.595L68.1731 30.6527C67.3839 30.5271 66.7022 30.0319 66.339 29.3201L54.9298 6.96366Z" fill="url(#paint0_linear_5564_93932)" stroke="url(#paint1_linear_5564_93932)" stroke-width="3"/>
<g filter="url(#filter0_f_5564_93932)">
<path fill-rule="evenodd" clip-rule="evenodd" d="M49.1325 9.44009C49.9596 9.87062 50.2636 10.8582 49.8116 11.6459L39.6904 31.8259C38.4074 34.0616 36.0976 35.5949 33.4511 35.9678L10.975 40.0767C10.0426 40.208 9.17485 39.5946 9.03691 38.7066C8.89897 37.8186 9.54305 36.9922 10.4755 36.8608L32.9516 32.7519C34.5395 32.5282 35.9254 31.6082 36.6952 30.2668L46.8163 10.0868C47.2684 9.29911 48.3054 9.00955 49.1325 9.44009Z" fill="white" fill-opacity="0.5"/>
</g>
<path d="M70.4469 48.138C70.2992 48.1646 70.0777 48.1978 69.7823 48.2376C69.5003 48.2907 69.2117 48.3172 68.9163 48.3172C68.6209 48.3172 68.3524 48.2973 68.1107 48.2575C67.8825 48.2177 67.6878 48.138 67.5267 48.0186C67.3656 47.8992 67.238 47.7399 67.1441 47.5409C67.0635 47.3285 67.0232 47.0565 67.0232 46.7247V35.1792C67.1709 35.1526 67.3857 35.1194 67.6677 35.0796C67.9631 35.0265 68.2584 35 68.5538 35C68.8492 35 69.111 35.0199 69.3392 35.0597C69.5809 35.0995 69.7823 35.1792 69.9434 35.2986C70.1045 35.418 70.2254 35.5839 70.3059 35.7962C70.3999 35.9953 70.4469 36.2607 70.4469 36.5925V48.138Z" fill="#D27300"/>
<path d="M62.0926 48.4765C61.3004 48.4765 60.562 48.3703 59.8773 48.158C59.206 47.9324 58.6152 47.6006 58.105 47.1626C57.6082 46.7247 57.2122 46.174 56.9168 45.5104C56.6348 44.8469 56.4939 44.0706 56.4939 43.1814C56.4939 42.3056 56.6348 41.5558 56.9168 40.932C57.2122 40.295 57.5948 39.7775 58.0647 39.3793C58.5346 38.968 59.0717 38.6694 59.6759 38.4836C60.28 38.2845 60.8976 38.185 61.5287 38.185C62.2403 38.185 62.8847 38.2911 63.462 38.5035C64.0528 38.7158 64.5563 39.0078 64.9725 39.3793C65.4021 39.7509 65.7311 40.1955 65.9593 40.7131C66.201 41.2306 66.3218 41.7946 66.3218 42.4051C66.3218 42.8563 66.1943 43.2013 65.9392 43.4402C65.6841 43.6791 65.3283 43.8317 64.8718 43.898L59.8974 44.6346C60.0451 45.0725 60.3472 45.4043 60.8037 45.6299C61.2602 45.8422 61.7838 45.9484 62.3745 45.9484C62.925 45.9484 63.4419 45.882 63.9252 45.7493C64.422 45.6033 64.8248 45.4374 65.1336 45.2517C65.3484 45.3844 65.5297 45.5702 65.6774 45.809C65.825 46.0479 65.8989 46.3 65.8989 46.5655C65.8989 47.1626 65.6169 47.6072 65.053 47.8992C64.6234 48.1248 64.1401 48.2774 63.603 48.357C63.066 48.4366 62.5625 48.4765 62.0926 48.4765ZM61.5287 40.6533C61.2064 40.6533 60.9245 40.7064 60.6828 40.8126C60.4546 40.9188 60.2666 41.0581 60.1189 41.2306C59.9712 41.3899 59.8571 41.5757 59.7766 41.788C59.7094 41.9871 59.6692 42.1928 59.6557 42.4051L63.0995 41.8477C63.0593 41.5823 62.9116 41.3169 62.6565 41.0515C62.4014 40.786 62.0254 40.6533 61.5287 40.6533Z" fill="#D27300"/>
<path d="M53.593 47.8992C53.4051 48.0452 53.1298 48.1646 52.7673 48.2575C52.4048 48.3504 51.9953 48.3968 51.5388 48.3968C51.0152 48.3968 50.5587 48.3305 50.1694 48.1978C49.7934 48.0651 49.5316 47.8527 49.3839 47.5608C49.2631 47.3352 49.1154 47.0233 48.9409 46.6252C48.7798 46.2138 48.6052 45.7626 48.4173 45.2716C48.2293 44.7673 48.0346 44.2298 47.8332 43.6592C47.6318 43.0885 47.4371 42.5245 47.2492 41.9671C47.0746 41.4098 46.9135 40.8723 46.7658 40.3548C46.6182 39.8372 46.4973 39.3794 46.4033 38.9812C46.5913 38.7954 46.8397 38.6362 47.1485 38.5035C47.4707 38.3575 47.8198 38.2845 48.1957 38.2845C48.6656 38.2845 49.0483 38.384 49.3437 38.5831C49.6525 38.7689 49.8807 39.1272 50.0284 39.658L50.8138 42.7037C50.9615 43.3009 51.1025 43.845 51.2367 44.336C51.371 44.8137 51.4717 45.1853 51.5388 45.4507H51.6395C51.8946 44.4687 52.1632 43.3805 52.4451 42.1861C52.7271 40.9917 52.9821 39.8173 53.2104 38.6627C53.4386 38.5433 53.6937 38.4504 53.9757 38.384C54.2711 38.3177 54.553 38.2845 54.8215 38.2845C55.2914 38.2845 55.6875 38.384 56.0097 38.5831C56.332 38.7822 56.4931 39.1272 56.4931 39.6182C56.4931 39.8306 56.4394 40.1424 56.332 40.5538C56.238 40.9519 56.1104 41.4098 55.9493 41.9273C55.8016 42.4316 55.6204 42.9691 55.4056 43.5397C55.2042 44.1104 54.9961 44.6677 54.7813 45.2118C54.5664 45.7559 54.3516 46.2669 54.1368 46.7446C53.9354 47.2091 53.7542 47.5939 53.593 47.8992Z" fill="#D27300"/>
<path d="M42.2562 48.4765C41.4641 48.4765 40.7257 48.3703 40.0409 48.158C39.3696 47.9324 38.7789 47.6006 38.2687 47.1626C37.7719 46.7247 37.3758 46.174 37.0805 45.5104C36.7985 44.8469 36.6575 44.0706 36.6575 43.1814C36.6575 42.3056 36.7985 41.5558 37.0805 40.932C37.3758 40.295 37.7585 39.7775 38.2284 39.3793C38.6983 38.968 39.2353 38.6694 39.8395 38.4836C40.4437 38.2845 41.0613 38.185 41.6923 38.185C42.4039 38.185 43.0484 38.2911 43.6257 38.5035C44.2164 38.7158 44.7199 39.0078 45.1361 39.3793C45.5658 39.7509 45.8947 40.1955 46.123 40.7131C46.3646 41.2306 46.4855 41.7946 46.4855 42.4051C46.4855 42.8563 46.3579 43.2013 46.1028 43.4402C45.8477 43.6791 45.4919 43.8317 45.0354 43.898L40.0611 44.6346C40.2087 45.0725 40.5108 45.4043 40.9673 45.6299C41.4238 45.8422 41.9474 45.9484 42.5382 45.9484C43.0887 45.9484 43.6056 45.882 44.0889 45.7493C44.5857 45.6033 44.9885 45.4374 45.2973 45.2517C45.5121 45.3844 45.6933 45.5702 45.841 45.809C45.9887 46.0479 46.0625 46.3 46.0625 46.5655C46.0625 47.1626 45.7806 47.6072 45.2167 47.8992C44.7871 48.1248 44.3037 48.2774 43.7667 48.357C43.2296 48.4366 42.7261 48.4765 42.2562 48.4765ZM41.6923 40.6533C41.3701 40.6533 41.0882 40.7064 40.8465 40.8126C40.6182 40.9188 40.4303 41.0581 40.2826 41.2306C40.1349 41.3899 40.0208 41.5757 39.9402 41.788C39.8731 41.9871 39.8328 42.1928 39.8194 42.4051L43.2632 41.8477C43.2229 41.5823 43.0752 41.3169 42.8201 41.0515C42.565 40.786 42.1891 40.6533 41.6923 40.6533Z" fill="#D27300"/>
<path d="M30.0936 48.2177C29.5162 48.2177 29.0597 48.0518 28.7241 47.72C28.3884 47.3883 28.2206 46.937 28.2206 46.3664V36.0749C28.3683 36.0484 28.6033 36.0152 28.9255 35.9754C29.2477 35.9223 29.5565 35.8958 29.8519 35.8958C30.1607 35.8958 30.4292 35.9223 30.6575 35.9754C30.8991 36.0152 31.1005 36.0948 31.2616 36.2143C31.4227 36.3337 31.5436 36.4996 31.6241 36.7119C31.7047 36.9243 31.745 37.2029 31.745 37.548V45.4109H36.3569C36.4508 45.5569 36.5381 45.7559 36.6187 46.0081C36.6992 46.247 36.7395 46.4991 36.7395 46.7645C36.7395 47.2954 36.6254 47.6736 36.3971 47.8992C36.1689 48.1115 35.8668 48.2177 35.4909 48.2177H30.0936Z" fill="#D27300"/>
<path d="M61.3262 62.424C62.454 62.424 63.3133 62.1719 63.904 61.6676C64.5216 61.1368 64.8304 60.3405 64.8304 59.2788C64.8304 58.2703 64.5082 57.5006 63.8638 56.9697C63.2462 56.4124 62.3332 56.1337 61.1248 56.1337C60.6952 56.1337 60.3327 56.1469 60.0373 56.1735C59.7688 56.1735 59.4868 56.2 59.1915 56.2531V62.424H61.3262ZM59.2317 75.2038C58.9364 75.2834 58.4664 75.363 57.822 75.4426C57.2044 75.5223 56.5868 75.5621 55.9692 75.5621C55.3516 75.5621 54.8011 75.509 54.3178 75.4028C53.8613 75.3232 53.4719 75.1639 53.1497 74.9251C52.8275 74.6862 52.5858 74.3544 52.4247 73.9298C52.2636 73.5051 52.183 72.9477 52.183 72.2576V53.5061C52.183 52.9487 52.3307 52.524 52.6261 52.2321C52.9483 51.9136 53.3779 51.6614 53.915 51.4756C54.828 51.1571 55.8618 50.9315 57.0164 50.7988C58.1979 50.6396 59.3794 50.56 60.5609 50.56C64.2665 50.56 67.0995 51.3429 69.0597 52.9089C71.0199 54.4748 72 56.5982 72 59.2788C72 60.5794 71.7852 61.7605 71.3555 62.8221C70.9528 63.8573 70.3352 64.7597 69.5027 65.5294C68.6972 66.2725 67.6634 66.8564 66.4013 67.2811C65.1661 67.6792 63.7295 67.8783 62.0915 67.8783H59.2317V75.2038Z" fill="#D27300"/>
<path d="M49.7504 66.4451C49.7504 67.8783 49.4953 69.1921 48.9851 70.3865C48.5017 71.5543 47.7901 72.5629 46.8503 73.4122C45.9105 74.235 44.7693 74.872 43.4266 75.3232C42.084 75.7744 40.5669 76 38.8752 76C37.1835 76 35.6663 75.7744 34.3237 75.3232C32.9811 74.872 31.8399 74.235 30.9 73.4122C29.9602 72.5629 29.2352 71.5543 28.725 70.3865C28.2417 69.1921 28 67.8783 28 66.4451V51.2368C28.2954 51.1837 28.7653 51.1173 29.4097 51.0377C30.0542 50.9315 30.6718 50.8785 31.2626 50.8785C31.8802 50.8785 32.4172 50.9315 32.8737 51.0377C33.357 51.1173 33.7598 51.2766 34.082 51.5155C34.4043 51.7543 34.6459 52.0861 34.8071 52.5108C34.9682 52.9354 35.0487 53.4928 35.0487 54.1829V66.3256C35.0487 67.5996 35.3978 68.5949 36.096 69.3115C36.821 70.0282 37.7474 70.3865 38.8752 70.3865C40.0298 70.3865 40.9562 70.0282 41.6544 69.3115C42.3525 68.5949 42.7016 67.5996 42.7016 66.3256V51.2368C42.997 51.1837 43.4669 51.1173 44.1114 51.0377C44.7558 50.9315 45.3734 50.8785 45.9642 50.8785C46.5818 50.8785 47.1188 50.9315 47.5753 51.0377C48.0587 51.1173 48.4614 51.2766 48.7837 51.5155C49.1059 51.7543 49.3476 52.0861 49.5087 52.5108C49.6698 52.9354 49.7504 53.4928 49.7504 54.1829V66.4451Z" fill="#D27300"/>
<defs>
<filter id="filter0_f_5564_93932" x="5.01831" y="5.24072" width="49.0027" height="38.8535" filterUnits="userSpaceOnUse" color-interpolation-filters="sRGB">
<feFlood flood-opacity="0" result="BackgroundImageFix"/>
<feBlend mode="normal" in="SourceGraphic" in2="BackgroundImageFix" result="shape"/>
<feGaussianBlur stdDeviation="2" result="effect1_foregroundBlur_5564_93932"/>
</filter>
<linearGradient id="paint0_linear_5564_93932" x1="50.0308" y1="0.664062" x2="50.0308" y2="106.726" gradientUnits="userSpaceOnUse">
<stop stop-color="#FFF07D"/>
<stop offset="1" stop-color="#FFAA01"/>
</linearGradient>
<linearGradient id="paint1_linear_5564_93932" x1="50.0308" y1="0.664062" x2="50.0308" y2="106.726" gradientUnits="userSpaceOnUse">
<stop stop-color="#FFE76D"/>
<stop offset="1" stop-color="#FE8900"/>
</linearGradient>
</defs>
</svg>
