<svg width="316" height="176" viewBox="0 0 316 176" fill="none" xmlns="http://www.w3.org/2000/svg">
<g clip-path="url(#clip0_1_31)">
<path d="M246.921 171.313C246.921 171.313 252.848 163.317 254.542 159.742L262.726 163.975C262.049 167.362 258.305 172.912 256.517 175.264L246.921 171.313Z" fill="#FBB424"/>
<path d="M35.0893 168.773C35.3151 163.58 37.8175 158.331 39.0405 156.355H29.727C27.0176 158.839 26.5284 165.669 26.6225 168.773H35.0893Z" fill="#FBB424"/>
<path d="M78.27 46.8499C78.27 46.8499 82.0331 40.9231 82.5035 38.9475L94.0749 46.8499L89.277 55.599C89.277 55.599 81.7508 48.6374 78.27 46.8499Z" fill="#FBB424"/>
<path d="M221.507 74.3866L218.967 66.4842C222.128 64.0006 229.127 62.0626 232.232 61.4041L235.054 71.8465C235.054 71.8465 224.141 73.4458 221.507 74.3866Z" fill="#FBB424"/>
<path d="M261.258 35.6515C261.258 35.6515 259.753 23.1394 259 20.6934L268.031 19C268.031 19 270.854 29.6306 270.571 33.1115L261.258 35.6515Z" fill="#FBB424"/>
<path d="M259.744 88.9022L256.357 80.9998C257.937 80.9998 265.294 79.6827 268.775 79.0242L271.033 85.7977C271.033 85.7977 262.66 88.5259 259.744 88.9022Z" fill="#85D164"/>
<path d="M68.3922 96.2401L64.1588 88.3376C62.1268 90.8213 55.4097 91.8185 52.3052 92.0066L57.3853 101.038L68.3922 96.2401Z" fill="#85D164"/>
<path d="M42.145 9.59579L43.8384 0L59.0788 6.7735L56.2565 16.0871C56.2565 16.0871 45.2495 10.7247 42.145 9.59579Z" fill="#85D164"/>
<path d="M60.7725 116.561L65.8526 112.327L71.4972 119.665L67.546 123.899L60.7725 116.561Z" fill="#FFD200"/>
<path d="M80.8107 160.473L76.8595 153.982C75.5048 155.562 69.7097 157.463 66.9814 158.215L71.2149 164.989L80.8107 160.473Z" fill="#FFD200"/>
<path d="M292.295 31.2672L297.88 21.0232L307.07 22.9928C307.07 22.9928 302.339 31.6806 300.53 34.4189L292.295 31.2672Z" fill="#FFD200"/>
<path d="M277 130.774L279.823 124L290.83 130.774L286.032 136.7C286.032 136.7 279.164 131.808 277 130.774Z" fill="#FFD200"/>
<path d="M31.4206 113.738C31.4206 113.738 26.5286 103.484 25.776 100.474L16.1802 106.4L23.5181 119.665L31.4206 113.738Z" fill="#FFD200"/>
<path d="M219.949 32.1741H212.329V42.0521H218.256L219.949 32.1741Z" fill="#E9E9E9"/>
<path d="M244.503 7.33794L248.454 2.54004L254.381 8.74908L250.994 13.8292L244.503 7.33794Z" fill="#E9E9E9"/>
<path d="M294.175 57.0103L289.095 48.8256C285.031 48.8256 279.123 52.4005 276.677 54.188L280.911 59.8326C280.911 59.8326 290.506 57.1044 294.175 57.0103Z" fill="#E9E9E9"/>
<path d="M315.625 99.0624L314.214 91.4422C311.956 88.9586 304.43 91.5363 300.949 93.1356L303.207 101.038C303.207 101.038 311.956 99.1565 315.625 99.0624Z" fill="#E9E9E9"/>
<path d="M250.994 110.634L244.503 106.118C239.31 109.053 236.883 114.867 236.318 117.407L243.092 120.794C243.092 120.794 248.454 112.798 250.994 110.634Z" fill="#E9E9E9"/>
<path d="M79.9947 115.407V105.812C87.6713 105.812 93.7299 109.198 98.5417 110.892L93.5417 120.487C93.5417 120.487 83.0052 115.595 79.9947 115.407Z" fill="#E9E9E9"/>
<path d="M78.27 75.0729C76.238 75.0729 69.3328 72.8151 66.1342 71.6862V80.7175H78.27C79.1167 78.836 80.3021 75.0729 78.27 75.0729Z" fill="#E9E9E9"/>
<path d="M40.4513 46.85L46.0959 43.4633L50.3293 51.0835L46.0959 54.188L40.4513 46.85Z" fill="#E9E9E9"/>
<path d="M30.4513 61.0835L26.2179 53.4633L16.6221 58.8256L20.0088 64.188L30.4513 61.0835Z" fill="#E9E9E9"/>
<path d="M17.591 15.2405L11.9464 7.90259L0.375 15.2405L4.60844 21.7318L17.591 15.2405Z" fill="#E9E9E9"/>
<path d="M81.939 15.2404C81.939 15.2404 80.0575 6.39726 78.5522 3.95127C79.6812 2.54013 82.5035 6.53565e-05 84.7613 1.12898C87.0191 2.2579 87.7717 9.31363 87.8658 12.7004L81.939 15.2404Z" fill="#E9E9E9"/>
</g>
<defs>
<clipPath id="clip0_1_31">
<rect width="316" height="176" fill="white"/>
</clipPath>
</defs>
</svg>
