<svg width="66" height="76" viewBox="0 0 66 76" fill="none" xmlns="http://www.w3.org/2000/svg">
<path d="M32.9111 0H41.7326V9.5H32.9111V0Z" fill="#D54453"/>
<path d="M39.0183 1.35714H51.5719V10.8571H39.0183V1.35714Z" fill="#D54453"/>
<path d="M41.7328 0V1.35714H39.0186L41.7328 0Z" fill="#B31D2C"/>
<rect x="31.8936" width="1.35714" height="15.6072" fill="black"/>
<path d="M64.4653 40.0352H47.501V74.6423H64.4653V40.0352Z" fill="url(#paint0_linear_6430_4807)"/>
<rect x="44.7871" y="38.6782" width="19.6786" height="2.03572" fill="black" fill-opacity="0.2"/>
<rect x="44.7871" y="37.3213" width="21.0357" height="2.71429" fill="#4880ED"/>
<path d="M45.226 75.8994V73.3852H65.7224V75.8994H45.226Z" fill="url(#paint1_linear_6430_4807)" stroke="#C2C2C2" stroke-width="0.2"/>
<rect x="53.6084" y="45.4639" width="6.78572" height="6.78572" fill="#4880ED"/>
<rect x="53.6084" y="57.6777" width="6.78572" height="6.78572" fill="#4880ED"/>
<g filter="url(#filter0_d_6430_4807)">
<path d="M61.0725 52.2495H52.9297V53.6067H61.0725V52.2495Z" fill="url(#paint2_linear_6430_4807)"/>
<path d="M53.0297 53.5067V52.3495H60.9725V53.5067H53.0297Z" stroke="#C2C2C2" stroke-width="0.2"/>
</g>
<g filter="url(#filter1_d_6430_4807)">
<path d="M61.0725 64.4634H52.9297V65.8205H61.0725V64.4634Z" fill="url(#paint3_linear_6430_4807)"/>
<path d="M53.0297 65.7205V64.5634H60.9725V65.7205H53.0297Z" stroke="#C2C2C2" stroke-width="0.2"/>
</g>
<path d="M1.357 40.0352H18.3213V74.6423H1.357V40.0352Z" fill="url(#paint4_linear_6430_4807)"/>
<rect width="19.6786" height="2.03572" transform="matrix(-1 0 0 1 21.0361 38.6782)" fill="black" fill-opacity="0.2"/>
<rect width="21.0357" height="2.71429" transform="matrix(-1 0 0 1 21.0361 37.3213)" fill="#4880ED"/>
<path d="M20.5963 75.8994V73.3852H0.0998535V75.8994H20.5963Z" fill="url(#paint5_linear_6430_4807)" stroke="#C2C2C2" stroke-width="0.2"/>
<rect width="6.78572" height="6.78572" transform="matrix(-1 0 0 1 12.2148 45.4639)" fill="#4880ED"/>
<rect width="6.78572" height="6.78572" transform="matrix(-1 0 0 1 12.2148 57.6777)" fill="#4880ED"/>
<g filter="url(#filter2_d_6430_4807)">
<path d="M4.74972 52.2495H12.8926V53.6067H4.74972V52.2495Z" fill="url(#paint6_linear_6430_4807)"/>
<path d="M12.7926 53.5067V52.3495H4.84972V53.5067H12.7926Z" stroke="#C2C2C2" stroke-width="0.2"/>
</g>
<g filter="url(#filter3_d_6430_4807)">
<path d="M4.74972 64.4634H12.8926V65.8205H4.74972V64.4634Z" fill="url(#paint7_linear_6430_4807)"/>
<path d="M12.7926 65.7205V64.5634H4.84972V65.7205H12.7926Z" stroke="#C2C2C2" stroke-width="0.2"/>
</g>
<path d="M50.2146 28.5001L36.5303 16.9644H29.9384L15.6074 28.5001V73.2858H50.2146V28.5001Z" fill="url(#paint8_linear_6430_4807)"/>
<path d="M14.351 75.8999V73.3856H50.7938V75.8999H14.351Z" fill="url(#paint9_linear_6430_4807)" stroke="#C2C2C2" stroke-width="0.2"/>
<path opacity="0.2" fill-rule="evenodd" clip-rule="evenodd" d="M50.2146 31.3251L35.2682 19.6784H29.8522L15.6074 31.0201V27.8214L29.9384 16.2856H36.4342L37.7046 17.2756L50.2146 27.8214V31.3251Z" fill="#181818"/>
<path d="M53.2684 30.5358L35.852 16.9644H29.2601L12.2148 30.5358" stroke="#4880ED" stroke-width="3"/>
<rect width="15.6471" height="17.8824" transform="matrix(1 8.74228e-08 8.74228e-08 -1 24.5889 73.7646)" fill="#4880ED"/>
<g filter="url(#filter4_d_6430_4807)">
<path d="M41.0541 56.5605L24.0898 56.5605L24.0898 55.2034L41.0541 55.2034L41.0541 56.5605Z" fill="url(#paint10_linear_6430_4807)"/>
<path d="M24.1898 55.3034L24.1898 56.4605L40.9541 56.4605L40.9541 55.3034L24.1898 55.3034Z" stroke="#C2C2C2" stroke-width="0.2"/>
</g>
<g filter="url(#filter5_i_6430_4807)">
<ellipse cx="32.4124" cy="34.0884" rx="7.82353" ry="8.38236" fill="white"/>
</g>
<path d="M32.4121 30.1763V34.6469H36.8827" stroke="#222222"/>
<g filter="url(#filter6_d_6430_4807)">
<path d="M32.4124 42.9708C37.0413 42.9708 40.7359 38.9609 40.7359 34.0884C40.7359 29.2159 37.0413 25.2061 32.4124 25.2061C27.7835 25.2061 24.0889 29.2159 24.0889 34.0884C24.0889 38.9609 27.7835 42.9708 32.4124 42.9708Z" stroke="#EBE1E2" shape-rendering="crispEdges"/>
</g>
<defs>
<filter id="filter0_d_6430_4807" x="51.9297" y="52.2495" width="10.1426" height="3.35693" filterUnits="userSpaceOnUse" color-interpolation-filters="sRGB">
<feFlood flood-opacity="0" result="BackgroundImageFix"/>
<feColorMatrix in="SourceAlpha" type="matrix" values="0 0 0 0 0 0 0 0 0 0 0 0 0 0 0 0 0 0 127 0" result="hardAlpha"/>
<feOffset dy="1"/>
<feGaussianBlur stdDeviation="0.5"/>
<feComposite in2="hardAlpha" operator="out"/>
<feColorMatrix type="matrix" values="0 0 0 0 0 0 0 0 0 0 0 0 0 0 0 0 0 0 0.25 0"/>
<feBlend mode="normal" in2="BackgroundImageFix" result="effect1_dropShadow_6430_4807"/>
<feBlend mode="normal" in="SourceGraphic" in2="effect1_dropShadow_6430_4807" result="shape"/>
</filter>
<filter id="filter1_d_6430_4807" x="51.9297" y="64.4634" width="10.1426" height="3.35693" filterUnits="userSpaceOnUse" color-interpolation-filters="sRGB">
<feFlood flood-opacity="0" result="BackgroundImageFix"/>
<feColorMatrix in="SourceAlpha" type="matrix" values="0 0 0 0 0 0 0 0 0 0 0 0 0 0 0 0 0 0 127 0" result="hardAlpha"/>
<feOffset dy="1"/>
<feGaussianBlur stdDeviation="0.5"/>
<feComposite in2="hardAlpha" operator="out"/>
<feColorMatrix type="matrix" values="0 0 0 0 0 0 0 0 0 0 0 0 0 0 0 0 0 0 0.25 0"/>
<feBlend mode="normal" in2="BackgroundImageFix" result="effect1_dropShadow_6430_4807"/>
<feBlend mode="normal" in="SourceGraphic" in2="effect1_dropShadow_6430_4807" result="shape"/>
</filter>
<filter id="filter2_d_6430_4807" x="3.75" y="52.2495" width="10.1426" height="3.35693" filterUnits="userSpaceOnUse" color-interpolation-filters="sRGB">
<feFlood flood-opacity="0" result="BackgroundImageFix"/>
<feColorMatrix in="SourceAlpha" type="matrix" values="0 0 0 0 0 0 0 0 0 0 0 0 0 0 0 0 0 0 127 0" result="hardAlpha"/>
<feOffset dy="1"/>
<feGaussianBlur stdDeviation="0.5"/>
<feComposite in2="hardAlpha" operator="out"/>
<feColorMatrix type="matrix" values="0 0 0 0 0 0 0 0 0 0 0 0 0 0 0 0 0 0 0.25 0"/>
<feBlend mode="normal" in2="BackgroundImageFix" result="effect1_dropShadow_6430_4807"/>
<feBlend mode="normal" in="SourceGraphic" in2="effect1_dropShadow_6430_4807" result="shape"/>
</filter>
<filter id="filter3_d_6430_4807" x="3.75" y="64.4634" width="10.1426" height="3.35693" filterUnits="userSpaceOnUse" color-interpolation-filters="sRGB">
<feFlood flood-opacity="0" result="BackgroundImageFix"/>
<feColorMatrix in="SourceAlpha" type="matrix" values="0 0 0 0 0 0 0 0 0 0 0 0 0 0 0 0 0 0 127 0" result="hardAlpha"/>
<feOffset dy="1"/>
<feGaussianBlur stdDeviation="0.5"/>
<feComposite in2="hardAlpha" operator="out"/>
<feColorMatrix type="matrix" values="0 0 0 0 0 0 0 0 0 0 0 0 0 0 0 0 0 0 0.25 0"/>
<feBlend mode="normal" in2="BackgroundImageFix" result="effect1_dropShadow_6430_4807"/>
<feBlend mode="normal" in="SourceGraphic" in2="effect1_dropShadow_6430_4807" result="shape"/>
</filter>
<filter id="filter4_d_6430_4807" x="23.0898" y="55.2036" width="18.9639" height="3.35693" filterUnits="userSpaceOnUse" color-interpolation-filters="sRGB">
<feFlood flood-opacity="0" result="BackgroundImageFix"/>
<feColorMatrix in="SourceAlpha" type="matrix" values="0 0 0 0 0 0 0 0 0 0 0 0 0 0 0 0 0 0 127 0" result="hardAlpha"/>
<feOffset dy="1"/>
<feGaussianBlur stdDeviation="0.5"/>
<feComposite in2="hardAlpha" operator="out"/>
<feColorMatrix type="matrix" values="0 0 0 0 0 0 0 0 0 0 0 0 0 0 0 0 0 0 0.4 0"/>
<feBlend mode="normal" in2="BackgroundImageFix" result="effect1_dropShadow_6430_4807"/>
<feBlend mode="normal" in="SourceGraphic" in2="effect1_dropShadow_6430_4807" result="shape"/>
</filter>
<filter id="filter5_i_6430_4807" x="24.5889" y="25.7061" width="15.6475" height="17.2646" filterUnits="userSpaceOnUse" color-interpolation-filters="sRGB">
<feFlood flood-opacity="0" result="BackgroundImageFix"/>
<feBlend mode="normal" in="SourceGraphic" in2="BackgroundImageFix" result="shape"/>
<feColorMatrix in="SourceAlpha" type="matrix" values="0 0 0 0 0 0 0 0 0 0 0 0 0 0 0 0 0 0 127 0" result="hardAlpha"/>
<feOffset dy="0.5"/>
<feGaussianBlur stdDeviation="0.25"/>
<feComposite in2="hardAlpha" operator="arithmetic" k2="-1" k3="1"/>
<feColorMatrix type="matrix" values="0 0 0 0 0 0 0 0 0 0 0 0 0 0 0 0 0 0 0.25 0"/>
<feBlend mode="normal" in2="shape" result="effect1_innerShadow_6430_4807"/>
</filter>
<filter id="filter6_d_6430_4807" x="23.0889" y="24.7061" width="18.6475" height="19.7646" filterUnits="userSpaceOnUse" color-interpolation-filters="sRGB">
<feFlood flood-opacity="0" result="BackgroundImageFix"/>
<feColorMatrix in="SourceAlpha" type="matrix" values="0 0 0 0 0 0 0 0 0 0 0 0 0 0 0 0 0 0 127 0" result="hardAlpha"/>
<feOffset dy="0.5"/>
<feGaussianBlur stdDeviation="0.25"/>
<feComposite in2="hardAlpha" operator="out"/>
<feColorMatrix type="matrix" values="0 0 0 0 0 0 0 0 0 0 0 0 0 0 0 0 0 0 0.25 0"/>
<feBlend mode="normal" in2="BackgroundImageFix" result="effect1_dropShadow_6430_4807"/>
<feBlend mode="normal" in="SourceGraphic" in2="effect1_dropShadow_6430_4807" result="shape"/>
</filter>
<linearGradient id="paint0_linear_6430_4807" x1="47.501" y1="56.29" x2="64.4653" y2="56.29" gradientUnits="userSpaceOnUse">
<stop stop-color="#BEB6B6"/>
<stop offset="0.0416667" stop-color="#EBE1E2"/>
<stop offset="0.95" stop-color="#EBE1E2"/>
<stop offset="1" stop-color="#BEB6B6"/>
</linearGradient>
<linearGradient id="paint1_linear_6430_4807" x1="29.1795" y1="94.3209" x2="65.8224" y2="94.3209" gradientUnits="userSpaceOnUse">
<stop stop-color="#BEB6B6"/>
<stop offset="0.0416667" stop-color="#EBE1E2"/>
<stop offset="0.95" stop-color="#EBE1E2"/>
<stop offset="1" stop-color="#BEB6B6"/>
</linearGradient>
<linearGradient id="paint2_linear_6430_4807" x1="52.9297" y1="62.7674" x2="61.0725" y2="62.7674" gradientUnits="userSpaceOnUse">
<stop stop-color="#BEB6B6"/>
<stop offset="0.0416667" stop-color="#EBE1E2"/>
<stop offset="0.95" stop-color="#EBE1E2"/>
<stop offset="1" stop-color="#BEB6B6"/>
</linearGradient>
<linearGradient id="paint3_linear_6430_4807" x1="52.9297" y1="74.9812" x2="61.0725" y2="74.9812" gradientUnits="userSpaceOnUse">
<stop stop-color="#BEB6B6"/>
<stop offset="0.0416667" stop-color="#EBE1E2"/>
<stop offset="0.95" stop-color="#EBE1E2"/>
<stop offset="1" stop-color="#BEB6B6"/>
</linearGradient>
<linearGradient id="paint4_linear_6430_4807" x1="18.3213" y1="56.29" x2="1.357" y2="56.29" gradientUnits="userSpaceOnUse">
<stop stop-color="#BEB6B6"/>
<stop offset="0.0416667" stop-color="#EBE1E2"/>
<stop offset="0.95" stop-color="#EBE1E2"/>
<stop offset="1" stop-color="#BEB6B6"/>
</linearGradient>
<linearGradient id="paint5_linear_6430_4807" x1="36.6427" y1="94.3209" x2="-0.000147253" y2="94.3209" gradientUnits="userSpaceOnUse">
<stop stop-color="#BEB6B6"/>
<stop offset="0.0416667" stop-color="#EBE1E2"/>
<stop offset="0.95" stop-color="#EBE1E2"/>
<stop offset="1" stop-color="#BEB6B6"/>
</linearGradient>
<linearGradient id="paint6_linear_6430_4807" x1="12.8926" y1="62.7674" x2="4.74972" y2="62.7674" gradientUnits="userSpaceOnUse">
<stop stop-color="#BEB6B6"/>
<stop offset="0.0416667" stop-color="#EBE1E2"/>
<stop offset="0.95" stop-color="#EBE1E2"/>
<stop offset="1" stop-color="#BEB6B6"/>
</linearGradient>
<linearGradient id="paint7_linear_6430_4807" x1="12.8926" y1="74.9812" x2="4.74972" y2="74.9812" gradientUnits="userSpaceOnUse">
<stop stop-color="#BEB6B6"/>
<stop offset="0.0416667" stop-color="#EBE1E2"/>
<stop offset="0.95" stop-color="#EBE1E2"/>
<stop offset="1" stop-color="#BEB6B6"/>
</linearGradient>
<linearGradient id="paint8_linear_6430_4807" x1="15.6074" y1="49.5358" x2="50.2146" y2="49.5358" gradientUnits="userSpaceOnUse">
<stop stop-color="#BEB6B6"/>
<stop offset="0.0416667" stop-color="#EBE1E2"/>
<stop offset="0.95" stop-color="#EBE1E2"/>
<stop offset="1" stop-color="#BEB6B6"/>
</linearGradient>
<linearGradient id="paint9_linear_6430_4807" x1="14.251" y1="94.3214" x2="50.8938" y2="94.3214" gradientUnits="userSpaceOnUse">
<stop stop-color="#BEB6B6"/>
<stop offset="0.0416667" stop-color="#EBE1E2"/>
<stop offset="0.95" stop-color="#EBE1E2"/>
<stop offset="1" stop-color="#BEB6B6"/>
</linearGradient>
<linearGradient id="paint10_linear_6430_4807" x1="24.0898" y1="46.0427" x2="41.0541" y2="46.0427" gradientUnits="userSpaceOnUse">
<stop stop-color="#BEB6B6"/>
<stop offset="0.0416667" stop-color="#EBE1E2"/>
<stop offset="0.95" stop-color="#EBE1E2"/>
<stop offset="1" stop-color="#BEB6B6"/>
</linearGradient>
</defs>
</svg>
