<svg width="45" height="44" viewBox="0 0 45 44" fill="none" xmlns="http://www.w3.org/2000/svg">
<path d="M3.77298 9H37.9949C37.9949 9.03461 37.9956 9.06886 37.997 9.10347C38.0108 9.46138 38.0967 9.80198 38.241 10.112C38.2552 10.143 38.2705 10.1735 38.2858 10.2037C38.4181 10.4626 38.5927 10.699 38.7999 10.9044C38.8221 10.9265 38.845 10.9483 38.8683 10.97C39.0759 11.1626 39.3137 11.3257 39.5745 11.452C39.6039 11.4663 39.6334 11.48 39.6636 11.4936C39.9472 11.6195 40.2559 11.7027 40.581 11.7351C40.6199 11.7388 40.6592 11.7421 40.6985 11.7443C40.7596 11.748 40.8214 11.7499 40.8839 11.7499V11.931C40.6192 11.9321 40.4046 12.1369 40.4046 12.3891C40.4046 12.6413 40.6061 12.8335 40.8596 12.8464C40.8675 12.8468 40.8756 12.8472 40.8836 12.8472V13.3236C40.6188 13.3247 40.4043 13.5295 40.4043 13.7817C40.4043 14.0339 40.6185 14.2387 40.8836 14.2398V14.7162C40.6188 14.7173 40.4043 14.9221 40.4043 15.1743C40.4043 15.4265 40.6185 15.6313 40.8836 15.6324V16.1089C40.6188 16.11 40.4043 16.3147 40.4043 16.5669C40.4043 16.8191 40.6185 17.0239 40.8836 17.025V17.5015C40.7428 17.5022 40.6163 17.56 40.5286 17.6524L40.5268 17.6543C40.5199 17.6613 40.5134 17.669 40.5076 17.6767C40.4443 17.7555 40.4046 17.8527 40.4046 17.9599C40.4046 18.2121 40.6188 18.4169 40.8839 18.418V18.8944C40.7919 18.8948 40.7061 18.9198 40.633 18.9629C40.5454 19.0145 40.4763 19.0922 40.4381 19.185C40.4163 19.2369 40.4046 19.2936 40.4046 19.3529C40.4046 19.6051 40.6188 19.8098 40.8839 19.8109V20.2874C40.8148 20.2878 40.7494 20.3018 40.6901 20.3272C40.5559 20.3843 40.4541 20.4977 40.4188 20.6365C40.4097 20.6715 40.405 20.7083 40.405 20.7458C40.405 20.9981 40.6192 21.2028 40.8843 21.2039V21.6804C40.833 21.6808 40.7839 21.6885 40.7374 21.7028C40.5646 21.7562 40.4345 21.9006 40.4097 22.0762C40.4068 22.0968 40.405 22.1175 40.405 22.1388C40.405 22.3911 40.6192 22.5958 40.8843 22.5969V23.0734C40.8479 23.0734 40.8123 23.0774 40.7785 23.0851C40.6868 23.105 40.6054 23.1496 40.5421 23.2114C40.5246 23.228 40.5086 23.2464 40.4945 23.2656C40.4421 23.3352 40.4101 23.4191 40.4054 23.5101C40.405 23.5171 40.4046 23.5244 40.4046 23.5318C40.4046 23.784 40.6188 23.9888 40.8839 23.9899V24.4663C40.8606 24.4663 40.8381 24.4682 40.8159 24.4711C40.7508 24.48 40.6901 24.5017 40.6363 24.5326C40.5461 24.5849 40.4752 24.6644 40.437 24.7594C40.4163 24.8106 40.405 24.8662 40.405 24.9244C40.405 24.9292 40.405 24.9343 40.4054 24.9391C40.4192 25.1844 40.6246 25.3814 40.8843 25.3828V25.8593C40.873 25.8593 40.8621 25.8597 40.8512 25.8604C40.7952 25.8641 40.7421 25.8774 40.693 25.898C40.557 25.9547 40.4537 26.0699 40.4185 26.2106C40.4097 26.2448 40.405 26.2806 40.405 26.3174C40.405 26.3336 40.4061 26.3498 40.4076 26.3656C40.4326 26.5954 40.6363 26.7743 40.8839 26.7758V27.2523C40.8337 27.2527 40.785 27.2604 40.7392 27.2744C40.5646 27.3274 40.4334 27.4729 40.409 27.6503C40.4061 27.6702 40.4046 27.6905 40.4046 27.7107C40.4046 27.7376 40.4072 27.7641 40.4119 27.7899C40.4512 28.0046 40.6472 28.1681 40.8839 28.1692V28.3422C40.4719 28.3422 40.0796 28.4243 39.725 28.5724C39.6527 28.6025 39.5821 28.6353 39.513 28.671C38.8668 29.0032 38.3683 29.5632 38.137 30.2382C38.1127 30.3089 38.0916 30.3803 38.0734 30.4532C38.0221 30.658 37.9949 30.8715 37.9949 31.0913H3.77298C3.77298 31.0383 3.77152 30.986 3.76825 30.9337C3.76571 30.8899 3.76207 30.8465 3.75734 30.803C3.72025 30.4639 3.61807 30.1428 3.46316 29.8516C3.44753 29.8221 3.43153 29.793 3.4148 29.7643C3.27044 29.5154 3.0868 29.29 2.87153 29.0963C2.84826 29.075 2.82462 29.0544 2.80062 29.0341C2.58317 28.8504 2.33626 28.6975 2.06754 28.5823C2.03699 28.5694 2.00609 28.5565 1.97518 28.5447C1.67845 28.4291 1.35736 28.3595 1.02137 28.3448C0.98064 28.343 0.93955 28.3419 0.898823 28.3419H0.884277V28.1688H0.885368C0.958095 28.1688 1.02682 28.1533 1.08864 28.1261C1.217 28.0694 1.31482 27.96 1.35118 27.8271C1.36173 27.7899 1.36682 27.7509 1.36682 27.7107C1.36682 27.4578 1.15118 27.2527 0.885368 27.2527H0.884277V26.7762H0.885368C0.93955 26.7762 0.991913 26.7677 1.04064 26.7515C1.20864 26.6974 1.33482 26.5571 1.36136 26.3862C1.365 26.3638 1.36682 26.3413 1.36682 26.3177C1.36682 26.0648 1.15118 25.8597 0.885368 25.8597H0.884277V25.3832H0.885368C0.924641 25.3832 0.962458 25.3788 0.998822 25.3703C1.20137 25.3243 1.35373 25.156 1.36609 24.952C1.36682 24.9432 1.36682 24.934 1.36682 24.9251C1.36682 24.6722 1.15118 24.4671 0.885368 24.4671H0.884277V23.9906H0.885368C0.910823 23.9906 0.935913 23.9888 0.96064 23.9851C1.02719 23.9751 1.08937 23.9523 1.14427 23.9188C1.22755 23.8683 1.29336 23.794 1.33118 23.706C1.35445 23.6526 1.36718 23.5937 1.36718 23.5325C1.36718 23.5292 1.36718 23.5263 1.36718 23.523C1.35736 23.2744 1.14827 23.0745 0.885732 23.0745H0.884641V22.598H0.885732C0.899186 22.598 0.912641 22.5976 0.925732 22.5965C0.982822 22.5921 1.037 22.5781 1.08646 22.5564C1.217 22.4993 1.31591 22.3888 1.35191 22.2541C1.36173 22.2176 1.36682 22.1793 1.36682 22.1399C1.36682 22.1252 1.36609 22.1105 1.36464 22.0961C1.34173 21.8634 1.13591 21.6819 0.885368 21.6819H0.884277V21.2054H0.885368C0.88755 21.2054 0.890095 21.2054 0.892277 21.2054C0.943186 21.205 0.992276 21.1965 1.03846 21.1818C1.20827 21.1281 1.33555 20.9863 1.36173 20.8136C1.36536 20.7919 1.36682 20.7698 1.36682 20.7473C1.36682 20.7219 1.36464 20.6969 1.36027 20.6722C1.32282 20.4549 1.12464 20.2889 0.885368 20.2889H0.884277V19.8124H0.885368C0.92355 19.8124 0.961004 19.8084 0.997004 19.7999C1.201 19.7542 1.35482 19.5845 1.36609 19.3794C1.36682 19.3709 1.36682 19.3628 1.36682 19.3543C1.36682 19.3186 1.36245 19.2836 1.35409 19.2501C1.30464 19.0472 1.11373 18.8959 0.885368 18.8959H0.884277V18.4194H0.885368C0.910095 18.4194 0.934822 18.4176 0.958822 18.4143C1.18973 18.3808 1.36682 18.1908 1.36682 17.9614C1.36682 17.9577 1.36682 17.954 1.36682 17.95C1.36573 17.9083 1.35882 17.8678 1.34682 17.8295C1.28755 17.6406 1.10355 17.5029 0.885732 17.5029H0.884641V17.0265H0.885732C0.898459 17.0265 0.911186 17.0261 0.923913 17.025C1.17191 17.0066 1.36718 16.8092 1.36718 16.5684C1.36718 16.5533 1.36645 16.5382 1.365 16.5231C1.361 16.4841 1.35155 16.4465 1.33809 16.4108C1.27082 16.2355 1.09373 16.1103 0.885732 16.1103H0.884641V15.6338H0.885732C0.885732 15.6338 0.889368 15.6338 0.890823 15.6338C1.15446 15.6313 1.36718 15.4273 1.36718 15.1758C1.36718 15.1496 1.365 15.1242 1.36027 15.0992C1.35409 15.0624 1.34282 15.027 1.32755 14.9935C1.25373 14.8308 1.08355 14.7173 0.885732 14.7173H0.884641V14.2409H0.885732C1.15155 14.2409 1.36718 14.0358 1.36718 13.7828C1.36718 13.7464 1.36282 13.7114 1.35445 13.6775C1.34609 13.6425 1.333 13.609 1.31627 13.5777C1.23737 13.4275 1.07446 13.3247 0.885732 13.3247H0.884641V12.8483H0.885732C1.15155 12.8483 1.36718 12.6432 1.36718 12.3902C1.36718 12.3438 1.35991 12.2992 1.34645 12.2573C1.33591 12.2241 1.32136 12.1925 1.30355 12.163C1.22064 12.0249 1.06464 11.9321 0.885368 11.9321H0.884277V11.751C1.19882 11.751 1.50136 11.7031 1.785 11.6147C1.84609 11.5956 1.90645 11.5746 1.96572 11.5518C2.84899 11.2123 3.51589 10.4688 3.71298 9.5619C3.72571 9.50262 3.73698 9.44223 3.74534 9.38184C3.76352 9.25739 3.77298 9.13072 3.77298 9.00184V9Z" fill="#2CCD70"/>
<path d="M5.11456 29.3813C5.06547 29.2664 5.01129 29.153 4.95238 29.0425C4.92438 28.9899 4.89711 28.9405 4.87093 28.8963C4.63929 28.4972 4.34621 28.1363 4.00039 27.8237C3.95857 27.7854 3.92039 27.7526 3.88548 27.7228C3.62476 27.5026 3.34221 27.3133 3.04149 27.1569C3.02258 25.6391 3.04294 13.539 3.05131 12.9325C3.98439 12.4465 4.71202 11.664 5.11529 10.7125H36.6539C36.6721 10.7556 36.691 10.798 36.7106 10.8399C36.735 10.8922 36.7604 10.9445 36.787 10.9957C37.0001 11.4125 37.2797 11.7936 37.6179 12.1287C37.6601 12.1703 37.6953 12.2042 37.7295 12.2355C38.0266 12.5105 38.3593 12.7451 38.7201 12.9336V27.1605C37.7812 27.6514 37.0575 28.432 36.6539 29.3816L5.11456 29.3813Z" stroke="#292B1F" stroke-linecap="round" stroke-linejoin="round"/>
<g clip-path="url(#clip0_76_2458)">
<path d="M40.1306 29.457C39.5056 27.392 38.5615 26.0284 37.5058 24.1508C35.981 21.4388 34.2879 22.4635 34.2879 22.4635C33.3518 22.8672 33.3211 23.4721 33.3211 23.4721C32.1677 21.4205 30.4864 22.3249 30.4864 22.3249C29.482 22.7471 29.4606 23.5279 29.4606 23.5279C29.2373 23.1305 28.2922 21.922 26.8673 22.6253C25.65 23.2262 25.7331 24.2152 25.7331 24.2152L25.1108 28.2828L26.9045 32.6567C25.9046 31.0373 23.6352 29.2613 23.6352 29.2613C22.5818 28.4231 21.6306 28.6789 21.1925 29.1948C20.9302 29.5039 20.8445 29.8756 21.0148 30.244C21.1396 30.514 21.5864 30.9595 21.9565 31.3679L23.531 32.9251C24.0344 33.4502 25.6858 35.1671 25.9583 35.4591C27.0805 36.6632 27.8923 37.5119 28.7214 38.0951C28.7214 38.0951 31.9755 40.7777 36.4045 38.2205C40.1325 36.0682 41.4828 33.9254 40.1303 29.4565L40.1306 29.457Z" fill="white"/>
<path d="M36.6668 38.675C34.226 40.0842 32.1141 39.9694 30.7724 39.625C29.4054 39.274 28.5444 38.6237 28.4067 38.5148C27.5418 37.9033 26.723 37.0484 25.5754 35.8169C25.3708 35.5975 24.351 34.5354 23.6762 33.833L23.1583 33.2934L21.5886 31.741C21.582 31.7343 21.5753 31.7275 21.5688 31.7203C21.4929 31.6369 21.4141 31.5518 21.3354 31.4669C20.9801 31.0841 20.673 30.7535 20.5392 30.4638C20.29 29.9251 20.3827 29.3387 20.7932 28.8555C21.4093 28.1301 22.6634 27.8191 23.9609 28.8515C24.0056 28.8863 24.553 29.3171 25.225 29.9425L24.6258 28.4817C24.5897 28.3937 24.5782 28.2974 24.5926 28.2033L25.2081 24.1789C25.2095 23.8771 25.3129 22.8082 26.6349 22.1554C27.7808 21.5896 28.7215 21.9952 29.3274 22.5435C29.5347 22.2822 29.839 22.0299 30.2755 21.8449C30.532 21.7252 32.0426 21.1082 33.2788 22.5043C33.4602 22.3243 33.7098 22.1453 34.0537 21.9936C34.2217 21.9022 34.8526 21.609 35.6874 21.8288C36.555 22.0574 37.3204 22.7523 37.9621 23.8938C38.1769 24.276 38.3883 24.6385 38.5927 24.9891C39.4108 26.393 40.1176 27.6053 40.6318 29.305C41.3396 31.6441 41.3449 33.431 40.6475 34.9288C40.0103 36.2977 38.7827 37.4528 36.6666 38.6745L36.6668 38.675ZM22.335 31.0057L23.8996 32.5528C23.9028 32.5561 23.9061 32.5594 23.9095 32.5629L24.4318 33.1071C25.149 33.8541 26.1316 34.8771 26.3417 35.1026C27.4505 36.2922 28.236 37.1136 29.023 37.6671C29.0339 37.6749 29.0443 37.6829 29.0548 37.6915C29.0608 37.6966 29.8261 38.3102 31.0783 38.6214C32.7413 39.0348 34.4453 38.7473 36.1428 37.7673C38.0611 36.6597 39.1575 35.6478 39.6982 34.4864C40.2802 33.2362 40.2583 31.6862 39.6296 29.609C39.151 28.0273 38.473 26.8643 37.6882 25.5174C37.4818 25.1633 37.2686 24.797 37.0497 24.4079C36.5256 23.4759 35.9236 22.9261 35.3084 22.8181C34.8914 22.745 34.5945 22.8942 34.5568 22.9146C34.5339 22.9288 34.522 22.9343 34.496 22.9455C33.9637 23.1745 33.8622 23.4503 33.8454 23.5134C33.853 23.7504 33.6987 23.937 33.469 24.0043C33.2349 24.0728 32.9845 23.942 32.8647 23.7294C32.4888 23.061 32.0237 22.6999 31.4819 22.6556C31.0635 22.6215 30.7337 22.7877 30.7306 22.7895C30.7159 22.7972 30.7051 22.8021 30.6899 22.8089C30.0685 23.0701 29.9931 23.4751 29.9845 23.5495C29.9884 23.7877 29.8307 23.9844 29.6004 24.0483C29.3683 24.1126 29.1223 23.9954 29.004 23.7853C28.9306 23.6546 28.2537 22.5266 27.0994 23.0962C26.2752 23.5037 26.2536 24.0859 26.2557 24.1771C26.261 24.2225 26.258 24.2492 26.251 24.2957L25.6509 28.2195L27.3895 32.459C27.493 32.7115 27.3859 33.0018 27.1428 33.1247C26.8999 33.2485 26.6027 33.165 26.4589 32.9326C25.5209 31.4133 23.3348 29.6921 23.3128 29.6747C22.4459 28.9851 21.8237 29.2626 21.5922 29.5351C21.3796 29.7854 21.4603 29.9594 21.4905 30.0247C21.5543 30.163 21.8715 30.5048 22.1034 30.7543C22.1814 30.8386 22.2598 30.9229 22.3354 31.0058L22.335 31.0057Z" fill="black"/>
<path d="M27.5076 33.9379L21.2329 22.8046C20.5865 21.5721 20.0203 20.1681 21.1507 19.5257C22.358 18.881 23.2617 20.0764 23.9378 21.2788L28.2835 28.5962L27.5075 33.9376L27.5076 33.9379Z" fill="white"/>
<path d="M27.7702 34.3918C27.7686 34.3927 27.7671 34.3935 27.7653 34.3946C27.5132 34.5367 27.1937 34.4472 27.0518 34.195L20.777 23.0617C20.7744 23.0571 20.7717 23.0525 20.7693 23.0477C20.4649 22.4673 20.1033 21.7119 20.0069 21.0152C19.8537 19.9101 20.4013 19.349 20.892 19.0698C20.8959 19.0676 20.9 19.0652 20.9038 19.063C22.7371 18.0839 23.9798 20.2837 24.3916 21.0166L28.7342 28.3286C28.8819 28.5774 28.8002 28.8992 28.5516 29.0469C28.5498 29.0479 28.5478 29.0491 28.546 29.0501C28.2982 29.1932 27.9805 29.1105 27.8338 28.8635L23.4882 21.546C23.4861 21.5424 23.484 21.5389 23.4819 21.5353C22.34 19.5041 21.7103 19.8214 21.4047 19.9845L21.403 19.9855C20.9814 20.2289 20.7299 20.7134 21.6938 22.554L27.9645 33.6804C28.1058 33.9309 28.0187 34.2483 27.7707 34.3915L27.7702 34.3918Z" fill="black"/>
<path d="M31.6786 27.3538C31.4285 27.4982 31.1086 27.4128 30.9635 27.1627L29.0148 23.8076C28.8695 23.557 28.9543 23.2365 29.2045 23.091L29.2055 23.0904C29.4556 22.946 29.7754 23.0312 29.9205 23.2813L31.8692 26.6364C32.0148 26.8868 31.9297 27.2075 31.6795 27.353L31.6785 27.3536L31.6786 27.3538Z" fill="black"/>
<path d="M35.3225 26.9788L35.3204 26.98C35.0692 27.1236 34.7492 27.0362 34.6056 26.7846L32.8599 23.7308C32.7166 23.4802 32.803 23.1611 33.0526 23.017L33.0546 23.0158C33.3058 22.8722 33.6259 22.9596 33.7695 23.2112L35.5151 26.265C35.6585 26.5157 35.5721 26.8347 35.3225 26.9788Z" fill="black"/>
</g>
<defs>
<clipPath id="clip0_76_2458">
<rect width="18.3792" height="24.866" fill="white" transform="translate(15.6895 22.0736) rotate(-30)"/>
</clipPath>
</defs>
</svg>
