<svg width="42" height="40" viewBox="0 0 42 40" fill="none" xmlns="http://www.w3.org/2000/svg">
<path d="M8.50344 5.81279L38.0281 12.9956C38.0208 13.0255 38.0143 13.0552 38.0083 13.0853C37.9451 13.397 37.9476 13.7089 38.0071 14.0067C38.0128 14.0363 38.0196 14.0659 38.0264 14.0952C38.0863 14.3463 38.1873 14.5868 38.323 14.8076C38.3375 14.8313 38.3527 14.8549 38.3682 14.8785C38.5069 15.0882 38.6778 15.2789 38.8763 15.4426C38.8987 15.4611 38.9212 15.4791 38.9444 15.4972C39.1627 15.6653 39.4116 15.8019 39.6852 15.8981C39.718 15.9095 39.7512 15.9206 39.7846 15.9307C39.8366 15.9467 39.8895 15.9613 39.9435 15.9744L39.9054 16.1307C39.6768 16.0761 39.4488 16.2077 39.3958 16.4253C39.3429 16.6429 39.4763 16.851 39.6923 16.9153C39.6991 16.9173 39.7059 16.9193 39.7128 16.921L39.6128 17.3321C39.3842 17.2775 39.1561 17.4091 39.1032 17.6267C39.0503 17.8443 39.1921 18.0659 39.4205 18.1225L39.3205 18.5336C39.0919 18.479 38.8639 18.6105 38.8109 18.8282C38.758 19.0458 38.8998 19.2674 39.1283 19.3239L39.0282 19.735C38.7996 19.6804 38.5716 19.812 38.5186 20.0296C38.4657 20.2472 38.6075 20.4688 38.836 20.5254L38.736 20.9365C38.6144 20.9076 38.4931 20.9309 38.3981 20.9922L38.3961 20.9934C38.3887 20.998 38.3814 21.0033 38.3748 21.0088C38.3037 21.0635 38.2491 21.139 38.2266 21.2315C38.1736 21.4491 38.3154 21.6707 38.5439 21.7273L38.4439 22.1383C38.3644 22.1193 38.2852 22.1229 38.2131 22.1448C38.1266 22.1708 38.0507 22.2234 37.9983 22.2954C37.9686 22.3356 37.9466 22.3821 37.9342 22.4333C37.8812 22.6509 38.0231 22.8725 38.2515 22.929L38.1515 23.3401C38.0918 23.3259 38.0324 23.3243 37.976 23.3338C37.8482 23.3548 37.7366 23.4313 37.677 23.5437C37.6618 23.5719 37.65 23.6027 37.6421 23.6351C37.5892 23.8527 37.731 24.0743 37.9595 24.1309L37.8595 24.542C37.8152 24.5315 37.7712 24.5279 37.728 24.5305C37.5678 24.5403 37.4252 24.6375 37.367 24.7839C37.3601 24.8011 37.3542 24.8185 37.3498 24.8369C37.2968 25.0545 37.4386 25.2761 37.6671 25.3327L37.5671 25.7438C37.5357 25.7361 37.5041 25.7321 37.4733 25.7317C37.3901 25.7296 37.3105 25.751 37.2429 25.7911C37.2244 25.8017 37.2067 25.8142 37.1904 25.8278C37.1307 25.8768 37.0854 25.9425 37.0623 26.02C37.0605 26.026 37.0586 26.0322 37.0571 26.0386C37.0041 26.2562 37.1459 26.4778 37.3744 26.5344L37.2744 26.9455C37.2543 26.9406 37.2345 26.9374 37.2147 26.9353C37.1567 26.9293 37.0998 26.9353 37.0469 26.9507C36.9581 26.9768 36.8802 27.0306 36.8273 27.1045C36.7987 27.1443 36.7773 27.1899 36.7651 27.2401C36.7641 27.2443 36.763 27.2487 36.7623 27.2529C36.7228 27.4674 36.8587 27.6805 37.0824 27.7362L36.9824 28.1473C36.9726 28.145 36.9631 28.143 36.9536 28.1413C36.9045 28.1327 36.8559 28.133 36.8092 28.1405C36.68 28.1609 36.5667 28.2387 36.5067 28.3526C36.492 28.3803 36.4805 28.4101 36.4727 28.4419C36.4693 28.4559 36.4669 28.4701 36.4648 28.4841C36.4382 28.6876 36.5763 28.8847 36.7897 28.9379L36.6897 29.349C36.6463 29.3388 36.6026 29.3353 36.5602 29.3377C36.3985 29.3468 36.2547 29.4447 36.1964 29.5928C36.1897 29.6093 36.1842 29.6265 36.18 29.6439C36.1743 29.6671 36.171 29.6905 36.1696 29.7138C36.1584 29.9072 36.2932 30.0894 36.4972 30.14L36.4609 30.2894C36.1055 30.2029 35.7497 30.1914 35.4128 30.2447C35.344 30.2555 35.2763 30.269 35.2092 30.2853C34.582 30.4362 34.0343 30.8148 33.6931 31.3485C33.6572 31.4044 33.6241 31.4616 33.5931 31.5207C33.5059 31.6866 33.4375 31.8651 33.3914 32.0548L3.86669 24.8719C3.87782 24.8262 3.88754 24.7808 3.89569 24.735C3.9027 24.6967 3.90868 24.6584 3.91372 24.6199C3.9529 24.3196 3.93214 24.0211 3.85962 23.7373C3.85232 23.7086 3.84462 23.6801 3.83622 23.6519C3.76391 23.4068 3.65278 23.1738 3.50771 22.9616C3.49212 22.9382 3.47605 22.9155 3.4596 22.893C3.31056 22.6888 3.12961 22.5052 2.92196 22.3493C2.89831 22.3318 2.87435 22.3142 2.85016 22.2975C2.61843 22.1355 2.35602 22.0081 2.06923 21.9248C2.03448 21.9147 1.99926 21.9051 1.96413 21.8966L1.95158 21.8935L1.9879 21.7442L1.98884 21.7445C2.05159 21.7597 2.11413 21.7608 2.17318 21.7503C2.29583 21.7283 2.40317 21.6545 2.46244 21.5474C2.47935 21.5175 2.49193 21.4849 2.50035 21.4503C2.55345 21.2321 2.41046 21.0099 2.18113 20.9541L2.18019 20.9538L2.2802 20.5428L2.28114 20.543C2.32788 20.5544 2.37484 20.558 2.42028 20.5543C2.57658 20.5429 2.71488 20.4483 2.77364 20.3065C2.7815 20.2879 2.78778 20.2689 2.79273 20.2485C2.84582 20.0303 2.70283 19.8081 2.4735 19.7523L2.47256 19.7521L2.57257 19.341L2.57351 19.3412C2.60739 19.3495 2.64095 19.3536 2.6741 19.3539C2.8585 19.3567 3.02527 19.2435 3.07875 19.0701C3.08123 19.0626 3.08317 19.0547 3.08502 19.0471C3.13812 18.8288 2.99513 18.6066 2.7658 18.5508L2.76485 18.5506L2.86486 18.1395L2.8658 18.1397C2.88776 18.1451 2.9098 18.1488 2.9319 18.1508C2.9914 18.1562 3.04984 18.1495 3.10424 18.1321C3.18667 18.1061 3.25907 18.0557 3.31017 17.9878C3.34145 17.9466 3.3648 17.8984 3.37763 17.8457C3.37832 17.8428 3.37894 17.8403 3.37964 17.8374C3.42333 17.6209 3.28491 17.4045 3.0584 17.3494L3.05746 17.3492L3.15747 16.9381L3.15841 16.9384C3.17002 16.9412 3.1817 16.9437 3.19323 16.9455C3.24341 16.9537 3.29309 16.953 3.34032 16.9446C3.46492 16.9228 3.57344 16.8482 3.63279 16.7395C3.64891 16.7101 3.66134 16.6781 3.66961 16.6441C3.6727 16.6314 3.67516 16.6186 3.67692 16.6059C3.706 16.4003 3.56654 16.2005 3.35038 16.1479L3.34944 16.1477L3.44945 15.7366L3.45039 15.7368C3.45227 15.7373 3.45447 15.7378 3.45635 15.7383C3.50035 15.7486 3.54448 15.7516 3.58741 15.7486C3.7452 15.7379 3.88476 15.6423 3.9436 15.4988C3.95129 15.4808 3.95719 15.4621 3.9619 15.4427C3.96723 15.4208 3.97061 15.3987 3.97202 15.3765C3.98531 15.1812 3.84918 14.9963 3.64275 14.9461L3.64181 14.9459L3.74182 14.5348L3.74276 14.535C3.7757 14.5431 3.80887 14.5474 3.8417 14.5477C4.02728 14.5511 4.19562 14.4369 4.24839 14.2623C4.25079 14.2552 4.25249 14.2482 4.25427 14.2409C4.26177 14.2101 4.26535 14.179 4.26516 14.1483C4.26508 13.9629 4.13214 13.7923 3.93512 13.7443L3.93418 13.7441L4.03419 13.333L4.03513 13.3333C4.05646 13.3384 4.07818 13.3421 4.09959 13.3442C4.30583 13.3638 4.49849 13.237 4.54664 13.0391C4.54742 13.0359 4.54819 13.0328 4.54904 13.0293C4.55683 12.9931 4.55937 12.9567 4.55706 12.9212C4.54557 12.7458 4.41573 12.5884 4.22781 12.5426L4.22687 12.5424L4.32688 12.1313L4.32782 12.1316C4.3388 12.1342 4.34985 12.1366 4.36107 12.1383C4.57889 12.1745 4.78878 12.0452 4.83933 11.8374C4.8425 11.8244 4.84504 11.8112 4.84695 11.7979C4.85169 11.7634 4.85142 11.729 4.84731 11.6953C4.82606 11.53 4.69955 11.3848 4.5201 11.3412L4.51916 11.3409L4.61917 10.9299L4.62011 10.9301C4.62011 10.9301 4.62325 10.9309 4.6245 10.9312C4.85249 10.9843 5.07884 10.8529 5.13162 10.636C5.13711 10.6134 5.14056 10.591 5.14174 10.5684C5.14413 10.5354 5.14182 10.5025 5.13568 10.4704C5.10616 10.3145 4.98314 10.1809 4.81247 10.1394L4.81153 10.1392L4.91154 9.72809L4.91248 9.72831C5.14181 9.78411 5.3709 9.65242 5.42399 9.43417C5.43164 9.40272 5.43522 9.37163 5.43512 9.34065C5.43524 9.30871 5.43098 9.27705 5.42312 9.24654C5.38657 9.10036 5.26759 8.97754 5.10477 8.93793L5.10383 8.9377L5.20383 8.52662L5.20477 8.52685C5.43411 8.58264 5.66319 8.45096 5.71629 8.23271C5.72602 8.19268 5.7291 8.15272 5.7263 8.11368C5.72416 8.08287 5.71826 8.0525 5.70907 8.02335C5.66652 7.88681 5.55141 7.77402 5.39675 7.73639L5.39581 7.73616L5.43383 7.57986C5.7052 7.64588 5.97626 7.66808 6.23952 7.65137C6.29624 7.64768 6.35272 7.64224 6.40865 7.63498C7.24194 7.52747 7.97334 7.02605 8.33374 6.28498C8.35716 6.2365 8.37956 6.18677 8.39945 6.13642C8.44126 6.03286 8.476 5.92557 8.50305 5.81438L8.50344 5.81279Z" fill="#FFC800"/>
<path d="M5.38274 23.6785C5.3645 23.5691 5.34156 23.4599 5.31392 23.3522C5.30082 23.3009 5.28765 23.2526 5.27433 23.209C5.15827 22.816 4.98115 22.4432 4.74842 22.1009C4.72038 22.0591 4.69431 22.0228 4.67046 21.9897C4.49173 21.745 4.2877 21.5224 4.06109 21.3243C4.36335 20.0109 6.9206 9.57588 7.0551 9.05442C7.96213 8.83093 8.75412 8.30858 9.30174 7.57234L36.5115 14.192C36.5181 14.233 36.5255 14.2735 36.5337 14.3138C36.5437 14.364 36.5547 14.4145 36.5669 14.4642C36.6632 14.8685 36.8245 15.256 37.0459 15.6161C37.0736 15.6608 37.0969 15.6975 37.1198 15.7317C37.3184 16.0313 37.5562 16.3035 37.8279 16.5419L34.8418 28.816C33.9287 29.0424 33.1406 29.564 32.593 30.2986L5.38266 23.6788L5.38274 23.6785Z" stroke="#292B1F" stroke-linecap="round" stroke-linejoin="round"/>
<path d="M9.22818 13.4936L10.1069 13.7074L8.63786 19.746L10.1177 20.106L11.5868 14.0674L12.4655 14.2812L12.8147 12.8459L9.57737 12.0583L9.22818 13.4936Z" fill="#222222"/>
<path d="M15.45 13.487L14.0204 13.1392L12.2022 20.6128L13.6319 20.9606L15.45 13.487Z" fill="#222222"/>
<path d="M17.1438 14.4388C16.7656 14.7546 16.4884 15.275 16.3121 15.9997L15.4733 19.4478C15.3259 20.0537 15.3743 20.5648 15.619 20.981C15.8636 21.3975 16.2534 21.6707 16.7889 21.801C17.3775 21.9441 17.8718 21.9076 18.2716 21.6916C18.6714 21.4756 18.9514 21.0393 19.1112 20.3823L19.4552 18.9683L17.9669 18.6062L17.6394 19.9523C17.5988 20.1194 17.5396 20.249 17.4624 20.3409C17.3852 20.4332 17.2833 20.4639 17.1572 20.4332C17.0452 20.406 16.9693 20.3424 16.9297 20.243C16.8901 20.1435 16.8954 19.9903 16.9458 19.7835L17.8559 16.0425C17.8965 15.8754 17.9529 15.7474 18.025 15.6586C18.0971 15.5698 18.2019 15.5422 18.3393 15.5756C18.457 15.6042 18.5344 15.6644 18.5716 15.7559C18.6088 15.8474 18.6 16.0051 18.5456 16.2288L18.277 17.3327L19.7487 17.6908L20.0627 16.4C20.1584 16.0067 20.1594 15.661 20.0656 15.364C19.9714 15.0668 19.8039 14.8198 19.5623 14.6231C19.3207 14.4263 19.0247 14.2853 18.6743 14.2001C18.0324 14.0439 17.5222 14.1237 17.1443 14.4396L17.1438 14.4388Z" fill="#222222"/>
<path d="M21.8432 15.0424L20.0249 22.5162L21.4966 22.8743L22.3768 19.2561L22.3038 23.0706L23.8386 23.444L23.8234 19.1494L25.4843 15.9282L23.996 15.5661L22.578 18.3922L23.3064 15.3983L21.8432 15.0424Z" fill="#222222"/>
<path d="M27.2277 20.9131L28.6238 21.2527L28.9657 19.8473L27.5696 19.5076L27.9239 18.051L29.3787 18.405L29.73 16.9611L26.7703 16.241L24.952 23.7149L28.0087 24.4585L28.363 23.0019L26.8113 22.6244L27.2277 20.9131Z" fill="#222222"/>
<path d="M30.9319 17.2535L30.5827 18.6888L31.4611 18.9025L29.992 24.941L31.4722 25.3011L32.9413 19.2626L33.82 19.4764L34.1692 18.0411L30.9319 17.2535Z" fill="#222222"/>
<path d="M3.77298 12.7021H37.9949C37.9949 12.7368 37.9956 12.771 37.997 12.8056C38.0108 13.1635 38.0967 13.5041 38.241 13.8142C38.2552 13.8451 38.2705 13.8757 38.2858 13.9059C38.4181 14.1647 38.5927 14.4011 38.7999 14.6066C38.8221 14.6287 38.845 14.6504 38.8683 14.6721C39.0759 14.8647 39.3137 15.0278 39.5745 15.1541C39.6039 15.1685 39.6334 15.1821 39.6636 15.1957C39.9472 15.3217 40.2559 15.4049 40.581 15.4373C40.6199 15.441 40.6592 15.4443 40.6985 15.4465C40.7596 15.4502 40.8214 15.452 40.8839 15.452V15.6332C40.6192 15.6343 40.4046 15.839 40.4046 16.0912C40.4046 16.3435 40.6061 16.5357 40.8596 16.5486C40.8675 16.5489 40.8756 16.5493 40.8836 16.5493V17.0258C40.6188 17.0269 40.4043 17.2316 40.4043 17.4839C40.4043 17.7361 40.6185 17.9408 40.8836 17.9419V18.4184C40.6188 18.4195 40.4043 18.6242 40.4043 18.8765C40.4043 19.1287 40.6185 19.3334 40.8836 19.3345V19.811C40.6188 19.8121 40.4043 20.0168 40.4043 20.2691C40.4043 20.5213 40.6185 20.726 40.8836 20.7271V21.2036C40.7428 21.2043 40.6163 21.2622 40.5286 21.3546L40.5268 21.3564C40.5199 21.3634 40.5134 21.3711 40.5076 21.3789C40.4443 21.4577 40.4046 21.5549 40.4046 21.662C40.4046 21.9143 40.6188 22.119 40.8839 22.1201V22.5966C40.7919 22.597 40.7061 22.622 40.633 22.6651C40.5454 22.7166 40.4763 22.7943 40.4381 22.8871C40.4163 22.939 40.4046 22.9957 40.4046 23.055C40.4046 23.3072 40.6188 23.512 40.8839 23.5131V23.9896C40.8148 23.9899 40.7494 24.0039 40.6901 24.0293C40.5559 24.0864 40.4541 24.1998 40.4188 24.3386C40.4097 24.3736 40.405 24.4104 40.405 24.448C40.405 24.7002 40.6192 24.905 40.8843 24.9061V25.3825C40.833 25.3829 40.7839 25.3906 40.7374 25.405C40.5646 25.4584 40.4345 25.6027 40.4097 25.7784C40.4068 25.799 40.405 25.8196 40.405 25.841C40.405 26.0932 40.6192 26.2979 40.8843 26.299V26.7755C40.8479 26.7755 40.8123 26.7796 40.7785 26.7873C40.6868 26.8072 40.6054 26.8517 40.5421 26.9136C40.5246 26.9302 40.5086 26.9486 40.4945 26.9677C40.4421 27.0373 40.4101 27.1213 40.4054 27.2122C40.405 27.2192 40.4046 27.2266 40.4046 27.2339C40.4046 27.4862 40.6188 27.6909 40.8839 27.692V28.1685C40.8606 28.1685 40.8381 28.1703 40.8159 28.1733C40.7508 28.1821 40.6901 28.2038 40.6363 28.2348C40.5461 28.2871 40.4752 28.3666 40.437 28.4616C40.4163 28.5128 40.405 28.5684 40.405 28.6266C40.405 28.6313 40.405 28.6365 40.4054 28.6413C40.4192 28.8865 40.6246 29.0835 40.8843 29.085V29.5615C40.873 29.5615 40.8621 29.5618 40.8512 29.5626C40.7952 29.5662 40.7421 29.5795 40.693 29.6001C40.557 29.6568 40.4537 29.7721 40.4185 29.9127C40.4097 29.947 40.405 29.9827 40.405 30.0195C40.405 30.0357 40.4061 30.0519 40.4076 30.0678C40.4326 30.2975 40.6363 30.4765 40.8839 30.478V30.9544C40.8337 30.9548 40.785 30.9625 40.7392 30.9765C40.5646 31.0296 40.4334 31.175 40.409 31.3525C40.4061 31.3724 40.4046 31.3926 40.4046 31.4129C40.4046 31.4398 40.4072 31.4663 40.4119 31.492C40.4512 31.7067 40.6472 31.8702 40.8839 31.8713V32.0444C40.4719 32.0444 40.0796 32.1265 39.725 32.2745C39.6527 32.3047 39.5821 32.3375 39.513 32.3732C38.8668 32.7053 38.3683 33.2654 38.137 33.9403C38.1127 34.011 38.0916 34.0825 38.0734 34.1554C38.0221 34.3601 37.9949 34.5737 37.9949 34.7935H3.77298C3.77298 34.7405 3.77152 34.6882 3.76825 34.6359C3.76571 34.5921 3.76207 34.5486 3.75734 34.5052C3.72025 34.166 3.61807 33.845 3.46316 33.5537C3.44753 33.5242 3.43153 33.4952 3.4148 33.4664C3.27044 33.2175 3.0868 32.9922 2.87153 32.7985C2.84826 32.7771 2.82462 32.7565 2.80062 32.7363C2.58317 32.5525 2.33626 32.3997 2.06754 32.2844C2.03699 32.2716 2.00609 32.2587 1.97518 32.2469C1.67845 32.1313 1.35736 32.0617 1.02137 32.0469C0.98064 32.0451 0.93955 32.044 0.898823 32.044H0.884277V31.8709H0.885368C0.958095 31.8709 1.02682 31.8555 1.08864 31.8282C1.217 31.7715 1.31482 31.6622 1.35118 31.5292C1.36173 31.492 1.36682 31.453 1.36682 31.4129C1.36682 31.1599 1.15118 30.9548 0.885368 30.9548H0.884277V30.4783H0.885368C0.93955 30.4783 0.991913 30.4699 1.04064 30.4537C1.20864 30.3995 1.33482 30.2592 1.36136 30.0884C1.365 30.0659 1.36682 30.0435 1.36682 30.0199C1.36682 29.7669 1.15118 29.5618 0.885368 29.5618H0.884277V29.0854H0.885368C0.924641 29.0854 0.962458 29.0809 0.998822 29.0725C1.20137 29.0264 1.35373 28.8582 1.36609 28.6542C1.36682 28.6453 1.36682 28.6361 1.36682 28.6273C1.36682 28.3743 1.15118 28.1692 0.885368 28.1692H0.884277V27.6927H0.885368C0.910823 27.6927 0.935913 27.6909 0.96064 27.6872C1.02719 27.6773 1.08937 27.6545 1.14427 27.6209C1.22755 27.5705 1.29336 27.4961 1.33118 27.4081C1.35445 27.3547 1.36718 27.2958 1.36718 27.2347C1.36718 27.2314 1.36718 27.2284 1.36718 27.2251C1.35736 26.9766 1.14827 26.7766 0.885732 26.7766H0.884641V26.3001H0.885732C0.899186 26.3001 0.912641 26.2998 0.925732 26.2987C0.982822 26.2942 1.037 26.2803 1.08646 26.2585C1.217 26.2015 1.31591 26.091 1.35191 25.9562C1.36173 25.9198 1.36682 25.8815 1.36682 25.8421C1.36682 25.8273 1.36609 25.8126 1.36464 25.7983C1.34173 25.5655 1.13591 25.384 0.885368 25.384H0.884277V24.9075H0.885368C0.88755 24.9075 0.890095 24.9075 0.892277 24.9075C0.943186 24.9072 0.992276 24.8987 1.03846 24.884C1.20827 24.8302 1.33555 24.6884 1.36173 24.5157C1.36536 24.494 1.36682 24.4719 1.36682 24.4495C1.36682 24.4241 1.36464 24.399 1.36027 24.3743C1.32282 24.1571 1.12464 23.991 0.885368 23.991H0.884277V23.5146H0.885368C0.92355 23.5146 0.961004 23.5105 0.997004 23.502C1.201 23.4564 1.35482 23.2866 1.36609 23.0815C1.36682 23.0731 1.36682 23.065 1.36682 23.0565C1.36682 23.0208 1.36245 22.9858 1.35409 22.9523C1.30464 22.7494 1.11373 22.5981 0.885368 22.5981H0.884277V22.1216H0.885368C0.910095 22.1216 0.934822 22.1197 0.958822 22.1164C1.18973 22.0829 1.36682 21.8929 1.36682 21.6635C1.36682 21.6598 1.36682 21.6561 1.36682 21.6521C1.36573 21.6105 1.35882 21.57 1.34682 21.5317C1.28755 21.3428 1.10355 21.2051 0.885732 21.2051H0.884641V20.7286H0.885732C0.898459 20.7286 0.911186 20.7282 0.923913 20.7271C1.17191 20.7087 1.36718 20.5114 1.36718 20.2705C1.36718 20.2554 1.36645 20.2403 1.365 20.2252C1.361 20.1862 1.35155 20.1487 1.33809 20.1129C1.27082 19.9377 1.09373 19.8125 0.885732 19.8125H0.884641V19.336H0.885732C0.885732 19.336 0.889368 19.336 0.890823 19.336C1.15446 19.3334 1.36718 19.1294 1.36718 18.8779C1.36718 18.8518 1.365 18.8264 1.36027 18.8013C1.35409 18.7645 1.34282 18.7292 1.32755 18.6957C1.25373 18.5329 1.08355 18.4195 0.885732 18.4195H0.884641V17.943H0.885732C1.15155 17.943 1.36718 17.7379 1.36718 17.485C1.36718 17.4485 1.36282 17.4135 1.35445 17.3796C1.34609 17.3447 1.333 17.3112 1.31627 17.2799C1.23737 17.1296 1.07446 17.0269 0.885732 17.0269H0.884641V16.5504H0.885732C1.15155 16.5504 1.36718 16.3453 1.36718 16.0923C1.36718 16.046 1.35991 16.0014 1.34645 15.9594C1.33591 15.9263 1.32136 15.8946 1.30355 15.8652C1.22064 15.7271 1.06464 15.6343 0.885368 15.6343H0.884277V15.4531C1.19882 15.4531 1.50136 15.4053 1.785 15.3169C1.84609 15.2977 1.90645 15.2767 1.96572 15.2539C2.84899 14.9144 3.51589 14.171 3.71298 13.2641C3.72571 13.2048 3.73698 13.1444 3.74534 13.084C3.76352 12.9595 3.77298 12.8329 3.77298 12.704V12.7021Z" fill="#2CCD70"/>
<path d="M5.11456 33.0834C5.06547 32.9685 5.01129 32.8551 4.95238 32.7447C4.92438 32.692 4.89711 32.6427 4.87093 32.5985C4.63929 32.1993 4.34621 31.8385 4.00039 31.5259C3.95857 31.4876 3.92039 31.4548 3.88548 31.425C3.62476 31.2048 3.34221 31.0155 3.04149 30.859C3.02258 29.3412 3.04294 17.2411 3.05131 16.6347C3.98439 16.1486 4.71202 15.3662 5.11529 14.4147H36.6539C36.6721 14.4578 36.691 14.5001 36.7106 14.5421C36.735 14.5944 36.7604 14.6467 36.787 14.6978C37.0001 15.1147 37.2797 15.4958 37.6179 15.8308C37.6601 15.8725 37.6953 15.9063 37.7295 15.9376C38.0266 16.2127 38.3593 16.4472 38.7201 16.6358V30.8627C37.7812 31.3535 37.0575 32.1342 36.6539 33.0838L5.11456 33.0834Z" stroke="#292B1F" stroke-linecap="round" stroke-linejoin="round"/>
<path d="M8.86963 21.2897H9.7452V27.3064H11.2197V21.2897H12.0953V19.8596H8.86963V21.2897Z" fill="#222222"/>
<path d="M14.721 19.8596H13.2965V27.306H14.721V19.8596Z" fill="#222222"/>
<path d="M16.5322 20.3673C16.2487 20.7509 16.107 21.3039 16.107 22.0259V25.4616C16.107 26.0652 16.2696 26.535 16.595 26.8705C16.9204 27.2063 17.3496 27.3741 17.8832 27.3741C18.4696 27.3741 18.9263 27.2266 19.253 26.9319C19.5796 26.6372 19.7431 26.1627 19.7431 25.5081V24.0992H18.2602V25.4404C18.2602 25.6069 18.2342 25.7424 18.1827 25.8465C18.1311 25.951 18.0423 26.0032 17.9166 26.0032C17.805 26.0032 17.7191 25.9608 17.6591 25.8763C17.599 25.7917 17.569 25.6465 17.569 25.4404V21.7129C17.569 21.5464 17.5928 21.4131 17.6403 21.3131C17.6878 21.2131 17.78 21.1631 17.917 21.1631C18.0342 21.1631 18.1208 21.202 18.1767 21.2796C18.2327 21.3571 18.2605 21.5075 18.2605 21.7303V22.8303H19.7269V21.5442C19.7269 21.1523 19.6487 20.8269 19.4924 20.5689C19.3358 20.311 19.1217 20.1169 18.8494 19.9871C18.5771 19.8574 18.2664 19.7925 17.9173 19.7925C17.2777 19.7925 16.816 19.9843 16.5328 20.3679L16.5322 20.3673Z" fill="#222222"/>
<path d="M21.091 19.8596V27.3064H22.5574V23.7014L23.3617 27.3064H24.8909L23.8937 23.2699L24.7189 19.8596H23.236L22.5489 22.8426V19.8596H21.091Z" fill="#222222"/>
<path d="M27.4997 24.1499H28.8908V22.7495H27.4997V21.2982H28.9492V19.8596H26.0002V27.3064H29.0458V25.8551H27.4997V24.1499Z" fill="#222222"/>
<path d="M30.1468 19.8596V21.2897H31.022V27.3064H32.4968V21.2897H33.3724V19.8596H30.1468Z" fill="#222222"/>
</svg>
