<svg width="276" height="36" viewBox="0 0 276 36" fill="none" xmlns="http://www.w3.org/2000/svg">
<g clip-path="url(#clip0_40_7750)">
<path d="M160.959 35.6372C153.545 35.6372 147.527 29.6775 147.527 22.3359C147.527 14.9942 153.545 9.03455 160.959 9.03455C163.977 9.03455 166.82 10.0019 169.192 11.833C170.57 12.8868 170.815 14.856 169.751 16.2207C168.687 17.5854 166.698 17.8273 165.32 16.7735C164.064 15.8061 162.564 15.3052 160.959 15.3052C157.034 15.3052 153.859 18.4664 153.859 22.3359C153.859 26.2054 157.052 29.3666 160.959 29.3666C163.733 29.3666 166.157 27.7773 167.326 25.4626H162.738C160.994 25.4626 159.581 24.0633 159.581 22.3359C159.581 20.6084 160.994 19.2092 162.738 19.2092H171.216C172.96 19.2092 174.373 20.6084 174.373 22.3359C174.373 29.6603 168.355 35.6372 160.942 35.6372H160.959Z" fill="#A8A89D"/>
<path d="M194.276 34.8944C184.63 34.8944 176.798 27.1209 176.798 17.5854C176.798 8.04988 184.63 0.276367 194.276 0.276367C198.201 0.276367 201.899 1.5374 204.987 3.90401C206.365 4.95775 206.609 6.92704 205.545 8.29172C204.481 9.65641 202.492 9.89825 201.114 8.84451C199.143 7.32435 196.771 6.52973 194.276 6.52973C188.119 6.52973 183.112 11.4875 183.112 17.5854C183.112 23.6833 188.119 28.6411 194.276 28.6411C199.335 28.6411 203.609 25.2898 204.987 20.7293H196.771C195.027 20.7293 193.614 19.3301 193.614 17.6027C193.614 15.8752 195.027 14.476 196.771 14.476H208.598C210.342 14.476 211.755 15.8752 211.755 17.6027C211.755 27.1382 203.905 34.9117 194.276 34.9117V34.8944Z" fill="#00AEEF"/>
<path d="M3.704 36C2.04685 36 0.668796 34.7217 0.54669 33.0806C0.442027 31.5432 -0.39527 17.8791 1.19211 11.6084V11.5393C2.7446 4.83685 8.84989 0 15.775 0C23.991 0 30.6894 6.61612 30.6894 14.7697C30.6894 19.4856 28.4392 23.7006 24.9504 26.3954L30.9685 28.3301C32.6257 28.8656 33.5327 30.6276 32.992 32.2687C32.4512 33.9098 30.672 34.8081 29.0148 34.2726L13.9086 29.4012C12.4607 28.9347 11.5537 27.5182 11.7455 26.0154C11.9374 24.5125 13.1934 23.3724 14.711 23.3033L15.6006 23.2514C15.6006 23.2514 15.7053 23.2514 15.7576 23.2514C20.4848 23.2514 24.3573 19.4338 24.3573 14.7351C24.3573 10.0365 20.5023 6.21881 15.7576 6.21881C11.763 6.21881 8.22192 9.01727 7.36718 12.8868C7.36718 12.9213 7.34973 12.9731 7.33229 13.0077V13.094C6.18101 17.5681 6.59966 28.7102 6.84387 32.6142C6.94853 34.3416 5.64025 35.8273 3.89588 35.9309C3.82611 35.9309 3.75633 35.9309 3.68656 35.9309L3.704 36Z" fill="#034EA2"/>
<path d="M123.664 35.499C121.92 35.499 120.507 34.0998 120.507 32.3724V12.9731C120.507 11.7121 121.274 10.5547 122.461 10.071C123.647 9.58733 125.007 9.86372 125.914 10.762L139.608 24.5125V13.0422C139.608 11.3148 141.021 9.91555 142.765 9.91555C144.509 9.91555 145.922 11.3148 145.922 13.0422V32.1478C145.922 33.4088 145.155 34.5662 143.969 35.0326C142.782 35.5163 141.422 35.2399 140.515 34.3416L126.821 20.5912V32.3551C126.821 34.0825 125.409 35.4818 123.664 35.4818V35.499Z" fill="#A8A89D"/>
<path d="M114.629 35.499C112.884 35.499 111.471 34.0998 111.471 32.3723V13.0595C111.471 11.332 112.884 9.9328 114.629 9.9328C116.373 9.9328 117.786 11.332 117.786 13.0595V32.3551C117.786 34.0825 116.373 35.4817 114.629 35.4817V35.499Z" fill="#A8A89D"/>
<path d="M97.2193 35.6545C95.475 35.6545 94.062 34.2553 94.062 32.5278C94.062 30.8004 95.475 29.4011 97.2193 29.4011C100.708 29.4011 103.534 26.5854 103.534 23.1305C103.534 19.4856 100.429 16.048 97.1495 16.048H91.7594V32.4414C91.7594 34.1689 90.3465 35.5681 88.6021 35.5681C86.8578 35.5681 85.4448 34.1689 85.4448 32.4414V12.9386C85.4448 11.2111 86.8578 9.81189 88.6021 9.81189H97.1495C103.918 9.81189 109.866 16.048 109.866 23.1478C109.866 30.2476 104.197 35.6718 97.2193 35.6718V35.6545Z" fill="#F28396"/>
<path d="M70.4785 35.6027C68.7342 35.6027 67.3212 34.2034 67.3212 32.476C67.3212 30.7485 68.7342 29.3493 70.4785 29.3493H75.5896L70.0773 19.4683L62.1579 33.9443C61.3206 35.4645 59.4018 36.0345 57.8667 35.2054C56.3317 34.3762 55.7561 32.476 56.5934 30.9558L67.2689 11.453C67.8271 10.451 68.8737 9.81189 70.025 9.81189C71.1763 9.81189 72.2229 10.4338 72.7811 11.4184L83.6834 30.9213C84.2242 31.8887 84.2067 33.0633 83.6485 34.0307C83.0729 34.9808 82.0437 35.5681 80.9273 35.5681H70.4611L70.4785 35.6027Z" fill="#FAA61A"/>
<path d="M222.779 35.6027C221.035 35.6027 219.622 34.2034 219.622 32.476C219.622 30.7485 221.035 29.3493 222.779 29.3493H227.89L222.378 19.4683L214.459 33.9443C213.621 35.4645 211.703 36.0345 210.168 35.2054C208.632 34.3762 208.057 32.476 208.894 30.9558L219.57 11.453C220.11 10.451 221.175 9.81189 222.326 9.81189C223.477 9.81189 224.541 10.4338 225.099 11.4184L236.002 30.9213C236.542 31.8887 236.525 33.0633 235.967 34.0307C235.391 34.9808 234.362 35.5681 233.246 35.5681H222.779V35.6027Z" fill="#A8A89D"/>
<path d="M51.7612 29.4011H45.5862C42.6731 29.4011 40.2135 27.5528 39.3064 24.9789H52.0229C53.7673 24.9789 55.1802 23.5796 55.1802 21.8522C55.1802 20.1247 53.7673 18.7255 52.0229 18.7255H40.3705C41.5916 17.1881 43.4755 16.2034 45.6036 16.2034H51.8833C53.6277 16.2034 55.0406 14.8042 55.0406 13.0768C55.0406 11.3493 53.6277 9.95007 51.8833 9.95007H45.6036C38.4342 9.95007 32.6255 15.7197 32.6255 22.8023C32.6255 29.8848 38.4517 35.6545 45.6036 35.6545H51.7787C53.523 35.6545 54.936 34.2553 54.936 32.5278C54.936 30.8004 53.523 29.4011 51.7787 29.4011H51.7612Z" fill="#8FC851"/>
<path d="M271.831 29.4529H265.656C263.126 29.4529 260.911 28.0537 259.795 25.9808H272.093C273.837 25.9808 275.25 24.5815 275.25 22.8541C275.25 21.1267 273.837 19.7274 272.093 19.7274H259.795C260.929 17.6545 263.126 16.2553 265.656 16.2553H271.936C273.68 16.2553 275.093 14.856 275.093 13.1286C275.093 11.4011 273.68 10.0019 271.936 10.0019H265.656C258.504 10.0019 252.678 15.7716 252.678 22.8541C252.678 29.9366 258.504 35.7063 265.656 35.7063H271.831C273.575 35.7063 274.988 34.3071 274.988 32.5796C274.988 30.8522 273.575 29.4529 271.831 29.4529Z" fill="#A8A89D"/>
<path d="M250.968 9.96735H233.804C232.059 9.96735 230.646 11.3666 230.646 13.094C230.646 14.8215 232.059 16.2207 233.804 16.2207H239.386V32.4414C239.386 34.1689 240.799 35.5681 242.543 35.5681C244.287 35.5681 245.7 34.1689 245.7 32.4414V16.2207H250.968C252.713 16.2207 254.126 14.8215 254.126 13.094C254.126 11.3666 252.713 9.96735 250.968 9.96735Z" fill="#A8A89D"/>
</g>
<defs>
<clipPath id="clip0_40_7750">
<rect width="275" height="36" fill="white" transform="translate(0.25)"/>
</clipPath>
</defs>
</svg>
