<svg width="182" height="24" viewBox="0 0 182 24" fill="none" xmlns="http://www.w3.org/2000/svg">
<g id="Layer_2" clip-path="url(#clip0_123_2746)">
<path id="Vector" d="M106.36 23.7582C101.454 23.7582 97.4707 19.7851 97.4707 14.8906C97.4707 9.9962 101.454 6.02307 106.36 6.02307C108.357 6.02307 110.239 6.66798 111.809 7.88871C112.721 8.59121 112.883 9.90407 112.178 10.8139C111.474 11.7236 110.158 11.8849 109.246 11.1824C108.415 10.5375 107.422 10.2035 106.36 10.2035C103.762 10.2035 101.661 12.311 101.661 14.8906C101.661 17.4703 103.774 19.5778 106.36 19.5778C108.196 19.5778 109.8 18.5183 110.574 16.9751H107.538C106.383 16.9751 105.448 16.0423 105.448 14.8906C105.448 13.739 106.383 12.8062 107.538 12.8062H113.148C114.303 12.8062 115.238 13.739 115.238 14.8906C115.238 19.7736 111.255 23.7582 106.348 23.7582H106.36Z" fill="white"/>
<path id="Vector_2" d="M128.41 23.2629C122.026 23.2629 116.842 18.0806 116.842 11.7236C116.842 5.36655 122.026 0.184204 128.41 0.184204C131.007 0.184204 133.455 1.02489 135.498 2.60263C136.41 3.30513 136.572 4.61799 135.868 5.52777C135.164 6.43756 133.847 6.59879 132.935 5.8963C131.631 4.88286 130.061 4.35311 128.41 4.35311C124.335 4.35311 121.021 7.65829 121.021 11.7236C121.021 15.7888 124.335 19.094 128.41 19.094C131.758 19.094 134.586 16.8598 135.498 13.8195H130.061C128.906 13.8195 127.971 12.8867 127.971 11.7351C127.971 10.5834 128.906 9.65061 130.061 9.65061H137.888C139.042 9.65061 139.978 10.5834 139.978 11.7351C139.978 18.0921 134.783 23.2744 128.41 23.2744V23.2629Z" fill="white"/>
<path id="Vector_3" d="M2.286 24C1.18927 24 0.277246 23.1478 0.196434 22.0537C0.127167 21.0288 -0.426972 11.9194 0.623583 7.73896V7.6929C1.65105 3.22457 5.69165 0 10.2748 0C15.7123 0 20.1454 4.41075 20.1454 9.84645C20.1454 12.9904 18.6562 15.8004 16.3473 17.5969L20.3302 18.8868C21.4269 19.2438 22.0272 20.4184 21.6693 21.5125C21.3114 22.6065 20.1339 23.2054 19.0372 22.8484L9.03957 19.6008C8.08137 19.2898 7.48105 18.3455 7.60804 17.3436C7.73503 16.3417 8.56624 15.5816 9.57062 15.5355L10.1594 15.501C10.1594 15.501 10.2287 15.501 10.2633 15.501C13.3919 15.501 15.9548 12.9559 15.9548 9.82342C15.9548 6.69098 13.4034 4.14587 10.2633 4.14587C7.61959 4.14587 5.27604 6.01152 4.71036 8.59117C4.71036 8.6142 4.69881 8.64875 4.68727 8.67179V8.72937C3.92533 11.7121 4.2024 19.1401 4.36402 21.7428C4.43329 22.8944 3.56745 23.8848 2.41299 23.9539C2.36681 23.9539 2.32063 23.9539 2.27446 23.9539L2.286 24Z" fill="white"/>
<path id="Vector_4" d="M81.6779 23.666C80.5235 23.666 79.5884 22.7332 79.5884 21.5816V8.64875C79.5884 7.80806 80.0963 7.03647 80.8814 6.71401C81.6664 6.39155 82.5669 6.57582 83.1672 7.17466L92.2297 16.3416V8.69482C92.2297 7.54319 93.1648 6.61036 94.3192 6.61036C95.4737 6.61036 96.4088 7.54319 96.4088 8.69482V21.4319C96.4088 22.2726 95.9008 23.0441 95.1158 23.3551C94.3308 23.6775 93.4303 23.4933 92.83 22.8944L83.7675 13.7274V21.5701C83.7675 22.7217 82.8324 23.6545 81.6779 23.6545V23.666Z" fill="white"/>
<path id="Vector_5" d="M75.6975 23.666C74.543 23.666 73.6079 22.7332 73.6079 21.5815V8.70628C73.6079 7.55465 74.543 6.62183 75.6975 6.62183C76.8519 6.62183 77.787 7.55465 77.787 8.70628V21.57C77.787 22.7216 76.8519 23.6545 75.6975 23.6545V23.666Z" fill="white"/>
<path id="Vector_6" d="M64.1764 23.7697C63.0219 23.7697 62.0868 22.8368 62.0868 21.6852C62.0868 20.5336 63.0219 19.6008 64.1764 19.6008C66.4853 19.6008 68.3555 17.7236 68.3555 15.4203C68.3555 12.9904 66.3006 10.6986 64.1302 10.6986H60.5629V21.6276C60.5629 22.7793 59.6278 23.7121 58.4734 23.7121C57.3189 23.7121 56.3838 22.7793 56.3838 21.6276V8.62571C56.3838 7.47408 57.3189 6.54126 58.4734 6.54126H64.1302C68.6095 6.54126 72.5462 10.6986 72.5462 15.4319C72.5462 20.1651 68.7942 23.7812 64.1764 23.7812V23.7697Z" fill="white"/>
<path id="Vector_7" d="M46.4784 23.7351C45.3239 23.7351 44.3888 22.8023 44.3888 21.6507C44.3888 20.499 45.3239 19.5662 46.4784 19.5662H49.8609L46.2128 12.9789L40.9716 22.6296C40.4175 23.643 39.1476 24.023 38.1316 23.4702C37.1157 22.9175 36.7347 21.6507 37.2889 20.6372L44.3542 7.63531C44.7236 6.96736 45.4163 6.54126 46.1782 6.54126C46.9401 6.54126 47.6328 6.95585 48.0022 7.61228L55.2176 20.6142C55.5755 21.2591 55.5639 22.0422 55.1945 22.6871C54.8135 23.3205 54.1324 23.7121 53.3936 23.7121H46.4668L46.4784 23.7351Z" fill="white"/>
<path id="Vector_8" d="M147.274 23.7351C146.119 23.7351 145.184 22.8023 145.184 21.6507C145.184 20.499 146.119 19.5662 147.274 19.5662H150.656L147.008 12.9789L141.767 22.6296C141.213 23.643 139.943 24.023 138.927 23.4702C137.911 22.9175 137.53 21.6507 138.084 20.6372L145.15 7.63531C145.507 6.96736 146.212 6.54126 146.974 6.54126C147.736 6.54126 148.44 6.95585 148.809 7.61228L156.025 20.6142C156.382 21.2591 156.371 22.0422 156.001 22.6871C155.62 23.3205 154.939 23.7121 154.201 23.7121H147.274V23.7351Z" fill="white"/>
<path id="Vector_9" d="M34.0911 19.6008H30.0044C28.0764 19.6008 26.4486 18.3685 25.8483 16.6526H34.2643C35.4188 16.6526 36.3539 15.7198 36.3539 14.5682C36.3539 13.4165 35.4188 12.4837 34.2643 12.4837H26.5525C27.3607 11.4588 28.6075 10.8023 30.0159 10.8023H34.172C35.3264 10.8023 36.2615 9.86951 36.2615 8.71788C36.2615 7.56624 35.3264 6.63342 34.172 6.63342H30.0159C25.2711 6.63342 21.4268 10.4799 21.4268 15.2016C21.4268 19.9232 25.2826 23.7697 30.0159 23.7697H34.1027C35.2571 23.7697 36.1923 22.8369 36.1923 21.6852C36.1923 20.5336 35.2571 19.6008 34.1027 19.6008H34.0911Z" fill="white"/>
<path id="Vector_10" d="M179.737 19.6353H175.651C173.977 19.6353 172.511 18.7025 171.772 17.3206H179.911C181.065 17.3206 182 16.3877 182 15.2361C182 14.0845 181.065 13.1517 179.911 13.1517H171.772C172.522 11.7697 173.977 10.8369 175.651 10.8369H179.807C180.961 10.8369 181.896 9.90405 181.896 8.75242C181.896 7.60079 180.961 6.66797 179.807 6.66797H175.651C170.917 6.66797 167.062 10.5144 167.062 15.2361C167.062 19.9578 170.917 23.8042 175.651 23.8042H179.737C180.892 23.8042 181.827 22.8714 181.827 21.7198C181.827 20.5682 180.892 19.6353 179.737 19.6353Z" fill="white"/>
<path id="Vector_11" d="M165.93 6.6449H154.57C153.416 6.6449 152.48 7.57772 152.48 8.72935C152.48 9.88098 153.416 10.8138 154.57 10.8138H158.264V21.6276C158.264 22.7793 159.199 23.7121 160.354 23.7121C161.508 23.7121 162.443 22.7793 162.443 21.6276V10.8138H165.93C167.084 10.8138 168.019 9.88098 168.019 8.72935C168.019 7.57772 167.084 6.6449 165.93 6.6449Z" fill="white"/>
</g>
<defs>
<clipPath id="clip0_123_2746">
<rect width="182" height="24" fill="white"/>
</clipPath>
</defs>
</svg>
