<svg width="24" height="24" viewBox="0 0 24 24" fill="none" xmlns="http://www.w3.org/2000/svg">
<path d="M16.9394 4.93945C17.5252 4.35367 18.4747 4.35367 19.0605 4.93945C19.6463 5.52524 19.6463 6.47477 19.0605 7.06055L14.1211 12L19.0605 16.9395L19.164 17.0537C19.6441 17.6429 19.6095 18.5115 19.0605 19.0605C18.5115 19.6096 17.6428 19.6442 17.0537 19.1641L16.9394 19.0605L12 14.1211L7.06052 19.0605C6.47474 19.6463 5.52521 19.6463 4.93942 19.0605C4.35364 18.4748 4.35364 17.5252 4.93942 16.9395L9.87888 12L4.93942 7.06055L4.83591 6.94629C4.35579 6.35714 4.3904 5.48848 4.93942 4.93945C5.48845 4.39043 6.35711 4.35582 6.94626 4.83594L7.06052 4.93945L12 9.87891L16.9394 4.93945Z" fill="white" fill-opacity="0.5"/>
</svg>
