<svg width="16" height="17" viewBox="0 0 16 17" fill="none" xmlns="http://www.w3.org/2000/svg">
<g clip-path="url(#clip0_1014_19082)">
<path d="M7.3335 3.16666H2.66683C2.31321 3.16666 1.97407 3.30714 1.72402 3.55719C1.47397 3.80724 1.3335 4.14638 1.3335 4.5V13.8333C1.3335 14.187 1.47397 14.5261 1.72402 14.7761C1.97407 15.0262 2.31321 15.1667 2.66683 15.1667H12.0002C12.3538 15.1667 12.6929 15.0262 12.943 14.7761C13.193 14.5261 13.3335 14.187 13.3335 13.8333V9.16666" stroke="#A2B1C4" stroke-width="2" stroke-linecap="round" stroke-linejoin="round"/>
<path d="M12.3335 2.16667C12.5987 1.90145 12.9584 1.75246 13.3335 1.75246C13.7086 1.75246 14.0683 1.90145 14.3335 2.16667C14.5987 2.43189 14.7477 2.7916 14.7477 3.16667C14.7477 3.54174 14.5987 3.90145 14.3335 4.16667L8.00016 10.5L5.3335 11.1667L6.00016 8.5L12.3335 2.16667Z" stroke="#A2B1C4" stroke-width="2" stroke-linecap="round" stroke-linejoin="round"/>
</g>
<defs>
<clipPath id="clip0_1014_19082">
<rect width="16" height="16" fill="white" transform="translate(0 0.5)"/>
</clipPath>
</defs>
</svg>
