<svg width="40" height="20" viewBox="0 0 40 20" fill="none" xmlns="http://www.w3.org/2000/svg">
<path d="M20 12.2218C21.2273 12.2218 22.2222 11.2269 22.2222 9.99957C22.2222 8.77227 21.2273 7.77734 20 7.77734C18.7727 7.77734 17.7778 8.77227 17.7778 9.99957C17.7778 11.2269 18.7727 12.2218 20 12.2218Z" fill="white"/>
<path d="M27.7778 12.2218C29.0051 12.2218 30 11.2269 30 9.99957C30 8.77227 29.0051 7.77734 27.7778 7.77734C26.5505 7.77734 25.5555 8.77227 25.5555 9.99957C25.5555 11.2269 26.5505 12.2218 27.7778 12.2218Z" fill="white"/>
<path d="M12.2222 12.2218C13.4495 12.2218 14.4444 11.2269 14.4444 9.99957C14.4444 8.77227 13.4495 7.77734 12.2222 7.77734C10.9949 7.77734 10 8.77227 10 9.99957C10 11.2269 10.9949 12.2218 12.2222 12.2218Z" fill="white"/>
</svg>
