<svg width="1000" height="140" viewBox="0 0 1000 140" fill="none" xmlns="http://www.w3.org/2000/svg">
<rect width="92.5" height="140" transform="translate(0.5)" fill="white"/>
<rect width="92.5" height="40" transform="translate(0.5)" fill="#17132C"/>
<path d="M30.9129 25V14.8182H33.0656V23.2251H37.4306V25H30.9129ZM41.5966 25.1491C40.8111 25.1491 40.1349 24.9901 39.5682 24.6719C39.0047 24.3504 38.5705 23.8963 38.2656 23.3097C37.9607 22.7197 37.8082 22.022 37.8082 21.2166C37.8082 20.4311 37.9607 19.7417 38.2656 19.1484C38.5705 18.5552 38.9997 18.0928 39.5532 17.7614C40.1101 17.4299 40.763 17.2642 41.5121 17.2642C42.0158 17.2642 42.4848 17.3454 42.919 17.5078C43.3565 17.6669 43.7377 17.9072 44.0625 18.2287C44.3906 18.5502 44.6458 18.9545 44.8281 19.4418C45.0104 19.9257 45.1015 20.4924 45.1015 21.142V21.7237H38.6534V20.4112H43.1079C43.1079 20.1063 43.0416 19.8362 42.9091 19.6009C42.7765 19.3655 42.5925 19.1816 42.3572 19.049C42.1252 18.9131 41.8551 18.8452 41.5469 18.8452C41.2254 18.8452 40.9403 18.9197 40.6917 19.0689C40.4465 19.2147 40.2542 19.4119 40.115 19.6605C39.9758 19.9058 39.9046 20.1792 39.9013 20.4808V21.7287C39.9013 22.1065 39.9709 22.433 40.1101 22.7081C40.2526 22.9832 40.4531 23.1953 40.7116 23.3445C40.9702 23.4936 41.2767 23.5682 41.6314 23.5682C41.8667 23.5682 42.0821 23.535 42.2777 23.4688C42.4732 23.4025 42.6406 23.303 42.7798 23.1705C42.919 23.0379 43.0251 22.8755 43.098 22.6832L45.0568 22.8125C44.9574 23.2831 44.7535 23.6941 44.4453 24.0455C44.1404 24.3935 43.746 24.6652 43.2621 24.8608C42.7815 25.053 42.2263 25.1491 41.5966 25.1491ZM52.6979 17.3636L50.0281 25H47.6418L44.972 17.3636H47.2093L48.7952 22.8274H48.8747L50.4557 17.3636H52.6979ZM56.3157 25.1491C55.5302 25.1491 54.8541 24.9901 54.2873 24.6719C53.7239 24.3504 53.2897 23.8963 52.9847 23.3097C52.6798 22.7197 52.5274 22.022 52.5274 21.2166C52.5274 20.4311 52.6798 19.7417 52.9847 19.1484C53.2897 18.5552 53.7189 18.0928 54.2724 17.7614C54.8292 17.4299 55.4821 17.2642 56.2312 17.2642C56.735 17.2642 57.204 17.3454 57.6382 17.5078C58.0757 17.6669 58.4568 17.9072 58.7816 18.2287C59.1097 18.5502 59.365 18.9545 59.5472 19.4418C59.7295 19.9257 59.8207 20.4924 59.8207 21.142V21.7237H53.3725V20.4112H57.8271C57.8271 20.1063 57.7608 19.8362 57.6282 19.6009C57.4956 19.3655 57.3117 19.1816 57.0764 19.049C56.8444 18.9131 56.5742 18.8452 56.266 18.8452C55.9445 18.8452 55.6595 18.9197 55.4109 19.0689C55.1656 19.2147 54.9734 19.4119 54.8342 19.6605C54.695 19.9058 54.6237 20.1792 54.6204 20.4808V21.7287C54.6204 22.1065 54.69 22.433 54.8292 22.7081C54.9717 22.9832 55.1722 23.1953 55.4308 23.3445C55.6893 23.4936 55.9959 23.5682 56.3505 23.5682C56.5858 23.5682 56.8013 23.535 56.9968 23.4688C57.1924 23.4025 57.3597 23.303 57.499 23.1705C57.6382 23.0379 57.7442 22.8755 57.8171 22.6832L59.7759 22.8125C59.6765 23.2831 59.4727 23.6941 59.1644 24.0455C58.8595 24.3935 58.4651 24.6652 57.9812 24.8608C57.5006 25.053 56.9454 25.1491 56.3157 25.1491ZM62.6207 14.8182V25H60.5028V14.8182H62.6207Z" fill="white"/>
<mask id="path-2-inside-1_5630_57953" fill="white">
<path d="M0.5 40H93V90H0.5V40Z"/>
</mask>
<path d="M93 89H0.5V91H93V89Z" fill="#E8E8E8" mask="url(#path-2-inside-1_5630_57953)"/>
<path d="M18.8131 62.72C18.8131 63.643 19.4501 64.202 20.3341 64.202C21.2181 64.202 21.8681 63.643 21.8681 62.72C21.8681 61.784 21.2181 61.238 20.3341 61.238C19.4501 61.238 18.8131 61.784 18.8131 62.72ZM25.3261 62.07H23.4281C23.4671 62.278 23.4931 62.486 23.4931 62.72C23.4931 62.941 23.4671 63.149 23.4151 63.37H25.3261V62.07ZM25.3261 64.735H22.6611C22.0891 65.307 21.2701 65.645 20.3341 65.645C18.5661 65.645 17.1881 64.41 17.1881 62.72C17.1881 61.017 18.5661 59.782 20.3341 59.782C21.2961 59.782 22.1151 60.133 22.6871 60.705H25.3261V59.145H27.0421V66.165H25.3261V64.735ZM22.9861 69.805C24.5591 69.805 25.4041 69.467 25.4041 68.765C25.4041 68.063 24.5591 67.725 22.9861 67.725C21.4131 67.725 20.5811 68.063 20.5811 68.765C20.5811 69.467 21.4131 69.805 22.9861 69.805ZM22.9861 66.399C25.5211 66.399 27.0941 67.27 27.0941 68.765C27.0941 70.247 25.5211 71.118 22.9861 71.118C20.4641 71.118 18.8911 70.247 18.8911 68.765C18.8911 67.27 20.4641 66.399 22.9861 66.399ZM31.6171 66.971C32.5011 66.971 33.0861 66.022 33.0861 64.241C33.0861 62.473 32.5011 61.524 31.6171 61.524C30.7461 61.524 30.1611 62.473 30.1611 64.241C30.1611 66.022 30.7461 66.971 31.6171 66.971ZM36.6741 59.132H38.3901V71.144H36.6741V64.839H34.6851C34.5031 67.127 33.2811 68.531 31.6171 68.531C29.8361 68.531 28.5231 66.88 28.5231 64.241C28.5231 61.615 29.8361 59.977 31.6171 59.977C33.2291 59.977 34.4381 61.29 34.6721 63.448H36.6741V59.132ZM45.7861 65.528H48.1001V59.145H49.8161V68.154H48.1001V66.854H45.7861V65.528ZM42.9131 69.545H50.0761V70.91H41.1971V67.257H42.7051V64.956C41.6521 65.008 40.6511 65.021 39.7671 65.021L39.5591 63.656C40.9631 63.656 42.6791 63.643 44.4211 63.539C44.5641 62.538 44.6291 61.732 44.6551 61.108H40.6511V59.743H46.3581V60.159C46.3581 60.796 46.3581 61.901 46.1501 63.409C46.5271 63.37 46.9041 63.318 47.2681 63.266L47.3851 64.475C46.4101 64.657 45.4091 64.761 44.4081 64.852V67.426H42.9131V69.545ZM63.7569 63.396L63.1069 64.774C61.0139 64.462 59.5189 63.487 58.7519 62.2C57.9849 63.487 56.4769 64.462 54.3839 64.774L53.7339 63.396C56.4639 63.019 57.8289 61.472 57.8289 60.068V59.496H59.6619V60.068C59.6619 61.459 61.0399 63.019 63.7569 63.396ZM64.1469 65.658V67.049H59.5579V71.131H57.8419V67.049H53.3309V65.658H64.1469ZM65.7189 64.54L65.1079 63.201C67.4219 62.941 68.6179 61.966 68.8259 61.017H65.6149V59.652H74.4809V61.017H71.2569C71.4519 61.979 72.6349 62.941 74.9749 63.201L74.3509 64.54C72.1279 64.293 70.6719 63.37 70.0349 62.148C69.4239 63.37 67.9549 64.293 65.7189 64.54ZM67.5909 67.465V69.545H74.2599V70.91H65.8749V67.465H67.5909ZM64.6139 65.112H75.4689V66.464H71.0489V68.492H69.3329V66.464H64.6139V65.112Z" fill="#2C2C2C"/>
<mask id="path-5-inside-2_5630_57953" fill="white">
<path d="M0.5 90H93V140H0.5V90Z"/>
</mask>
<path d="M93 139H0.5V141H93V139Z" fill="#E8E8E8" mask="url(#path-5-inside-2_5630_57953)"/>
<path d="M34.0286 115.151H29.4526V116.841H32.7806V121.118H31.0516V118.193H24.2786V116.841H27.7366V115.151H23.1866V113.786H30.8046C31.0256 112.694 31.0646 111.823 31.0646 111.03H24.5256V109.652H32.7546V110.614C32.7546 111.511 32.7546 112.512 32.5206 113.786H34.0286V115.151ZM36.6796 110.471V116.724C37.6156 116.698 38.6426 116.62 39.7866 116.412L39.9296 117.855C38.3696 118.141 36.9916 118.206 35.7956 118.206H34.9636V110.471H36.6796ZM43.1146 109.132H44.7526V121.105H43.1146V115.138H42.0356V120.546H40.4366V109.353H42.0356V113.747H43.1146V109.132ZM58.6024 113.396L57.9524 114.774C55.8594 114.462 54.3644 113.487 53.5974 112.2C52.8304 113.487 51.3224 114.462 49.2294 114.774L48.5794 113.396C51.3094 113.019 52.6744 111.472 52.6744 110.068V109.496H54.5074V110.068C54.5074 111.459 55.8854 113.019 58.6024 113.396ZM58.9924 115.658V117.049H54.4034V121.131H52.6874V117.049H48.1764V115.658H58.9924ZM60.5644 114.54L59.9534 113.201C62.2674 112.941 63.4634 111.966 63.6714 111.017H60.4604V109.652H69.3264V111.017H66.1024C66.2974 111.979 67.4804 112.941 69.8204 113.201L69.1964 114.54C66.9734 114.293 65.5174 113.37 64.8804 112.148C64.2694 113.37 62.8004 114.293 60.5644 114.54ZM62.4364 117.465V119.545H69.1054V120.91H60.7204V117.465H62.4364ZM59.4594 115.112H70.3144V116.464H65.8944V118.492H64.1784V116.464H59.4594V115.112Z" fill="#2C2C2C"/>
<rect x="93.5" y="0.5" width="91.5" height="139" fill="white"/>
<rect x="93.5" y="0.5" width="91.5" height="139" stroke="#E8E8E8"/>
<rect width="92.5" height="40" transform="translate(93)" fill="#2ECC49"/>
<path d="M125.91 17V8.27273H129.353C130.015 8.27273 130.579 8.39915 131.045 8.65199C131.511 8.90199 131.866 9.25 132.11 9.69602C132.357 10.1392 132.481 10.6506 132.481 11.2301C132.481 11.8097 132.356 12.321 132.106 12.7642C131.856 13.2074 131.494 13.5526 131.019 13.7997C130.547 14.0469 129.976 14.1705 129.306 14.1705H127.111V12.6918H129.008C129.363 12.6918 129.655 12.6307 129.886 12.5085C130.119 12.3835 130.292 12.2116 130.405 11.9929C130.522 11.7713 130.58 11.517 130.58 11.2301C130.58 10.9403 130.522 10.6875 130.405 10.4716C130.292 10.2528 130.119 10.0838 129.886 9.96449C129.653 9.84233 129.357 9.78125 128.999 9.78125H127.755V17H125.91ZM133.045 17V10.4545H134.805V11.5966H134.873C134.993 11.1903 135.193 10.8835 135.474 10.6761C135.755 10.4659 136.079 10.3608 136.446 10.3608C136.537 10.3608 136.635 10.3665 136.74 10.3778C136.845 10.3892 136.937 10.4048 137.017 10.4247V12.0355C136.931 12.0099 136.814 11.9872 136.663 11.9673C136.512 11.9474 136.375 11.9375 136.25 11.9375C135.983 11.9375 135.744 11.9957 135.534 12.1122C135.326 12.2259 135.162 12.3849 135.039 12.5895C134.92 12.794 134.86 13.0298 134.86 13.2969V17H133.045ZM140.034 17.1278C139.36 17.1278 138.781 16.9915 138.295 16.7188C137.812 16.4432 137.44 16.054 137.178 15.5511C136.917 15.0455 136.786 14.4474 136.786 13.7571C136.786 13.0838 136.917 12.4929 137.178 11.9844C137.44 11.4759 137.808 11.0795 138.282 10.7955C138.759 10.5114 139.319 10.3693 139.961 10.3693C140.393 10.3693 140.795 10.4389 141.167 10.5781C141.542 10.7145 141.869 10.9205 142.147 11.196C142.428 11.4716 142.647 11.8182 142.803 12.2358C142.96 12.6506 143.038 13.1364 143.038 13.6932V14.1918H137.511V13.0668H141.329C141.329 12.8054 141.272 12.5739 141.159 12.3722C141.045 12.1705 140.887 12.0128 140.686 11.8991C140.487 11.7827 140.255 11.7244 139.991 11.7244C139.715 11.7244 139.471 11.7884 139.258 11.9162C139.048 12.0412 138.883 12.2102 138.764 12.4233C138.644 12.6335 138.583 12.8679 138.58 13.1264V14.196C138.58 14.5199 138.64 14.7997 138.759 15.0355C138.882 15.2713 139.053 15.4531 139.275 15.581C139.497 15.7088 139.759 15.7727 140.063 15.7727C140.265 15.7727 140.45 15.7443 140.617 15.6875C140.785 15.6307 140.928 15.5455 141.048 15.4318C141.167 15.3182 141.258 15.179 141.32 15.0142L142.999 15.125C142.914 15.5284 142.74 15.8807 142.475 16.1818C142.214 16.4801 141.876 16.7131 141.461 16.8807C141.049 17.0455 140.573 17.1278 140.034 17.1278ZM145.834 17V8.27273H147.679V12.1207H147.794L150.935 8.27273H153.146L149.908 12.1804L153.185 17H150.977L148.587 13.4119L147.679 14.5199V17H145.834ZM105.692 26.6364C105.692 25.5795 105.833 24.6065 106.114 23.7173C106.398 22.8281 106.831 22.0043 107.414 21.2457H109.148C108.927 21.527 108.721 21.8707 108.53 22.277C108.34 22.6804 108.174 23.1236 108.032 23.6065C107.89 24.0895 107.779 24.5895 107.699 25.1065C107.62 25.6207 107.58 26.1307 107.58 26.6364C107.58 27.3097 107.648 27.9901 107.785 28.6776C107.924 29.3622 108.111 29.9986 108.347 30.5866C108.586 31.1747 108.853 31.6562 109.148 32.0312H107.414C106.831 31.2727 106.398 30.4489 106.114 29.5597C105.833 28.6705 105.692 27.696 105.692 26.6364ZM112.73 31H109.636V22.2727H112.755C113.633 22.2727 114.389 22.4474 115.022 22.7969C115.656 23.1435 116.143 23.642 116.484 24.2926C116.828 24.9432 117 25.7216 117 26.6278C117 27.5369 116.828 28.3182 116.484 28.9716C116.143 29.625 115.653 30.1264 115.014 30.4759C114.377 30.8253 113.616 31 112.73 31ZM111.481 29.419H112.653C113.198 29.419 113.657 29.3224 114.029 29.1293C114.404 28.9332 114.686 28.6307 114.873 28.2216C115.063 27.8097 115.159 27.2784 115.159 26.6278C115.159 25.983 115.063 25.456 114.873 25.0469C114.686 24.6378 114.406 24.3366 114.034 24.1435C113.661 23.9503 113.203 23.8537 112.657 23.8537H111.481V29.419ZM125.786 26.6364C125.786 27.5881 125.606 28.3977 125.245 29.0653C124.887 29.733 124.398 30.2429 123.779 30.5952C123.163 30.9446 122.469 31.1193 121.7 31.1193C120.924 31.1193 120.228 30.9432 119.612 30.5909C118.995 30.2386 118.508 29.7287 118.15 29.0611C117.792 28.3935 117.613 27.5852 117.613 26.6364C117.613 25.6847 117.792 24.875 118.15 24.2074C118.508 23.5398 118.995 23.0312 119.612 22.6818C120.228 22.3295 120.924 22.1534 121.7 22.1534C122.469 22.1534 123.163 22.3295 123.779 22.6818C124.398 23.0312 124.887 23.5398 125.245 24.2074C125.606 24.875 125.786 25.6847 125.786 26.6364ZM123.915 26.6364C123.915 26.0199 123.823 25.5 123.638 25.0767C123.457 24.6534 123.2 24.3324 122.867 24.1136C122.535 23.8949 122.146 23.7855 121.7 23.7855C121.254 23.7855 120.864 23.8949 120.532 24.1136C120.2 24.3324 119.941 24.6534 119.756 25.0767C119.575 25.5 119.484 26.0199 119.484 26.6364C119.484 27.2528 119.575 27.7727 119.756 28.196C119.941 28.6193 120.2 28.9403 120.532 29.1591C120.864 29.3778 121.254 29.4872 121.7 29.4872C122.146 29.4872 122.535 29.3778 122.867 29.1591C123.2 28.9403 123.457 28.6193 123.638 28.196C123.823 27.7727 123.915 27.2528 123.915 26.6364ZM129.647 31H126.553V22.2727H129.672C130.55 22.2727 131.306 22.4474 131.939 22.7969C132.573 23.1435 133.06 23.642 133.401 24.2926C133.745 24.9432 133.917 25.7216 133.917 26.6278C133.917 27.5369 133.745 28.3182 133.401 28.9716C133.06 29.625 132.57 30.1264 131.931 30.4759C131.295 30.8253 130.533 31 129.647 31ZM128.398 29.419H129.57C130.116 29.419 130.574 29.3224 130.947 29.1293C131.322 28.9332 131.603 28.6307 131.79 28.2216C131.981 27.8097 132.076 27.2784 132.076 26.6278C132.076 25.983 131.981 25.456 131.79 25.0469C131.603 24.6378 131.323 24.3366 130.951 24.1435C130.579 23.9503 130.12 23.8537 129.574 23.8537H128.398V29.419ZM142.703 26.6364C142.703 27.5881 142.523 28.3977 142.162 29.0653C141.804 29.733 141.316 30.2429 140.696 30.5952C140.08 30.9446 139.387 31.1193 138.617 31.1193C137.841 31.1193 137.145 30.9432 136.529 30.5909C135.912 30.2386 135.425 29.7287 135.067 29.0611C134.709 28.3935 134.53 27.5852 134.53 26.6364C134.53 25.6847 134.709 24.875 135.067 24.2074C135.425 23.5398 135.912 23.0312 136.529 22.6818C137.145 22.3295 137.841 22.1534 138.617 22.1534C139.387 22.1534 140.08 22.3295 140.696 22.6818C141.316 23.0312 141.804 23.5398 142.162 24.2074C142.523 24.875 142.703 25.6847 142.703 26.6364ZM140.833 26.6364C140.833 26.0199 140.74 25.5 140.556 25.0767C140.374 24.6534 140.117 24.3324 139.784 24.1136C139.452 23.8949 139.063 23.7855 138.617 23.7855C138.171 23.7855 137.782 23.8949 137.449 24.1136C137.117 24.3324 136.858 24.6534 136.674 25.0767C136.492 25.5 136.401 26.0199 136.401 26.6364C136.401 27.2528 136.492 27.7727 136.674 28.196C136.858 28.6193 137.117 28.9403 137.449 29.1591C137.782 29.3778 138.171 29.4872 138.617 29.4872C139.063 29.4872 139.452 29.3778 139.784 29.1591C140.117 28.9403 140.374 28.6193 140.556 28.196C140.74 27.7727 140.833 27.2528 140.833 26.6364ZM147.152 31H145.175L148.187 22.2727H150.565L153.574 31H151.596L149.41 24.267H149.342L147.152 31ZM147.028 27.5696H151.699V29.0099H147.028V27.5696ZM154.024 31V22.2727H157.518C158.161 22.2727 158.696 22.3679 159.125 22.5582C159.554 22.7486 159.876 23.0128 160.092 23.3509C160.308 23.6861 160.416 24.0724 160.416 24.5099C160.416 24.8509 160.348 25.1506 160.212 25.4091C160.075 25.6648 159.888 25.875 159.649 26.0398C159.413 26.2017 159.143 26.3168 158.839 26.3849V26.4702C159.172 26.4844 159.483 26.5781 159.773 26.7514C160.065 26.9247 160.303 27.1676 160.484 27.4801C160.666 27.7898 160.757 28.1591 160.757 28.5881C160.757 29.0511 160.642 29.4645 160.412 29.8281C160.185 30.1889 159.848 30.4744 159.402 30.6847C158.956 30.8949 158.406 31 157.753 31H154.024ZM155.869 29.4915H157.374C157.888 29.4915 158.263 29.3935 158.499 29.1974C158.734 28.9986 158.852 28.7344 158.852 28.4048C158.852 28.1634 158.794 27.9503 158.678 27.7656C158.561 27.581 158.395 27.4361 158.179 27.331C157.966 27.2259 157.712 27.1733 157.416 27.1733H155.869V29.4915ZM155.869 25.9247H157.237C157.49 25.9247 157.714 25.8807 157.911 25.7926C158.109 25.7017 158.266 25.5739 158.379 25.4091C158.496 25.2443 158.554 25.0469 158.554 24.8168C158.554 24.5014 158.442 24.2472 158.217 24.054C157.996 23.8608 157.68 23.7642 157.271 23.7642H155.869V25.9247ZM169.058 25.3281H167.192C167.157 25.0866 167.088 24.8722 166.983 24.6847C166.878 24.4943 166.743 24.3324 166.578 24.1989C166.413 24.0653 166.223 23.9631 166.007 23.892C165.794 23.821 165.562 23.7855 165.312 23.7855C164.861 23.7855 164.467 23.8977 164.132 24.1222C163.797 24.3437 163.537 24.6676 163.352 25.0938C163.167 25.517 163.075 26.0312 163.075 26.6364C163.075 27.2585 163.167 27.7812 163.352 28.2045C163.54 28.6278 163.801 28.9474 164.136 29.1634C164.471 29.3793 164.859 29.4872 165.3 29.4872C165.547 29.4872 165.775 29.4545 165.986 29.3892C166.199 29.3239 166.388 29.2287 166.552 29.1037C166.717 28.9759 166.853 28.821 166.961 28.6392C167.072 28.4574 167.149 28.25 167.192 28.017L169.058 28.0256C169.01 28.4261 168.889 28.8125 168.696 29.1847C168.505 29.554 168.248 29.8849 167.925 30.1776C167.603 30.4673 167.22 30.6974 166.774 30.8679C166.331 31.0355 165.829 31.1193 165.27 31.1193C164.491 31.1193 163.795 30.9432 163.182 30.5909C162.571 30.2386 162.088 29.7287 161.733 29.0611C161.38 28.3935 161.204 27.5852 161.204 26.6364C161.204 25.6847 161.383 24.875 161.741 24.2074C162.099 23.5398 162.585 23.0312 163.199 22.6818C163.812 22.3295 164.503 22.1534 165.27 22.1534C165.775 22.1534 166.244 22.2244 166.676 22.3665C167.111 22.5085 167.496 22.7159 167.831 22.9886C168.166 23.2585 168.439 23.5895 168.649 23.9815C168.862 24.3736 168.998 24.8224 169.058 25.3281ZM172.807 26.6364C172.807 27.696 172.665 28.6705 172.381 29.5597C172.099 30.4489 171.668 31.2727 171.085 32.0312H169.351C169.572 31.75 169.778 31.4062 169.969 31C170.159 30.5938 170.325 30.1506 170.467 29.6705C170.609 29.1875 170.72 28.6875 170.8 28.1705C170.879 27.6534 170.919 27.142 170.919 26.6364C170.919 25.9631 170.849 25.2841 170.71 24.5994C170.574 23.9119 170.386 23.2756 170.148 22.6903C169.912 22.1023 169.646 21.6207 169.351 21.2457H171.085C171.668 22.0043 172.099 22.8281 172.381 23.7173C172.665 24.6065 172.807 25.5795 172.807 26.6364Z" fill="white"/>
<mask id="path-10-inside-3_5630_57953" fill="white">
<path d="M93 40H185.5V90H93V40Z"/>
</mask>
<path d="M185.5 89H93V91H185.5V89Z" fill="#E8E8E8" mask="url(#path-10-inside-3_5630_57953)"/>
<path d="M114.927 60.913C113.354 60.913 112.353 61.381 112.353 62.226C112.353 63.084 113.354 63.539 114.927 63.539C116.487 63.539 117.488 63.084 117.488 62.226C117.488 61.381 116.487 60.913 114.927 60.913ZM114.927 64.904C112.366 64.904 110.598 63.864 110.598 62.226C110.598 60.601 112.366 59.548 114.927 59.548C117.475 59.548 119.256 60.601 119.256 62.226C119.256 63.864 117.475 64.904 114.927 64.904ZM120.374 65.801V67.192H117.865V71.105H116.123V67.192H113.718V71.105H111.989V67.192H109.532V65.801H120.374ZM125.508 62.46V62.876C125.508 64.605 126.457 66.555 128.42 67.4L127.51 68.713C126.158 68.154 125.209 67.01 124.676 65.645C124.143 67.088 123.181 68.31 121.816 68.921L120.893 67.608C122.856 66.724 123.792 64.696 123.792 62.876V62.46H121.296V61.095H123.792V59.431H125.508V61.095H127.952V62.46H125.508ZM129.057 59.145H130.773V71.118H129.057V59.145ZM138.26 66.1H140.509V59.145H142.225V68.219H140.509V67.27H138.26V66.1ZM135.959 60.796C135.153 60.796 134.594 61.108 134.594 61.693C134.594 62.278 135.153 62.577 135.959 62.577C136.752 62.577 137.311 62.278 137.311 61.693C137.311 61.108 136.752 60.796 135.959 60.796ZM135.959 63.825C134.204 63.825 132.982 62.967 132.982 61.693C132.982 60.419 134.204 59.548 135.959 59.548C137.701 59.548 138.936 60.419 138.936 61.693C138.936 62.967 137.701 63.825 135.959 63.825ZM135.322 69.545H142.485V70.91H133.606V67.348H135.27V65.749C134.217 65.801 133.216 65.814 132.319 65.814L132.098 64.449C134.282 64.436 137.194 64.41 139.716 64.085L139.833 65.307C138.897 65.463 137.935 65.567 136.973 65.645V67.907H135.322V69.545ZM154.021 59.132H155.737V71.144H154.021V59.132ZM149.302 59.977C151.109 59.977 152.448 61.615 152.448 64.241C152.448 66.88 151.109 68.531 149.302 68.531C147.495 68.531 146.156 66.88 146.156 64.241C146.156 61.615 147.495 59.977 149.302 59.977ZM149.302 61.524C148.418 61.524 147.807 62.473 147.807 64.241C147.807 66.022 148.418 66.971 149.302 66.971C150.186 66.971 150.797 66.022 150.797 64.241C150.797 62.473 150.186 61.524 149.302 61.524ZM163.549 62.239H165.421V59.145H167.137V67.881H165.421V63.63H163.549V62.239ZM164.342 64.995L163.51 66.334C162.197 65.905 161.313 65.047 160.793 63.968C160.26 65.151 159.324 66.1 157.933 66.568L157.062 65.203C159.025 64.566 159.883 62.993 159.883 61.485V61.316H157.53V59.951H163.965V61.316H161.638V61.472C161.638 62.889 162.457 64.358 164.342 64.995ZM160.962 69.545H167.41V70.91H159.246V67.153H160.962V69.545Z" fill="#2C2C2C"/>
<mask id="path-13-inside-4_5630_57953" fill="white">
<path d="M93 90H185.5V140H93V90Z"/>
</mask>
<path d="M185.5 139H93V141H185.5V139Z" fill="#E8E8E8" mask="url(#path-13-inside-4_5630_57953)"/>
<path d="M106.12 112.2C106.12 113.045 106.757 113.552 107.654 113.552C108.551 113.552 109.188 113.045 109.188 112.2C109.188 111.368 108.551 110.861 107.654 110.861C106.757 110.861 106.12 111.368 106.12 112.2ZM110.839 112.2C110.839 113.799 109.487 114.93 107.654 114.93C105.834 114.93 104.469 113.799 104.469 112.2C104.469 110.627 105.834 109.483 107.654 109.483C109.487 109.483 110.839 110.627 110.839 112.2ZM107.615 118.869V119.649H114.154V120.975H105.912V117.634H112.113V116.919H105.899V115.593H113.803V118.869H107.615ZM113.803 111.446H115.376V112.85H113.803V115.125H112.087V109.145H113.803V111.446ZM118.534 111.628V116.945C118.937 116.932 119.353 116.919 119.769 116.906V111.628H118.534ZM121.42 111.628V116.789C121.888 116.75 122.356 116.724 122.798 116.659L122.902 117.907C120.471 118.336 117.754 118.388 115.713 118.388L115.531 116.984C115.947 116.984 116.402 116.984 116.87 116.984V111.628H115.843V110.25H122.447V111.628H121.42ZM126.802 113.669V115.086H125.06V121.131H123.344V109.158H125.06V113.669H126.802ZM137.201 109.145V117.257H135.576V109.145H137.201ZM130.571 114.332V112.902H129.024V114.332H130.571ZM132.157 113.474V115.684H127.412V109.938H129.024V111.589H130.571V109.938H132.157V112.096H133.171V109.379H134.77V116.23H133.171V113.474H132.157ZM133.925 116.737V117.049C133.925 118.219 135.16 119.454 137.76 119.753L137.136 121.079C135.199 120.832 133.795 120.065 133.067 118.986C132.339 120.065 130.935 120.832 128.998 121.079L128.4 119.753C130.987 119.454 132.209 118.219 132.209 117.049V116.737H133.925ZM143.51 111.628V116.945C143.913 116.932 144.329 116.919 144.745 116.906V111.628H143.51ZM146.396 111.628V116.789C146.864 116.75 147.332 116.724 147.774 116.659L147.878 117.907C145.447 118.336 142.73 118.388 140.689 118.388L140.507 116.984C140.923 116.984 141.378 116.984 141.846 116.984V111.628H140.819V110.25H147.423V111.628H146.396ZM151.778 113.669V115.086H150.036V121.131H148.32V109.158H150.036V113.669H151.778ZM159.213 113.448L159.421 114.839C157.406 115.229 155.456 115.359 153.688 115.359H152.648V109.782H154.351V113.942C155.872 113.903 157.51 113.773 159.213 113.448ZM153.753 117.842V116.464H161.917V121.144H160.188V117.842H153.753ZM160.188 109.171H161.917V115.97H160.188V109.171ZM173.746 114.774L173.018 116.217C170.938 115.801 169.404 114.644 168.637 113.123C167.87 114.644 166.349 115.814 164.269 116.217L163.541 114.774C166.232 114.319 167.727 112.421 167.727 110.705V109.847H169.56V110.705C169.56 112.46 171.042 114.319 173.746 114.774ZM163.281 118.271H174.123V119.662H163.281V118.271Z" fill="#2C2C2C"/>
<rect width="106" height="140" transform="translate(185.5)" fill="white"/>
<rect width="106" height="40" transform="translate(185.5)" fill="#FAAC31"/>
<path d="M196.672 25V14.8182H198.825V19.3075H198.959L202.623 14.8182H205.204L201.425 19.3771L205.248 25H202.673L199.884 20.8139L198.825 22.1065V25H196.672ZM207.38 25H205.073L208.588 14.8182H211.362L214.872 25H212.565L210.015 17.1449H209.935L207.38 25ZM207.236 20.9979H212.684V22.6783H207.236V20.9979Z" fill="white"/>
<path d="M230.781 25V14.8182H232.934V19.3075H233.068L236.732 14.8182H239.312L235.534 19.3771L239.357 25H236.782L233.992 20.8139L232.934 22.1065V25H230.781ZM239.733 25V14.8182H243.81C244.559 14.8182 245.184 14.9292 245.684 15.1513C246.185 15.3733 246.561 15.6816 246.813 16.076C247.065 16.4671 247.191 16.9179 247.191 17.4283C247.191 17.826 247.111 18.1757 246.952 18.4773C246.793 18.7756 246.574 19.0208 246.296 19.2131C246.021 19.402 245.706 19.5362 245.351 19.6158V19.7152C245.739 19.7318 246.102 19.8411 246.44 20.0433C246.781 20.2455 247.058 20.5289 247.27 20.8935C247.482 21.2547 247.588 21.6856 247.588 22.1861C247.588 22.7263 247.454 23.2086 247.186 23.6328C246.92 24.0537 246.528 24.3868 246.007 24.6321C245.487 24.8774 244.846 25 244.083 25H239.733ZM241.886 23.2401H243.641C244.241 23.2401 244.678 23.1257 244.953 22.897C245.228 22.665 245.366 22.3568 245.366 21.9723C245.366 21.6906 245.298 21.442 245.162 21.2266C245.026 21.0111 244.832 20.8421 244.58 20.7195C244.332 20.5968 244.035 20.5355 243.691 20.5355H241.886V23.2401ZM241.886 19.0788H243.482C243.777 19.0788 244.039 19.0275 244.267 18.9247C244.499 18.8187 244.682 18.6695 244.814 18.4773C244.95 18.285 245.018 18.0547 245.018 17.7862C245.018 17.4183 244.887 17.1217 244.625 16.8963C244.367 16.6709 243.999 16.5582 243.522 16.5582H241.886V19.0788Z" fill="white"/>
<path d="M263.432 25V14.8182H265.585V19.3075H265.719L269.383 14.8182H271.963L268.185 19.3771L272.008 25H269.433L266.644 20.8139L265.585 22.1065V25H263.432ZM280.794 18.3828H278.616C278.577 18.1011 278.495 17.8509 278.373 17.6321C278.25 17.41 278.093 17.2211 277.901 17.0653C277.708 16.9096 277.486 16.7902 277.234 16.7074C276.986 16.6245 276.716 16.5831 276.424 16.5831C275.897 16.5831 275.438 16.714 275.047 16.9759C274.656 17.2344 274.352 17.6122 274.137 18.1094C273.922 18.6032 273.814 19.2031 273.814 19.9091C273.814 20.6349 273.922 21.2448 274.137 21.7386C274.356 22.2325 274.661 22.6054 275.052 22.8572C275.443 23.1091 275.895 23.2351 276.409 23.2351C276.697 23.2351 276.964 23.197 277.209 23.1207C277.458 23.0445 277.678 22.9335 277.871 22.7876C278.063 22.6385 278.222 22.4579 278.348 22.2457C278.477 22.0336 278.567 21.7917 278.616 21.5199L280.794 21.5298C280.738 21.9972 280.597 22.4479 280.371 22.8821C280.149 23.313 279.849 23.6991 279.472 24.0405C279.097 24.3786 278.65 24.647 278.129 24.8459C277.612 25.0414 277.027 25.1392 276.374 25.1392C275.466 25.1392 274.654 24.9337 273.938 24.5227C273.226 24.1117 272.662 23.5168 272.248 22.7379C271.837 21.959 271.631 21.0161 271.631 19.9091C271.631 18.7988 271.84 17.8542 272.258 17.0753C272.675 16.2964 273.242 15.7031 273.958 15.2955C274.674 14.8845 275.479 14.679 276.374 14.679C276.964 14.679 277.511 14.7618 278.015 14.9276C278.522 15.0933 278.971 15.3352 279.362 15.6534C279.753 15.9683 280.071 16.3544 280.317 16.8118C280.565 17.2692 280.724 17.7929 280.794 18.3828Z" fill="white"/>
<mask id="path-19-inside-5_5630_57953" fill="white">
<path d="M185.5 40H291.5V90H185.5V40Z"/>
</mask>
<path d="M291.5 89H185.5V91H291.5V89Z" fill="#E8E8E8" mask="url(#path-19-inside-5_5630_57953)"/>
<path d="M227.166 60.913C225.593 60.913 224.592 61.381 224.592 62.226C224.592 63.084 225.593 63.539 227.166 63.539C228.726 63.539 229.727 63.084 229.727 62.226C229.727 61.381 228.726 60.913 227.166 60.913ZM227.166 64.904C224.605 64.904 222.837 63.864 222.837 62.226C222.837 60.601 224.605 59.548 227.166 59.548C229.714 59.548 231.495 60.601 231.495 62.226C231.495 63.864 229.714 64.904 227.166 64.904ZM232.613 65.801V67.192H230.104V71.105H228.362V67.192H225.957V71.105H224.228V67.192H221.771V65.801H232.613ZM237.747 62.46V62.876C237.747 64.605 238.696 66.555 240.659 67.4L239.749 68.713C238.397 68.154 237.448 67.01 236.915 65.645C236.382 67.088 235.42 68.31 234.055 68.921L233.132 67.608C235.095 66.724 236.031 64.696 236.031 62.876V62.46H233.535V61.095H236.031V59.431H237.747V61.095H240.191V62.46H237.747ZM241.296 59.145H243.012V71.118H241.296V59.145ZM250.498 66.1H252.747V59.145H254.463V68.219H252.747V67.27H250.498V66.1ZM248.197 60.796C247.391 60.796 246.832 61.108 246.832 61.693C246.832 62.278 247.391 62.577 248.197 62.577C248.99 62.577 249.549 62.278 249.549 61.693C249.549 61.108 248.99 60.796 248.197 60.796ZM248.197 63.825C246.442 63.825 245.22 62.967 245.22 61.693C245.22 60.419 246.442 59.548 248.197 59.548C249.939 59.548 251.174 60.419 251.174 61.693C251.174 62.967 249.939 63.825 248.197 63.825ZM247.56 69.545H254.723V70.91H245.844V67.348H247.508V65.749C246.455 65.801 245.454 65.814 244.557 65.814L244.336 64.449C246.52 64.436 249.432 64.41 251.954 64.085L252.071 65.307C251.135 65.463 250.173 65.567 249.211 65.645V67.907H247.56V69.545Z" fill="#2C2C2C"/>
<mask id="path-22-inside-6_5630_57953" fill="white">
<path d="M185.5 90H291.5V140H185.5V90Z"/>
</mask>
<path d="M291.5 139H185.5V141H291.5V139Z" fill="#E8E8E8" mask="url(#path-22-inside-6_5630_57953)"/>
<path d="M209.744 116.464L209.133 115.112C211.863 114.787 213.176 113.448 213.319 112.135H209.718V110.77H213.345V109.301H215.061V110.77H218.688V112.135H215.087C215.23 113.448 216.543 114.787 219.273 115.112L218.662 116.464C216.517 116.178 214.996 115.294 214.203 114.072C213.41 115.294 211.889 116.178 209.744 116.464ZM215.061 118.362H219.624V119.753H208.782V118.362H213.345V116.048H215.061V118.362ZM229.698 112.434V113.786H221.417V109.47H229.633V110.835H223.12V112.434H229.698ZM225.473 119.818C227.072 119.818 227.891 119.545 227.891 118.921C227.891 118.297 227.072 118.011 225.473 118.011C223.874 118.011 223.055 118.297 223.055 118.921C223.055 119.545 223.874 119.818 225.473 119.818ZM225.473 116.711C228.06 116.711 229.633 117.504 229.633 118.921C229.633 120.325 228.06 121.118 225.473 121.118C222.886 121.118 221.326 120.325 221.326 118.921C221.326 117.504 222.886 116.711 225.473 116.711ZM220.104 114.618H230.933V116.022H220.104V114.618ZM238.257 111.68V112.096C238.257 114.202 239.206 116.412 241.195 117.322L240.207 118.674C238.855 118.011 237.932 116.776 237.412 115.281C236.905 116.893 235.969 118.219 234.591 118.908L233.577 117.556C235.579 116.62 236.528 114.319 236.528 112.096V111.68H234.071V110.289H240.714V111.68H238.257ZM242.092 109.132H243.808V121.144H242.092V114.709H239.986V113.318H242.092V109.132ZM252.114 110.198V111.55H245.068V110.198H247.72V109.08H249.449V110.198H252.114ZM247.291 114.124C247.291 114.735 247.811 115.034 248.591 115.034C249.358 115.034 249.891 114.735 249.891 114.124C249.891 113.526 249.358 113.227 248.591 113.227C247.811 113.227 247.291 113.526 247.291 114.124ZM251.529 114.124C251.529 115.437 250.32 116.334 248.591 116.334C246.875 116.334 245.653 115.437 245.653 114.124C245.653 112.824 246.875 111.927 248.591 111.927C250.32 111.927 251.529 112.824 251.529 114.124ZM246.511 118.518V117.14H254.493V121.131H252.777V118.518H246.511ZM256.079 112.226V113.643H254.493V116.646H252.777V109.158H254.493V112.226H256.079ZM264.671 117.946V114.059H261.772V112.707H264.671V111.823H261.772V110.471H264.671V109.145H266.387V117.946H264.671ZM262.968 114.631L263.137 116.022C261.369 116.347 259.783 116.412 257.989 116.412H257.027V109.899H258.73V115.008C260.173 114.982 261.499 114.891 262.968 114.631ZM260.212 119.545H266.66V120.91H258.496V117.166H260.212V119.545Z" fill="#2C2C2C"/>
<mask id="path-25-inside-7_5630_57953" fill="white">
<path d="M291.5 0H389.5V140H291.5V0Z"/>
</mask>
<path d="M291.5 0H389.5V140H291.5V0Z" fill="white"/>
<path d="M388.5 0V140H390.5V0H388.5ZM292.5 140V0H290.5V140H292.5Z" fill="#E8E8E8" mask="url(#path-25-inside-7_5630_57953)"/>
<rect width="98" height="40" transform="translate(291.5)" fill="#F3442D"/>
<path d="M306.317 16.7273V24H304.779V18.1868H304.737L303.071 19.2308V17.8672L304.872 16.7273H306.317ZM308.842 24H307.194L309.705 16.7273H311.686L314.193 24H312.546L310.724 18.3892H310.667L308.842 24ZM308.739 21.1413H312.631V22.3416H308.739V21.1413Z" fill="white"/>
<path d="M337.752 16.7273V24H336.214V18.1868H336.171L334.506 19.2308V17.8672L336.306 16.7273H337.752ZM339.023 24V16.7273H341.935C342.47 16.7273 342.916 16.8066 343.273 16.9652C343.631 17.1238 343.9 17.344 344.08 17.6257C344.259 17.9051 344.349 18.227 344.349 18.5916C344.349 18.8757 344.293 19.1255 344.179 19.3409C344.065 19.554 343.909 19.7292 343.71 19.8665C343.514 20.0014 343.289 20.0973 343.036 20.1541V20.2251C343.313 20.237 343.572 20.3151 343.813 20.4595C344.057 20.6039 344.255 20.8063 344.406 21.0668C344.558 21.3248 344.634 21.6326 344.634 21.9901C344.634 22.3759 344.538 22.7204 344.346 23.0234C344.156 23.3241 343.876 23.562 343.504 23.7372C343.133 23.9124 342.674 24 342.13 24H339.023ZM340.56 22.7429H341.814C342.242 22.7429 342.555 22.6612 342.751 22.4979C342.948 22.3321 343.046 22.112 343.046 21.8374C343.046 21.6361 342.998 21.4586 342.901 21.3047C342.804 21.1508 342.665 21.0301 342.485 20.9425C342.308 20.8549 342.096 20.8111 341.849 20.8111H340.56V22.7429ZM340.56 19.7706H341.7C341.911 19.7706 342.098 19.7339 342.261 19.6605C342.427 19.5848 342.557 19.4782 342.652 19.3409C342.749 19.2036 342.798 19.0391 342.798 18.8473C342.798 18.5845 342.704 18.3726 342.517 18.2116C342.332 18.0507 342.07 17.9702 341.729 17.9702H340.56V19.7706Z" fill="white"/>
<path d="M367.297 16.7273V24H365.76V18.1868H365.717L364.052 19.2308V17.8672L365.852 16.7273H367.297ZM374.986 19.2734H373.43C373.402 19.0722 373.344 18.8935 373.256 18.7372C373.169 18.5786 373.056 18.4437 372.919 18.3324C372.781 18.2211 372.623 18.1359 372.443 18.0767C372.265 18.0175 372.072 17.9879 371.864 17.9879C371.488 17.9879 371.16 18.0814 370.88 18.2685C370.601 18.4531 370.384 18.723 370.231 19.0781C370.077 19.4309 370 19.8594 370 20.3636C370 20.8821 370.077 21.3177 370.231 21.6705C370.387 22.0232 370.605 22.2895 370.884 22.4695C371.163 22.6494 371.486 22.7393 371.853 22.7393C372.059 22.7393 372.25 22.7121 372.425 22.6577C372.603 22.6032 372.76 22.5239 372.897 22.4197C373.035 22.3132 373.148 22.1842 373.238 22.0327C373.331 21.8812 373.395 21.7083 373.43 21.5142L374.986 21.5213C374.945 21.8551 374.845 22.1771 374.684 22.4872C374.525 22.795 374.311 23.0708 374.041 23.3146C373.773 23.5561 373.454 23.7479 373.082 23.8899C372.713 24.0296 372.295 24.0994 371.829 24.0994C371.18 24.0994 370.6 23.9527 370.089 23.6591C369.58 23.3655 369.177 22.9406 368.881 22.3842C368.588 21.8279 368.441 21.1544 368.441 20.3636C368.441 19.5705 368.59 18.8958 368.888 18.3395C369.187 17.7831 369.591 17.3594 370.103 17.0682C370.614 16.7746 371.189 16.6278 371.829 16.6278C372.25 16.6278 372.641 16.687 373 16.8054C373.363 16.9238 373.683 17.0966 373.963 17.3239C374.242 17.5488 374.469 17.8246 374.645 18.1513C374.822 18.478 374.936 18.852 374.986 19.2734Z" fill="white"/>
<mask id="path-30-inside-8_5630_57953" fill="white">
<path d="M291.5 40H389.5V90H291.5V40Z"/>
</mask>
<path d="M389.5 89H291.5V91H389.5V89Z" fill="#E8E8E8" mask="url(#path-30-inside-8_5630_57953)"/>
<path d="M332.686 66.464L332.075 65.112C334.805 64.787 336.118 63.448 336.261 62.135H332.66V60.77H336.287V59.301H338.003V60.77H341.63V62.135H338.029C338.172 63.448 339.485 64.787 342.215 65.112L341.604 66.464C339.459 66.178 337.938 65.294 337.145 64.072C336.352 65.294 334.831 66.178 332.686 66.464ZM338.003 68.362H342.566V69.753H331.724V68.362H336.287V66.048H338.003V68.362ZM347.354 60.5455V70H345.355V62.4428H345.3L343.134 63.8001V62.0273L345.475 60.5455H347.354Z" fill="#2C2C2C"/>
<mask id="path-33-inside-9_5630_57953" fill="white">
<path d="M291.5 90H389.5V140H291.5V90Z"/>
</mask>
<path d="M389.5 139H291.5V141H389.5V139Z" fill="#E8E8E8" mask="url(#path-33-inside-9_5630_57953)"/>
<path d="M311.744 116.464L311.133 115.112C313.863 114.787 315.176 113.448 315.319 112.135H311.718V110.77H315.345V109.301H317.061V110.77H320.688V112.135H317.087C317.23 113.448 318.543 114.787 321.273 115.112L320.662 116.464C318.517 116.178 316.996 115.294 316.203 114.072C315.41 115.294 313.889 116.178 311.744 116.464ZM317.061 118.362H321.624V119.753H310.782V118.362H315.345V116.048H317.061V118.362ZM331.698 112.434V113.786H323.417V109.47H331.633V110.835H325.12V112.434H331.698ZM327.473 119.818C329.072 119.818 329.891 119.545 329.891 118.921C329.891 118.297 329.072 118.011 327.473 118.011C325.874 118.011 325.055 118.297 325.055 118.921C325.055 119.545 325.874 119.818 327.473 119.818ZM327.473 116.711C330.06 116.711 331.633 117.504 331.633 118.921C331.633 120.325 330.06 121.118 327.473 121.118C324.886 121.118 323.326 120.325 323.326 118.921C323.326 117.504 324.886 116.711 327.473 116.711ZM322.104 114.618H332.933V116.022H322.104V114.618ZM345.08 117.049L343.364 116.854C343.819 114.592 343.845 112.928 343.845 111.537H336.864V110.172H345.561V111.316C345.561 112.811 345.561 114.501 345.08 117.049ZM341.31 118.297H346.601V119.675H335.772V118.297H339.594V114.176H341.31V118.297ZM354.114 110.198V111.55H347.068V110.198H349.72V109.08H351.449V110.198H354.114ZM349.291 114.124C349.291 114.735 349.811 115.034 350.591 115.034C351.358 115.034 351.891 114.735 351.891 114.124C351.891 113.526 351.358 113.227 350.591 113.227C349.811 113.227 349.291 113.526 349.291 114.124ZM353.529 114.124C353.529 115.437 352.32 116.334 350.591 116.334C348.875 116.334 347.653 115.437 347.653 114.124C347.653 112.824 348.875 111.927 350.591 111.927C352.32 111.927 353.529 112.824 353.529 114.124ZM348.511 118.518V117.14H356.493V121.131H354.777V118.518H348.511ZM358.079 112.226V113.643H356.493V116.646H354.777V109.158H356.493V112.226H358.079ZM366.671 117.946V114.059H363.772V112.707H366.671V111.823H363.772V110.471H366.671V109.145H368.387V117.946H366.671ZM364.968 114.631L365.137 116.022C363.369 116.347 361.783 116.412 359.989 116.412H359.027V109.899H360.73V115.008C362.173 114.982 363.499 114.891 364.968 114.631ZM362.212 119.545H368.66V120.91H360.496V117.166H362.212V119.545Z" fill="#2C2C2C"/>
<rect width="244" height="140" transform="translate(389.5)" fill="white"/>
<rect width="122" height="40" transform="translate(389.5)" fill="#6AC72A"/>
<path d="M409.45 24V22.892L412.039 20.495C412.259 20.282 412.443 20.0902 412.593 19.9197C412.744 19.7493 412.859 19.5824 412.937 19.419C413.015 19.2533 413.054 19.0746 413.054 18.8828C413.054 18.6697 413.006 18.4863 412.909 18.3324C412.812 18.1761 412.679 18.0566 412.511 17.9737C412.343 17.8885 412.152 17.8459 411.939 17.8459C411.717 17.8459 411.523 17.8909 411.357 17.9808C411.191 18.0708 411.063 18.1998 410.973 18.3679C410.883 18.536 410.838 18.736 410.838 18.968H409.379C409.379 18.4922 409.487 18.0791 409.702 17.7287C409.917 17.3783 410.219 17.1072 410.608 16.9155C410.996 16.7237 411.443 16.6278 411.95 16.6278C412.471 16.6278 412.924 16.7202 413.31 16.9048C413.698 17.0871 414 17.3404 414.215 17.6648C414.431 17.9891 414.539 18.3608 414.539 18.7798C414.539 19.0545 414.484 19.3255 414.375 19.593C414.269 19.8606 414.078 20.1577 413.804 20.4844C413.529 20.8087 413.142 21.1982 412.642 21.6527L411.581 22.6932V22.7429H414.634V24H409.45ZM416.545 24H414.897L417.408 16.7273H419.389L421.896 24H420.249L418.427 18.3892H418.37L416.545 24ZM416.442 21.1413H420.334V22.3416H416.442V21.1413Z" fill="white"/>
<path d="M442.884 24V22.892L445.473 20.495C445.693 20.282 445.878 20.0902 446.027 19.9197C446.179 19.7493 446.294 19.5824 446.372 19.419C446.45 19.2533 446.489 19.0746 446.489 18.8828C446.489 18.6697 446.44 18.4863 446.343 18.3324C446.246 18.1761 446.114 18.0566 445.945 17.9737C445.777 17.8885 445.587 17.8459 445.374 17.8459C445.151 17.8459 444.957 17.8909 444.791 17.9808C444.626 18.0708 444.498 18.1998 444.408 18.3679C444.318 18.536 444.273 18.736 444.273 18.968H442.813C442.813 18.4922 442.921 18.0791 443.137 17.7287C443.352 17.3783 443.654 17.1072 444.042 16.9155C444.43 16.7237 444.878 16.6278 445.384 16.6278C445.905 16.6278 446.359 16.7202 446.744 16.9048C447.133 17.0871 447.435 17.3404 447.65 17.6648C447.865 17.9891 447.973 18.3608 447.973 18.7798C447.973 19.0545 447.919 19.3255 447.81 19.593C447.703 19.8606 447.513 20.1577 447.238 20.4844C446.963 20.8087 446.576 21.1982 446.077 21.6527L445.015 22.6932V22.7429H448.069V24H442.884ZM448.726 24V16.7273H451.638C452.173 16.7273 452.619 16.8066 452.977 16.9652C453.334 17.1238 453.603 17.344 453.783 17.6257C453.963 17.9051 454.053 18.227 454.053 18.5916C454.053 18.8757 453.996 19.1255 453.882 19.3409C453.768 19.554 453.612 19.7292 453.413 19.8665C453.217 20.0014 452.992 20.0973 452.739 20.1541V20.2251C453.016 20.237 453.275 20.3151 453.516 20.4595C453.76 20.6039 453.958 20.8063 454.109 21.0668C454.261 21.3248 454.337 21.6326 454.337 21.9901C454.337 22.3759 454.241 22.7204 454.049 23.0234C453.86 23.3241 453.579 23.562 453.207 23.7372C452.836 23.9124 452.378 24 451.833 24H448.726ZM450.263 22.7429H451.517C451.946 22.7429 452.258 22.6612 452.455 22.4979C452.651 22.3321 452.749 22.112 452.749 21.8374C452.749 21.6361 452.701 21.4586 452.604 21.3047C452.507 21.1508 452.368 21.0301 452.188 20.9425C452.011 20.8549 451.799 20.8111 451.553 20.8111H450.263V22.7429ZM450.263 19.7706H451.403C451.614 19.7706 451.801 19.7339 451.964 19.6605C452.13 19.5848 452.26 19.4782 452.355 19.3409C452.452 19.2036 452.501 19.0391 452.501 18.8473C452.501 18.5845 452.407 18.3726 452.22 18.2116C452.036 18.0507 451.773 17.9702 451.432 17.9702H450.263V19.7706Z" fill="white"/>
<path d="M474.43 24V22.892L477.019 20.495C477.239 20.282 477.424 20.0902 477.573 19.9197C477.725 19.7493 477.839 19.5824 477.918 19.419C477.996 19.2533 478.035 19.0746 478.035 18.8828C478.035 18.6697 477.986 18.4863 477.889 18.3324C477.792 18.1761 477.659 18.0566 477.491 17.9737C477.323 17.8885 477.133 17.8459 476.92 17.8459C476.697 17.8459 476.503 17.8909 476.337 17.9808C476.172 18.0708 476.044 18.1998 475.954 18.3679C475.864 18.536 475.819 18.736 475.819 18.968H474.359C474.359 18.4922 474.467 18.0791 474.682 17.7287C474.898 17.3783 475.2 17.1072 475.588 16.9155C475.976 16.7237 476.424 16.6278 476.93 16.6278C477.451 16.6278 477.905 16.7202 478.29 16.9048C478.679 17.0871 478.98 17.3404 479.196 17.6648C479.411 17.9891 479.519 18.3608 479.519 18.7798C479.519 19.0545 479.465 19.3255 479.356 19.593C479.249 19.8606 479.059 20.1577 478.784 20.4844C478.509 20.8087 478.122 21.1982 477.623 21.6527L476.561 22.6932V22.7429H479.615V24H474.43ZM486.689 19.2734H485.133C485.105 19.0722 485.047 18.8935 484.959 18.7372C484.872 18.5786 484.759 18.4437 484.622 18.3324C484.485 18.2211 484.326 18.1359 484.146 18.0767C483.968 18.0175 483.776 17.9879 483.567 17.9879C483.191 17.9879 482.863 18.0814 482.584 18.2685C482.304 18.4531 482.088 18.723 481.934 19.0781C481.78 19.4309 481.703 19.8594 481.703 20.3636C481.703 20.8821 481.78 21.3177 481.934 21.6705C482.09 22.0232 482.308 22.2895 482.587 22.4695C482.866 22.6494 483.19 22.7393 483.557 22.7393C483.763 22.7393 483.953 22.7121 484.128 22.6577C484.306 22.6032 484.463 22.5239 484.601 22.4197C484.738 22.3132 484.852 22.1842 484.941 22.0327C485.034 21.8812 485.098 21.7083 485.133 21.5142L486.689 21.5213C486.648 21.8551 486.548 22.1771 486.387 22.4872C486.228 22.795 486.014 23.0708 485.744 23.3146C485.477 23.5561 485.157 23.7479 484.785 23.8899C484.416 24.0296 483.998 24.0994 483.532 24.0994C482.883 24.0994 482.303 23.9527 481.792 23.6591C481.283 23.3655 480.88 22.9406 480.584 22.3842C480.291 21.8279 480.144 21.1544 480.144 20.3636C480.144 19.5705 480.293 18.8958 480.591 18.3395C480.89 17.7831 481.294 17.3594 481.806 17.0682C482.317 16.7746 482.892 16.6278 483.532 16.6278C483.953 16.6278 484.344 16.687 484.704 16.8054C485.066 16.9238 485.387 17.0966 485.666 17.3239C485.945 17.5488 486.173 17.8246 486.348 18.1513C486.525 18.478 486.639 18.852 486.689 19.2734Z" fill="white"/>
<rect width="122" height="40" transform="translate(511.5)" fill="#3DA7C8"/>
<path d="M532.992 24.0994C532.461 24.0994 531.989 24.0083 531.575 23.826C531.163 23.6413 530.837 23.388 530.598 23.0661C530.361 22.7417 530.239 22.3677 530.232 21.9439H531.781C531.79 22.1214 531.848 22.2777 531.955 22.4126C532.064 22.5452 532.208 22.6482 532.388 22.7216C532.568 22.795 532.77 22.8317 532.995 22.8317C533.229 22.8317 533.437 22.7902 533.617 22.7074C533.796 22.6245 533.937 22.5097 534.039 22.3629C534.141 22.2161 534.192 22.0469 534.192 21.8551C534.192 21.661 534.137 21.4893 534.028 21.3402C533.922 21.1887 533.768 21.0703 533.567 20.9851C533.368 20.8999 533.131 20.8572 532.857 20.8572H532.178V19.728H532.857C533.089 19.728 533.293 19.6877 533.471 19.6072C533.651 19.5268 533.791 19.4155 533.89 19.2734C533.989 19.129 534.039 18.9609 534.039 18.7692C534.039 18.5869 533.995 18.4271 533.908 18.2898C533.823 18.1501 533.702 18.0412 533.546 17.9631C533.392 17.8849 533.212 17.8459 533.006 17.8459C532.797 17.8459 532.607 17.8838 532.434 17.9595C532.261 18.0329 532.123 18.1383 532.019 18.2756C531.914 18.4129 531.859 18.5739 531.852 18.7585H530.378C530.385 18.3395 530.505 17.9702 530.737 17.6506C530.969 17.331 531.281 17.0812 531.674 16.9013C532.069 16.719 532.516 16.6278 533.013 16.6278C533.515 16.6278 533.954 16.719 534.33 16.9013C534.707 17.0836 534.999 17.3298 535.207 17.6399C535.418 17.9477 535.522 18.2933 535.52 18.6768C535.522 19.084 535.396 19.4238 535.14 19.696C534.887 19.9683 534.556 20.1411 534.149 20.2145V20.2713C534.684 20.34 535.091 20.5258 535.371 20.8288C535.653 21.1295 535.792 21.5059 535.79 21.9581C535.792 22.3724 535.673 22.7405 535.431 23.0625C535.192 23.3845 534.862 23.6378 534.44 23.8224C534.019 24.0071 533.536 24.0994 532.992 24.0994ZM537.691 24H536.044L538.554 16.7273H540.536L543.043 24H541.395L539.573 18.3892H539.517L537.691 24ZM537.588 21.1413H541.48V22.3416H537.588V21.1413Z" fill="white"/>
<path d="M567.426 24.0994C566.896 24.0994 566.424 24.0083 566.009 23.826C565.597 23.6413 565.272 23.388 565.033 23.0661C564.796 22.7417 564.674 22.3677 564.667 21.9439H566.215C566.225 22.1214 566.283 22.2777 566.389 22.4126C566.498 22.5452 566.643 22.6482 566.822 22.7216C567.002 22.795 567.205 22.8317 567.43 22.8317C567.664 22.8317 567.871 22.7902 568.051 22.7074C568.231 22.6245 568.372 22.5097 568.474 22.3629C568.576 22.2161 568.626 22.0469 568.626 21.8551C568.626 21.661 568.572 21.4893 568.463 21.3402C568.357 21.1887 568.203 21.0703 568.001 20.9851C567.803 20.8999 567.566 20.8572 567.291 20.8572H566.613V19.728H567.291C567.523 19.728 567.728 19.6877 567.906 19.6072C568.085 19.5268 568.225 19.4155 568.325 19.2734C568.424 19.129 568.474 18.9609 568.474 18.7692C568.474 18.5869 568.43 18.4271 568.342 18.2898C568.257 18.1501 568.136 18.0412 567.98 17.9631C567.826 17.8849 567.646 17.8459 567.44 17.8459C567.232 17.8459 567.041 17.8838 566.869 17.9595C566.696 18.0329 566.557 18.1383 566.453 18.2756C566.349 18.4129 566.293 18.5739 566.286 18.7585H564.812C564.82 18.3395 564.939 17.9702 565.171 17.6506C565.403 17.331 565.716 17.0812 566.109 16.9013C566.504 16.719 566.95 16.6278 567.447 16.6278C567.949 16.6278 568.388 16.719 568.765 16.9013C569.141 17.0836 569.434 17.3298 569.642 17.6399C569.853 17.9477 569.957 18.2933 569.955 18.6768C569.957 19.084 569.83 19.4238 569.575 19.696C569.321 19.9683 568.991 20.1411 568.584 20.2145V20.2713C569.119 20.34 569.526 20.5258 569.805 20.8288C570.087 21.1295 570.227 21.5059 570.224 21.9581C570.227 22.3724 570.107 22.7405 569.866 23.0625C569.627 23.3845 569.296 23.6378 568.875 23.8224C568.454 24.0071 567.971 24.0994 567.426 24.0994ZM570.872 24V16.7273H573.784C574.319 16.7273 574.766 16.8066 575.123 16.9652C575.481 17.1238 575.749 17.344 575.929 17.6257C576.109 17.9051 576.199 18.227 576.199 18.5916C576.199 18.8757 576.142 19.1255 576.029 19.3409C575.915 19.554 575.759 19.7292 575.56 19.8665C575.363 20.0014 575.138 20.0973 574.885 20.1541V20.2251C575.162 20.237 575.421 20.3151 575.663 20.4595C575.907 20.6039 576.104 20.8063 576.256 21.0668C576.407 21.3248 576.483 21.6326 576.483 21.9901C576.483 22.3759 576.387 22.7204 576.195 23.0234C576.006 23.3241 575.726 23.562 575.354 23.7372C574.982 23.9124 574.524 24 573.98 24H570.872ZM572.41 22.7429H573.664C574.092 22.7429 574.405 22.6612 574.601 22.4979C574.798 22.3321 574.896 22.112 574.896 21.8374C574.896 21.6361 574.847 21.4586 574.75 21.3047C574.653 21.1508 574.515 21.0301 574.335 20.9425C574.157 20.8549 573.945 20.8111 573.699 20.8111H572.41V22.7429ZM572.41 19.7706H573.55C573.761 19.7706 573.948 19.7339 574.111 19.6605C574.277 19.5848 574.407 19.4782 574.502 19.3409C574.599 19.2036 574.647 19.0391 574.647 18.8473C574.647 18.5845 574.554 18.3726 574.367 18.2116C574.182 18.0507 573.919 17.9702 573.578 17.9702H572.41V19.7706Z" fill="white"/>
<path d="M598.972 24.0994C598.442 24.0994 597.969 24.0083 597.555 23.826C597.143 23.6413 596.818 23.388 596.579 23.0661C596.342 22.7417 596.22 22.3677 596.213 21.9439H597.761C597.771 22.1214 597.829 22.2777 597.935 22.4126C598.044 22.5452 598.188 22.6482 598.368 22.7216C598.548 22.795 598.751 22.8317 598.976 22.8317C599.21 22.8317 599.417 22.7902 599.597 22.7074C599.777 22.6245 599.918 22.5097 600.02 22.3629C600.121 22.2161 600.172 22.0469 600.172 21.8551C600.172 21.661 600.118 21.4893 600.009 21.3402C599.902 21.1887 599.749 21.0703 599.547 20.9851C599.348 20.8999 599.112 20.8572 598.837 20.8572H598.159V19.728H598.837C599.069 19.728 599.274 19.6877 599.451 19.6072C599.631 19.5268 599.771 19.4155 599.87 19.2734C599.97 19.129 600.02 18.9609 600.02 18.7692C600.02 18.5869 599.976 18.4271 599.888 18.2898C599.803 18.1501 599.682 18.0412 599.526 17.9631C599.372 17.8849 599.192 17.8459 598.986 17.8459C598.778 17.8459 598.587 17.8838 598.415 17.9595C598.242 18.0329 598.103 18.1383 597.999 18.2756C597.895 18.4129 597.839 18.5739 597.832 18.7585H596.358C596.366 18.3395 596.485 17.9702 596.717 17.6506C596.949 17.331 597.262 17.0812 597.655 16.9013C598.05 16.719 598.496 16.6278 598.993 16.6278C599.495 16.6278 599.934 16.719 600.311 16.9013C600.687 17.0836 600.98 17.3298 601.188 17.6399C601.399 17.9477 601.503 18.2933 601.5 18.6768C601.503 19.084 601.376 19.4238 601.12 19.696C600.867 19.9683 600.537 20.1411 600.13 20.2145V20.2713C600.665 20.34 601.072 20.5258 601.351 20.8288C601.633 21.1295 601.773 21.5059 601.77 21.9581C601.773 22.3724 601.653 22.7405 601.412 23.0625C601.173 23.3845 600.842 23.6378 600.421 23.8224C599.999 24.0071 599.517 24.0994 598.972 24.0994ZM608.835 19.2734H607.28C607.251 19.0722 607.193 18.8935 607.106 18.7372C607.018 18.5786 606.906 18.4437 606.768 18.3324C606.631 18.2211 606.472 18.1359 606.293 18.0767C606.115 18.0175 605.922 17.9879 605.714 17.9879C605.337 17.9879 605.009 18.0814 604.73 18.2685C604.451 18.4531 604.234 18.723 604.08 19.0781C603.926 19.4309 603.849 19.8594 603.849 20.3636C603.849 20.8821 603.926 21.3177 604.08 21.6705C604.236 22.0232 604.454 22.2895 604.734 22.4695C605.013 22.6494 605.336 22.7393 605.703 22.7393C605.909 22.7393 606.1 22.7121 606.275 22.6577C606.452 22.6032 606.61 22.5239 606.747 22.4197C606.884 22.3132 606.998 22.1842 607.088 22.0327C607.18 21.8812 607.244 21.7083 607.28 21.5142L608.835 21.5213C608.795 21.8551 608.694 22.1771 608.533 22.4872C608.375 22.795 608.16 23.0708 607.891 23.3146C607.623 23.5561 607.303 23.7479 606.932 23.8899C606.562 24.0296 606.145 24.0994 605.678 24.0994C605.03 24.0994 604.449 23.9527 603.938 23.6591C603.429 23.3655 603.027 22.9406 602.731 22.3842C602.437 21.8279 602.29 21.1544 602.29 20.3636C602.29 19.5705 602.44 18.8958 602.738 18.3395C603.036 17.7831 603.441 17.3594 603.952 17.0682C604.464 16.7746 605.039 16.6278 605.678 16.6278C606.1 16.6278 606.49 16.687 606.85 16.8054C607.212 16.9238 607.533 17.0966 607.812 17.3239C608.092 17.5488 608.319 17.8246 608.494 18.1513C608.672 18.478 608.785 18.852 608.835 19.2734Z" fill="white"/>
<mask id="path-42-inside-10_5630_57953" fill="white">
<path d="M389.5 40H511.5V90H389.5V40Z"/>
</mask>
<path d="M511.5 89H389.5V91H511.5V89Z" fill="#E8E8E8" mask="url(#path-42-inside-10_5630_57953)"/>
<path d="M441.772 66.464L441.161 65.112C443.891 64.787 445.204 63.448 445.347 62.135H441.746V60.77H445.373V59.301H447.089V60.77H450.716V62.135H447.115C447.258 63.448 448.571 64.787 451.301 65.112L450.69 66.464C448.545 66.178 447.024 65.294 446.231 64.072C445.438 65.294 443.917 66.178 441.772 66.464ZM447.089 68.362H451.652V69.753H440.81V68.362H445.373V66.048H447.089V68.362ZM452.327 70V68.5597L455.692 65.4435C455.978 65.1665 456.218 64.9173 456.412 64.6957C456.609 64.4741 456.758 64.2571 456.86 64.0447C456.962 63.8293 457.012 63.5969 457.012 63.3477C457.012 63.0707 456.949 62.8321 456.823 62.6321C456.697 62.429 456.525 62.2736 456.306 62.1658C456.087 62.055 455.84 61.9996 455.563 61.9996C455.273 61.9996 455.021 62.0581 454.806 62.1751C454.59 62.292 454.424 62.4598 454.307 62.6783C454.19 62.8968 454.132 63.1568 454.132 63.4585H452.234C452.234 62.8398 452.374 62.3028 452.654 61.8473C452.934 61.3918 453.327 61.0394 453.832 60.7901C454.336 60.5408 454.918 60.4162 455.577 60.4162C456.254 60.4162 456.843 60.5362 457.345 60.7763C457.849 61.0133 458.242 61.3426 458.522 61.7642C458.802 62.1858 458.942 62.669 458.942 63.2138C458.942 63.5708 458.871 63.9232 458.73 64.271C458.591 64.6187 458.343 65.005 457.986 65.4297C457.629 65.8513 457.126 66.3576 456.477 66.9485L455.096 68.3011V68.3658H459.067V70H452.327Z" fill="#2C2C2C"/>
<mask id="path-45-inside-11_5630_57953" fill="white">
<path d="M511.5 40H633.5V90H511.5V40Z"/>
</mask>
<path d="M633.5 89H511.5V91H633.5V89Z" fill="#E8E8E8" mask="url(#path-45-inside-11_5630_57953)"/>
<path d="M563.582 66.464L562.971 65.112C565.701 64.787 567.014 63.448 567.157 62.135H563.556V60.77H567.183V59.301H568.899V60.77H572.526V62.135H568.925C569.068 63.448 570.381 64.787 573.111 65.112L572.5 66.464C570.355 66.178 568.834 65.294 568.041 64.072C567.248 65.294 565.727 66.178 563.582 66.464ZM568.899 68.362H573.462V69.753H562.62V68.362H567.183V66.048H568.899V68.362ZM577.631 70.1293C576.941 70.1293 576.327 70.0108 575.789 69.7738C575.253 69.5337 574.83 69.2044 574.519 68.7859C574.212 68.3642 574.053 67.878 574.044 67.3271H576.057C576.069 67.5579 576.144 67.761 576.283 67.9364C576.424 68.1088 576.612 68.2427 576.846 68.3381C577.08 68.4335 577.343 68.4812 577.635 68.4812C577.94 68.4812 578.209 68.4273 578.443 68.3196C578.677 68.2119 578.86 68.0626 578.993 67.8718C579.125 67.681 579.191 67.4609 579.191 67.2116C579.191 66.9593 579.12 66.7362 578.979 66.5423C578.84 66.3453 578.64 66.1914 578.379 66.0806C578.12 65.9698 577.812 65.9144 577.455 65.9144H576.574V64.4464H577.455C577.757 64.4464 578.023 64.3941 578.254 64.2894C578.488 64.1848 578.67 64.0401 578.799 63.8555C578.928 63.6677 578.993 63.4492 578.993 63.1999C578.993 62.9629 578.936 62.7552 578.822 62.5767C578.711 62.3951 578.554 62.2536 578.351 62.152C578.151 62.0504 577.917 61.9996 577.649 61.9996C577.378 61.9996 577.131 62.0489 576.906 62.1474C576.681 62.2428 576.501 62.3797 576.366 62.5582C576.231 62.7367 576.158 62.946 576.149 63.1861H574.233C574.242 62.6413 574.398 62.1612 574.699 61.7457C575.001 61.3303 575.407 61.0056 575.918 60.7717C576.432 60.5347 577.012 60.4162 577.659 60.4162C578.311 60.4162 578.882 60.5347 579.371 60.7717C579.861 61.0086 580.241 61.3287 580.512 61.7319C580.785 62.132 580.921 62.5813 580.918 63.0799C580.921 63.6093 580.756 64.0509 580.424 64.4048C580.094 64.7588 579.665 64.9834 579.136 65.0788V65.1527C579.831 65.242 580.361 65.4835 580.724 65.8775C581.09 66.2683 581.272 66.7577 581.269 67.3455C581.272 67.8841 581.116 68.3627 580.802 68.7812C580.492 69.1998 580.062 69.5291 579.514 69.7692C578.967 70.0092 578.339 70.1293 577.631 70.1293Z" fill="#2C2C2C"/>
<mask id="path-48-inside-12_5630_57953" fill="white">
<path d="M389.5 90H633.5V140H389.5V90Z"/>
</mask>
<path d="M633.5 139H389.5V141H633.5V139Z" fill="#E8E8E8" mask="url(#path-48-inside-12_5630_57953)"/>
<path d="M495.811 114.111L495.239 112.785C497.462 112.59 498.632 111.81 498.931 111.004H495.759V109.639H504.612V111.004H501.427C501.726 111.81 502.896 112.59 505.132 112.785L504.534 114.111C502.285 113.916 500.816 113.071 500.179 111.94C499.542 113.071 498.073 113.916 495.811 114.111ZM502.571 118.96C502.571 118.349 501.752 118.089 500.153 118.089C498.554 118.089 497.735 118.349 497.735 118.96C497.735 119.558 498.554 119.818 500.153 119.818C501.752 119.818 502.571 119.558 502.571 118.96ZM505.587 115.944H501.037V116.828C503.091 116.997 504.313 117.738 504.313 118.96C504.313 120.338 502.74 121.118 500.153 121.118C497.566 121.118 496.006 120.338 496.006 118.96C496.006 117.725 497.241 116.984 499.321 116.815V115.944H494.771V114.579H505.587V115.944ZM513.126 110.198V111.55H506.08V110.198H508.732V109.08H510.461V110.198H513.126ZM508.303 114.124C508.303 114.735 508.823 115.034 509.603 115.034C510.37 115.034 510.903 114.735 510.903 114.124C510.903 113.526 510.37 113.227 509.603 113.227C508.823 113.227 508.303 113.526 508.303 114.124ZM512.541 114.124C512.541 115.437 511.332 116.334 509.603 116.334C507.887 116.334 506.665 115.437 506.665 114.124C506.665 112.824 507.887 111.927 509.603 111.927C511.332 111.927 512.541 112.824 512.541 114.124ZM507.523 118.518V117.14H515.505V121.131H513.789V118.518H507.523ZM517.091 112.226V113.643H515.505V116.646H513.789V109.158H515.505V112.226H517.091ZM526.839 116.867L525.123 116.698C525.513 114.527 525.526 112.915 525.526 111.537H518.441V110.172H527.242V111.329C527.242 112.798 527.242 114.449 526.839 116.867ZM524.304 118.297H528.23V119.675H517.388V118.297H519.663V114.514H521.353V118.297H522.627V114.514H524.304V118.297Z" fill="#2C2C2C"/>
<mask id="path-51-inside-13_5630_57953" fill="white">
<path d="M633.5 0H999.5V140H633.5V0Z"/>
</mask>
<path d="M633.5 0H999.5V140H633.5V0Z" fill="white"/>
<path d="M634.5 140V0H632.5V140H634.5Z" fill="#E8E8E8" mask="url(#path-51-inside-13_5630_57953)"/>
<rect width="122" height="40" transform="translate(633.5)" fill="#9F4DCB"/>
<path d="M651.6 22.7216V21.5107L654.637 16.7273H655.681V18.4034H655.063L653.149 21.4325V21.4893H657.463V22.7216H651.6ZM655.091 24V22.3523L655.12 21.8161V16.7273H656.561V24H655.091ZM659.284 24H657.636L660.147 16.7273H662.129L664.636 24H662.988L661.166 18.3892H661.109L659.284 24ZM659.181 21.1413H663.073V22.3416H659.181V21.1413Z" fill="white"/>
<path d="M685.535 22.7216V21.5107L688.571 16.7273H689.615V18.4034H688.997L687.083 21.4325V21.4893H691.398V22.7216H685.535ZM689.026 24V22.3523L689.054 21.8161V16.7273H690.496V24H689.026ZM691.965 24V16.7273H694.877C695.412 16.7273 695.858 16.8066 696.216 16.9652C696.573 17.1238 696.842 17.344 697.022 17.6257C697.202 17.9051 697.292 18.227 697.292 18.5916C697.292 18.8757 697.235 19.1255 697.121 19.3409C697.008 19.554 696.851 19.7292 696.653 19.8665C696.456 20.0014 696.231 20.0973 695.978 20.1541V20.2251C696.255 20.237 696.514 20.3151 696.756 20.4595C696.999 20.6039 697.197 20.8063 697.349 21.0668C697.5 21.3248 697.576 21.6326 697.576 21.9901C697.576 22.3759 697.48 22.7204 697.288 23.0234C697.099 23.3241 696.818 23.562 696.447 23.7372C696.075 23.9124 695.617 24 695.072 24H691.965ZM693.503 22.7429H694.756C695.185 22.7429 695.497 22.6612 695.694 22.4979C695.89 22.3321 695.989 22.112 695.989 21.8374C695.989 21.6361 695.94 21.4586 695.843 21.3047C695.746 21.1508 695.607 21.0301 695.427 20.9425C695.25 20.8549 695.038 20.8111 694.792 20.8111H693.503V22.7429ZM693.503 19.7706H694.643C694.853 19.7706 695.04 19.7339 695.204 19.6605C695.369 19.5848 695.5 19.4782 695.594 19.3409C695.691 19.2036 695.74 19.0391 695.74 18.8473C695.74 18.5845 695.646 18.3726 695.459 18.2116C695.275 18.0507 695.012 17.9702 694.671 17.9702H693.503V19.7706Z" fill="white"/>
<path d="M718.581 22.7216V21.5107L721.617 16.7273H722.661V18.4034H722.043L720.129 21.4325V21.4893H724.444V22.7216H718.581ZM722.072 24V22.3523L722.1 21.8161V16.7273H723.542V24H722.072ZM731.428 19.2734H729.873C729.844 19.0722 729.786 18.8935 729.699 18.7372C729.611 18.5786 729.498 18.4437 729.361 18.3324C729.224 18.2211 729.065 18.1359 728.885 18.0767C728.708 18.0175 728.515 17.9879 728.306 17.9879C727.93 17.9879 727.602 18.0814 727.323 18.2685C727.043 18.4531 726.827 18.723 726.673 19.0781C726.519 19.4309 726.442 19.8594 726.442 20.3636C726.442 20.8821 726.519 21.3177 726.673 21.6705C726.829 22.0232 727.047 22.2895 727.326 22.4695C727.606 22.6494 727.929 22.7393 728.296 22.7393C728.502 22.7393 728.692 22.7121 728.868 22.6577C729.045 22.6032 729.203 22.5239 729.34 22.4197C729.477 22.3132 729.591 22.1842 729.681 22.0327C729.773 21.8812 729.837 21.7083 729.873 21.5142L731.428 21.5213C731.388 21.8551 731.287 22.1771 731.126 22.4872C730.967 22.795 730.753 23.0708 730.483 23.3146C730.216 23.5561 729.896 23.7479 729.525 23.8899C729.155 24.0296 728.737 24.0994 728.271 24.0994C727.622 24.0994 727.042 23.9527 726.531 23.6591C726.022 23.3655 725.619 22.9406 725.324 22.3842C725.03 21.8279 724.883 21.1544 724.883 20.3636C724.883 19.5705 725.032 18.8958 725.331 18.3395C725.629 17.7831 726.034 17.3594 726.545 17.0682C727.056 16.7746 727.632 16.6278 728.271 16.6278C728.692 16.6278 729.083 16.687 729.443 16.8054C729.805 16.9238 730.126 17.0966 730.405 17.3239C730.685 17.5488 730.912 17.8246 731.087 18.1513C731.265 18.478 731.378 18.852 731.428 19.2734Z" fill="white"/>
<rect width="122" height="40" transform="translate(755.5)" fill="#78522C"/>
<path d="M778.033 24.0994C777.531 24.0994 777.084 24.0071 776.691 23.8224C776.3 23.6378 775.99 23.3833 775.76 23.0589C775.53 22.7346 775.411 22.3629 775.401 21.9439H776.893C776.91 22.2256 777.028 22.4541 777.248 22.6293C777.468 22.8045 777.73 22.892 778.033 22.892C778.274 22.892 778.487 22.8388 778.672 22.7322C778.859 22.6233 779.005 22.473 779.109 22.2812C779.215 22.0871 779.269 21.8646 779.269 21.6136C779.269 21.358 779.214 21.133 779.105 20.9389C778.999 20.7448 778.851 20.5933 778.661 20.4844C778.472 20.3755 778.255 20.3198 778.012 20.3175C777.798 20.3175 777.591 20.3613 777.39 20.4489C777.191 20.5365 777.036 20.656 776.925 20.8075L775.558 20.5625L775.902 16.7273H780.348V17.9844H777.17L776.982 19.8061H777.024C777.152 19.6262 777.345 19.477 777.603 19.3587C777.861 19.2403 778.15 19.1811 778.47 19.1811C778.908 19.1811 779.298 19.2841 779.642 19.4901C779.985 19.696 780.256 19.9789 780.455 20.3388C780.654 20.6963 780.752 21.1082 780.749 21.5746C780.752 22.0646 780.638 22.5002 780.409 22.8814C780.181 23.2602 779.863 23.5585 779.453 23.7763C779.046 23.9917 778.573 24.0994 778.033 24.0994ZM782.618 24H780.97L783.481 16.7273H785.463L787.97 24H786.322L784.5 18.3892H784.443L782.618 24ZM782.515 21.1413H786.407V22.3416H782.515V21.1413Z" fill="white"/>
<path d="M810.967 24.0994C810.466 24.0994 810.018 24.0071 809.625 23.8224C809.234 23.6378 808.924 23.3833 808.695 23.0589C808.465 22.7346 808.345 22.3629 808.336 21.9439H809.828C809.844 22.2256 809.962 22.4541 810.183 22.6293C810.403 22.8045 810.664 22.892 810.967 22.892C811.209 22.892 811.422 22.8388 811.607 22.7322C811.794 22.6233 811.939 22.473 812.043 22.2812C812.15 22.0871 812.203 21.8646 812.203 21.6136C812.203 21.358 812.149 21.133 812.04 20.9389C811.933 20.7448 811.785 20.5933 811.596 20.4844C811.407 20.3755 811.19 20.3198 810.946 20.3175C810.733 20.3175 810.526 20.3613 810.325 20.4489C810.126 20.5365 809.971 20.656 809.859 20.8075L808.492 20.5625L808.837 16.7273H813.283V17.9844H810.104L809.916 19.8061H809.959C810.087 19.6262 810.28 19.477 810.538 19.3587C810.796 19.2403 811.085 19.1811 811.404 19.1811C811.842 19.1811 812.233 19.2841 812.576 19.4901C812.919 19.696 813.19 19.9789 813.389 20.3388C813.588 20.6963 813.686 21.1082 813.684 21.5746C813.686 22.0646 813.573 22.5002 813.343 22.8814C813.116 23.2602 812.797 23.5585 812.388 23.7763C811.981 23.9917 811.507 24.0994 810.967 24.0994ZM814.299 24V16.7273H817.211C817.746 16.7273 818.192 16.8066 818.55 16.9652C818.907 17.1238 819.176 17.344 819.356 17.6257C819.536 17.9051 819.626 18.227 819.626 18.5916C819.626 18.8757 819.569 19.1255 819.455 19.3409C819.342 19.554 819.185 19.7292 818.987 19.8665C818.79 20.0014 818.565 20.0973 818.312 20.1541V20.2251C818.589 20.237 818.848 20.3151 819.09 20.4595C819.333 20.6039 819.531 20.8063 819.683 21.0668C819.834 21.3248 819.91 21.6326 819.91 21.9901C819.91 22.3759 819.814 22.7204 819.622 23.0234C819.433 23.3241 819.152 23.562 818.781 23.7372C818.409 23.9124 817.951 24 817.406 24H814.299ZM815.837 22.7429H817.09C817.519 22.7429 817.831 22.6612 818.028 22.4979C818.224 22.3321 818.323 22.112 818.323 21.8374C818.323 21.6361 818.274 21.4586 818.177 21.3047C818.08 21.1508 817.941 21.0301 817.761 20.9425C817.584 20.8549 817.372 20.8111 817.126 20.8111H815.837V22.7429ZM815.837 19.7706H816.977C817.187 19.7706 817.374 19.7339 817.538 19.6605C817.703 19.5848 817.834 19.4782 817.928 19.3409C818.025 19.2036 818.074 19.0391 818.074 18.8473C818.074 18.5845 817.98 18.3726 817.793 18.2116C817.609 18.0507 817.346 17.9702 817.005 17.9702H815.837V19.7706Z" fill="white"/>
<path d="M843.013 24.0994C842.511 24.0994 842.064 24.0071 841.671 23.8224C841.28 23.6378 840.97 23.3833 840.741 23.0589C840.511 22.7346 840.391 22.3629 840.382 21.9439H841.873C841.89 22.2256 842.008 22.4541 842.229 22.6293C842.449 22.8045 842.71 22.892 843.013 22.892C843.255 22.892 843.468 22.8388 843.653 22.7322C843.84 22.6233 843.985 22.473 844.089 22.2812C844.196 22.0871 844.249 21.8646 844.249 21.6136C844.249 21.358 844.195 21.133 844.086 20.9389C843.979 20.7448 843.831 20.5933 843.642 20.4844C843.452 20.3755 843.236 20.3198 842.992 20.3175C842.779 20.3175 842.572 20.3613 842.371 20.4489C842.172 20.5365 842.017 20.656 841.905 20.8075L840.538 20.5625L840.883 16.7273H845.329V17.9844H842.15L841.962 19.8061H842.005C842.133 19.6262 842.326 19.477 842.584 19.3587C842.842 19.2403 843.131 19.1811 843.45 19.1811C843.888 19.1811 844.279 19.2841 844.622 19.4901C844.965 19.696 845.236 19.9789 845.435 20.3388C845.634 20.6963 845.732 21.1082 845.73 21.5746C845.732 22.0646 845.619 22.5002 845.389 22.8814C845.162 23.2602 844.843 23.5585 844.434 23.7763C844.027 23.9917 843.553 24.0994 843.013 24.0994ZM852.762 19.2734H851.206C851.178 19.0722 851.12 18.8935 851.032 18.7372C850.945 18.5786 850.832 18.4437 850.695 18.3324C850.558 18.2211 850.399 18.1359 850.219 18.0767C850.042 18.0175 849.849 17.9879 849.64 17.9879C849.264 17.9879 848.936 18.0814 848.657 18.2685C848.377 18.4531 848.161 18.723 848.007 19.0781C847.853 19.4309 847.776 19.8594 847.776 20.3636C847.776 20.8821 847.853 21.3177 848.007 21.6705C848.163 22.0232 848.381 22.2895 848.66 22.4695C848.94 22.6494 849.263 22.7393 849.63 22.7393C849.836 22.7393 850.026 22.7121 850.202 22.6577C850.379 22.6032 850.537 22.5239 850.674 22.4197C850.811 22.3132 850.925 22.1842 851.015 22.0327C851.107 21.8812 851.171 21.7083 851.206 21.5142L852.762 21.5213C852.722 21.8551 852.621 22.1771 852.46 22.4872C852.301 22.795 852.087 23.0708 851.817 23.3146C851.55 23.5561 851.23 23.7479 850.858 23.8899C850.489 24.0296 850.071 24.0994 849.605 24.0994C848.956 24.0994 848.376 23.9527 847.865 23.6591C847.356 23.3655 846.953 22.9406 846.657 22.3842C846.364 21.8279 846.217 21.1544 846.217 20.3636C846.217 19.5705 846.366 18.8958 846.665 18.3395C846.963 17.7831 847.368 17.3594 847.879 17.0682C848.39 16.7746 848.966 16.6278 849.605 16.6278C850.026 16.6278 850.417 16.687 850.777 16.8054C851.139 16.9238 851.46 17.0966 851.739 17.3239C852.019 17.5488 852.246 17.8246 852.421 18.1513C852.599 18.478 852.712 18.852 852.762 19.2734Z" fill="white"/>
<rect width="122" height="40" transform="translate(877.5)" fill="#464545"/>
<path d="M899.09 24.0994C898.716 24.0971 898.355 24.0343 898.007 23.9112C897.661 23.7881 897.351 23.5881 897.076 23.3111C896.802 23.0341 896.584 22.6671 896.423 22.2102C896.264 21.7533 896.185 21.1922 896.185 20.527C896.187 19.9162 896.257 19.3705 896.394 18.8899C896.534 18.407 896.733 17.9974 896.991 17.6612C897.251 17.325 897.563 17.0694 897.925 16.8942C898.287 16.7166 898.693 16.6278 899.143 16.6278C899.628 16.6278 900.057 16.7225 900.428 16.9119C900.8 17.099 901.098 17.3535 901.323 17.6754C901.551 17.9974 901.688 18.3584 901.735 18.7585H900.219C900.16 18.5052 900.035 18.3063 899.846 18.1619C899.657 18.0175 899.422 17.9453 899.143 17.9453C898.669 17.9453 898.31 18.1513 898.063 18.5632C897.82 18.9751 897.695 19.535 897.691 20.2429H897.74C897.849 20.0275 897.996 19.844 898.181 19.6925C898.368 19.5386 898.579 19.4214 898.816 19.3409C899.055 19.258 899.307 19.2166 899.573 19.2166C900.003 19.2166 900.387 19.3184 900.723 19.522C901.059 19.7232 901.325 20.0002 901.519 20.353C901.713 20.7057 901.81 21.1094 901.81 21.5639C901.81 22.0563 901.695 22.4943 901.465 22.8778C901.238 23.2614 900.92 23.562 900.51 23.7798C900.103 23.9953 899.629 24.1018 899.09 24.0994ZM899.083 22.892C899.319 22.892 899.531 22.8352 899.718 22.7216C899.905 22.608 900.052 22.4541 900.159 22.2599C900.265 22.0658 900.318 21.848 900.318 21.6065C900.318 21.3651 900.265 21.1484 900.159 20.9567C900.054 20.7649 899.91 20.6122 899.725 20.4986C899.541 20.3849 899.33 20.3281 899.093 20.3281C898.916 20.3281 898.751 20.3613 898.6 20.4276C898.45 20.4938 898.319 20.5862 898.205 20.7045C898.094 20.8229 898.007 20.9602 897.943 21.1165C897.879 21.2704 897.847 21.4349 897.847 21.6101C897.847 21.8445 897.9 22.0587 898.007 22.2528C898.115 22.447 898.262 22.602 898.447 22.718C898.634 22.834 898.846 22.892 899.083 22.892ZM903.696 24H902.048L904.559 16.7273H906.541L909.048 24H907.4L905.578 18.3892H905.521L903.696 24ZM903.593 21.1413H907.485V22.3416H903.593V21.1413Z" fill="white"/>
<path d="M933.024 24.0994C932.65 24.0971 932.289 24.0343 931.941 23.9112C931.595 23.7881 931.285 23.5881 931.011 23.3111C930.736 23.0341 930.518 22.6671 930.357 22.2102C930.199 21.7533 930.119 21.1922 930.119 20.527C930.122 19.9162 930.192 19.3705 930.329 18.8899C930.469 18.407 930.667 17.9974 930.926 17.6612C931.186 17.325 931.497 17.0694 931.859 16.8942C932.222 16.7166 932.628 16.6278 933.078 16.6278C933.563 16.6278 933.991 16.7225 934.363 16.9119C934.735 17.099 935.033 17.3535 935.258 17.6754C935.485 17.9974 935.622 18.3584 935.67 18.7585H934.153C934.094 18.5052 933.97 18.3063 933.781 18.1619C933.591 18.0175 933.357 17.9453 933.078 17.9453C932.604 17.9453 932.244 18.1513 931.998 18.5632C931.754 18.9751 931.63 19.535 931.625 20.2429H931.675C931.784 20.0275 931.93 19.844 932.115 19.6925C932.302 19.5386 932.514 19.4214 932.751 19.3409C932.99 19.258 933.242 19.2166 933.507 19.2166C933.938 19.2166 934.322 19.3184 934.658 19.522C934.994 19.7232 935.259 20.0002 935.453 20.353C935.647 20.7057 935.744 21.1094 935.744 21.5639C935.744 22.0563 935.63 22.4943 935.4 22.8778C935.173 23.2614 934.854 23.562 934.445 23.7798C934.037 23.9953 933.564 24.1018 933.024 24.0994ZM933.017 22.892C933.254 22.892 933.466 22.8352 933.653 22.7216C933.84 22.608 933.987 22.4541 934.093 22.2599C934.2 22.0658 934.253 21.848 934.253 21.6065C934.253 21.3651 934.2 21.1484 934.093 20.9567C933.989 20.7649 933.845 20.6122 933.66 20.4986C933.475 20.3849 933.265 20.3281 933.028 20.3281C932.85 20.3281 932.686 20.3613 932.534 20.4276C932.385 20.4938 932.254 20.5862 932.14 20.7045C932.029 20.8229 931.941 20.9602 931.877 21.1165C931.813 21.2704 931.781 21.4349 931.781 21.6101C931.781 21.8445 931.835 22.0587 931.941 22.2528C932.05 22.447 932.197 22.602 932.381 22.718C932.569 22.834 932.78 22.892 933.017 22.892ZM936.377 24V16.7273H939.289C939.824 16.7273 940.27 16.8066 940.628 16.9652C940.985 17.1238 941.254 17.344 941.434 17.6257C941.614 17.9051 941.704 18.227 941.704 18.5916C941.704 18.8757 941.647 19.1255 941.533 19.3409C941.42 19.554 941.264 19.7292 941.065 19.8665C940.868 20.0014 940.643 20.0973 940.39 20.1541V20.2251C940.667 20.237 940.926 20.3151 941.168 20.4595C941.412 20.6039 941.609 20.8063 941.761 21.0668C941.912 21.3248 941.988 21.6326 941.988 21.9901C941.988 22.3759 941.892 22.7204 941.7 23.0234C941.511 23.3241 941.23 23.562 940.859 23.7372C940.487 23.9124 940.029 24 939.484 24H936.377ZM937.915 22.7429H939.168C939.597 22.7429 939.909 22.6612 940.106 22.4979C940.302 22.3321 940.401 22.112 940.401 21.8374C940.401 21.6361 940.352 21.4586 940.255 21.3047C940.158 21.1508 940.02 21.0301 939.84 20.9425C939.662 20.8549 939.45 20.8111 939.204 20.8111H937.915V22.7429ZM937.915 19.7706H939.055C939.265 19.7706 939.453 19.7339 939.616 19.6605C939.782 19.5848 939.912 19.4782 940.006 19.3409C940.104 19.2036 940.152 19.0391 940.152 18.8473C940.152 18.5845 940.059 18.3726 939.872 18.2116C939.687 18.0507 939.424 17.9702 939.083 17.9702H937.915V19.7706Z" fill="white"/>
<path d="M965.07 24.0994C964.696 24.0971 964.335 24.0343 963.987 23.9112C963.641 23.7881 963.331 23.5881 963.057 23.3111C962.782 23.0341 962.564 22.6671 962.403 22.2102C962.245 21.7533 962.165 21.1922 962.165 20.527C962.168 19.9162 962.238 19.3705 962.375 18.8899C962.515 18.407 962.713 17.9974 962.971 17.6612C963.232 17.325 963.543 17.0694 963.905 16.8942C964.268 16.7166 964.674 16.6278 965.123 16.6278C965.609 16.6278 966.037 16.7225 966.409 16.9119C966.781 17.099 967.079 17.3535 967.304 17.6754C967.531 17.9974 967.668 18.3584 967.716 18.7585H966.199C966.14 18.5052 966.016 18.3063 965.827 18.1619C965.637 18.0175 965.403 17.9453 965.123 17.9453C964.65 17.9453 964.29 18.1513 964.044 18.5632C963.8 18.9751 963.676 19.535 963.671 20.2429H963.721C963.83 20.0275 963.976 19.844 964.161 19.6925C964.348 19.5386 964.56 19.4214 964.797 19.3409C965.036 19.258 965.288 19.2166 965.553 19.2166C965.984 19.2166 966.367 19.3184 966.704 19.522C967.04 19.7232 967.305 20.0002 967.499 20.353C967.693 20.7057 967.79 21.1094 967.79 21.5639C967.79 22.0563 967.675 22.4943 967.446 22.8778C967.219 23.2614 966.9 23.562 966.491 23.7798C966.083 23.9953 965.61 24.1018 965.07 24.0994ZM965.063 22.892C965.3 22.892 965.512 22.8352 965.699 22.7216C965.886 22.608 966.032 22.4541 966.139 22.2599C966.246 22.0658 966.299 21.848 966.299 21.6065C966.299 21.3651 966.246 21.1484 966.139 20.9567C966.035 20.7649 965.89 20.6122 965.706 20.4986C965.521 20.3849 965.31 20.3281 965.074 20.3281C964.896 20.3281 964.732 20.3613 964.58 20.4276C964.431 20.4938 964.3 20.5862 964.186 20.7045C964.075 20.8229 963.987 20.9602 963.923 21.1165C963.859 21.2704 963.827 21.4349 963.827 21.6101C963.827 21.8445 963.881 22.0587 963.987 22.2528C964.096 22.447 964.243 22.602 964.427 22.718C964.614 22.834 964.826 22.892 965.063 22.892ZM974.84 19.2734H973.285C973.256 19.0722 973.198 18.8935 973.111 18.7372C973.023 18.5786 972.911 18.4437 972.773 18.3324C972.636 18.2211 972.477 18.1359 972.297 18.0767C972.12 18.0175 971.927 17.9879 971.719 17.9879C971.342 17.9879 971.014 18.0814 970.735 18.2685C970.456 18.4531 970.239 18.723 970.085 19.0781C969.931 19.4309 969.854 19.8594 969.854 20.3636C969.854 20.8821 969.931 21.3177 970.085 21.6705C970.241 22.0232 970.459 22.2895 970.738 22.4695C971.018 22.6494 971.341 22.7393 971.708 22.7393C971.914 22.7393 972.104 22.7121 972.28 22.6577C972.457 22.6032 972.615 22.5239 972.752 22.4197C972.889 22.3132 973.003 22.1842 973.093 22.0327C973.185 21.8812 973.249 21.7083 973.285 21.5142L974.84 21.5213C974.8 21.8551 974.699 22.1771 974.538 22.4872C974.38 22.795 974.165 23.0708 973.895 23.3146C973.628 23.5561 973.308 23.7479 972.937 23.8899C972.567 24.0296 972.149 24.0994 971.683 24.0994C971.034 24.0994 970.454 23.9527 969.943 23.6591C969.434 23.3655 969.032 22.9406 968.736 22.3842C968.442 21.8279 968.295 21.1544 968.295 20.3636C968.295 19.5705 968.444 18.8958 968.743 18.3395C969.041 17.7831 969.446 17.3594 969.957 17.0682C970.469 16.7746 971.044 16.6278 971.683 16.6278C972.104 16.6278 972.495 16.687 972.855 16.8054C973.217 16.9238 973.538 17.0966 973.817 17.3239C974.097 17.5488 974.324 17.8246 974.499 18.1513C974.677 18.478 974.79 18.852 974.84 19.2734Z" fill="white"/>
<mask id="path-62-inside-14_5630_57953" fill="white">
<path d="M633.5 40H755.5V90H633.5V40Z"/>
</mask>
<path d="M755.5 89H633.5V91H755.5V89Z" fill="#E8E8E8" mask="url(#path-62-inside-14_5630_57953)"/>
<path d="M685.961 66.464L685.35 65.112C688.08 64.787 689.393 63.448 689.536 62.135H685.935V60.77H689.562V59.301H691.278V60.77H694.905V62.135H691.304C691.447 63.448 692.76 64.787 695.49 65.112L694.879 66.464C692.734 66.178 691.213 65.294 690.42 64.072C689.627 65.294 688.106 66.178 685.961 66.464ZM691.278 68.362H695.841V69.753H684.999V68.362H689.562V66.048H691.278V68.362ZM696.372 68.3381V66.7638L700.32 60.5455H701.677V62.7244H700.874L698.385 66.6623V66.7362H703.994V68.3381H696.372ZM700.91 70V67.858L700.947 67.1609V60.5455H702.822V70H700.91Z" fill="#2C2C2C"/>
<mask id="path-65-inside-15_5630_57953" fill="white">
<path d="M755.5 40H877.5V90H755.5V40Z"/>
</mask>
<path d="M877.5 89H755.5V91H877.5V89Z" fill="#E8E8E8" mask="url(#path-65-inside-15_5630_57953)"/>
<path d="M807.677 66.464L807.066 65.112C809.796 64.787 811.109 63.448 811.252 62.135H807.651V60.77H811.278V59.301H812.994V60.77H816.621V62.135H813.02C813.163 63.448 814.476 64.787 817.206 65.112L816.595 66.464C814.45 66.178 812.929 65.294 812.136 64.072C811.343 65.294 809.822 66.178 807.677 66.464ZM812.994 68.362H817.557V69.753H806.715V68.362H811.278V66.048H812.994V68.362ZM821.684 70.1293C821.032 70.1293 820.45 70.0092 819.939 69.7692C819.432 69.5291 819.028 69.1983 818.73 68.7766C818.431 68.355 818.276 67.8718 818.264 67.3271H820.203C820.224 67.6933 820.378 67.9903 820.664 68.218C820.95 68.4458 821.291 68.5597 821.684 68.5597C821.998 68.5597 822.275 68.4904 822.515 68.3519C822.759 68.2103 822.948 68.0149 823.083 67.7656C823.222 67.5133 823.291 67.224 823.291 66.8977C823.291 66.5653 823.22 66.273 823.079 66.0206C822.94 65.7682 822.748 65.5713 822.502 65.4297C822.255 65.2881 821.974 65.2158 821.657 65.2127C821.38 65.2127 821.111 65.2696 820.849 65.3835C820.59 65.4974 820.389 65.6528 820.244 65.8498L818.467 65.5312L818.915 60.5455H824.694V62.1797H820.563L820.318 64.5479H820.373C820.54 64.314 820.79 64.1201 821.126 63.9663C821.461 63.8124 821.837 63.7354 822.252 63.7354C822.822 63.7354 823.33 63.8693 823.776 64.1371C824.222 64.4048 824.574 64.7726 824.833 65.2404C825.091 65.7051 825.219 66.2406 825.216 66.8469C825.219 67.484 825.071 68.0503 824.773 68.5458C824.477 69.0382 824.064 69.426 823.531 69.7092C823.002 69.9892 822.386 70.1293 821.684 70.1293Z" fill="#2C2C2C"/>
<mask id="path-68-inside-16_5630_57953" fill="white">
<path d="M877.5 40H999.5V90H877.5V40Z"/>
</mask>
<path d="M999.5 89H877.5V91H999.5V89Z" fill="#E8E8E8" mask="url(#path-68-inside-16_5630_57953)"/>
<path d="M929.575 66.464L928.964 65.112C931.694 64.787 933.007 63.448 933.15 62.135H929.549V60.77H933.176V59.301H934.892V60.77H938.519V62.135H934.918C935.061 63.448 936.374 64.787 939.104 65.112L938.493 66.464C936.348 66.178 934.827 65.294 934.034 64.072C933.241 65.294 931.72 66.178 929.575 66.464ZM934.892 68.362H939.455V69.753H928.613V68.362H933.176V66.048H934.892V68.362ZM943.758 70.1293C943.272 70.1262 942.803 70.0446 942.35 69.8846C941.901 69.7246 941.498 69.4645 941.141 69.1044C940.784 68.7443 940.501 68.2673 940.291 67.6733C940.085 67.0793 939.982 66.3499 939.982 65.4851C939.985 64.6911 940.076 63.9817 940.254 63.3569C940.436 62.729 940.695 62.1966 941.03 61.7596C941.369 61.3226 941.773 60.9902 942.244 60.7624C942.715 60.5316 943.243 60.4162 943.828 60.4162C944.459 60.4162 945.016 60.5393 945.499 60.7855C945.982 61.0286 946.37 61.3595 946.662 61.7781C946.958 62.1966 947.136 62.666 947.198 63.1861H945.226C945.149 62.8568 944.988 62.5982 944.742 62.4105C944.495 62.2228 944.191 62.1289 943.828 62.1289C943.212 62.1289 942.744 62.3967 942.424 62.9322C942.107 63.4677 941.946 64.1955 941.939 65.1158H942.004C942.146 64.8357 942.336 64.5972 942.577 64.4002C942.82 64.2002 943.095 64.0478 943.403 63.9432C943.714 63.8355 944.042 63.7816 944.386 63.7816C944.946 63.7816 945.445 63.9139 945.882 64.1786C946.319 64.4402 946.664 64.8003 946.916 65.2589C947.168 65.7174 947.295 66.2422 947.295 66.8331C947.295 67.4732 947.145 68.0426 946.847 68.5412C946.551 69.0398 946.137 69.4306 945.605 69.7138C945.076 69.9938 944.46 70.1323 943.758 70.1293ZM943.749 68.5597C944.057 68.5597 944.332 68.4858 944.575 68.3381C944.819 68.1903 945.009 67.9903 945.148 67.7379C945.286 67.4856 945.356 67.2024 945.356 66.8885C945.356 66.5746 945.286 66.293 945.148 66.0437C945.013 65.7944 944.825 65.5959 944.585 65.4482C944.345 65.3004 944.071 65.2266 943.763 65.2266C943.532 65.2266 943.318 65.2696 943.121 65.3558C942.927 65.442 942.757 65.562 942.609 65.7159C942.464 65.8698 942.35 66.0483 942.267 66.2514C942.184 66.4515 942.143 66.6654 942.143 66.8931C942.143 67.1978 942.212 67.4763 942.35 67.7287C942.492 67.9811 942.683 68.1826 942.923 68.3335C943.166 68.4843 943.441 68.5597 943.749 68.5597Z" fill="#2C2C2C"/>
<mask id="path-71-inside-17_5630_57953" fill="white">
<path d="M633.5 90H999.5V140H633.5V90Z"/>
</mask>
<path d="M999.5 139H633.5V141H999.5V139Z" fill="#E8E8E8" mask="url(#path-71-inside-17_5630_57953)"/>
<path d="M790.949 117.049L789.233 116.854C789.688 114.592 789.714 112.928 789.714 111.537H782.733V110.172H791.43V111.316C791.43 112.811 791.43 114.501 790.949 117.049ZM787.179 118.297H792.47V119.675H781.641V118.297H785.463V114.176H787.179V118.297ZM802.544 112.434V113.786H794.263V109.47H802.479V110.835H795.966V112.434H802.544ZM798.319 119.818C799.918 119.818 800.737 119.545 800.737 118.921C800.737 118.297 799.918 118.011 798.319 118.011C796.72 118.011 795.901 118.297 795.901 118.921C795.901 119.545 796.72 119.818 798.319 119.818ZM798.319 116.711C800.906 116.711 802.479 117.504 802.479 118.921C802.479 120.325 800.906 121.118 798.319 121.118C795.732 121.118 794.172 120.325 794.172 118.921C794.172 117.504 795.732 116.711 798.319 116.711ZM792.95 114.618H803.779V116.022H792.95V114.618ZM811.292 110.198V111.55H804.246V110.198H806.898V109.08H808.627V110.198H811.292ZM806.469 114.124C806.469 114.735 806.989 115.034 807.769 115.034C808.536 115.034 809.069 114.735 809.069 114.124C809.069 113.526 808.536 113.227 807.769 113.227C806.989 113.227 806.469 113.526 806.469 114.124ZM810.707 114.124C810.707 115.437 809.498 116.334 807.769 116.334C806.053 116.334 804.831 115.437 804.831 114.124C804.831 112.824 806.053 111.927 807.769 111.927C809.498 111.927 810.707 112.824 810.707 114.124ZM805.689 118.518V117.14H813.671V121.131H811.955V118.518H805.689ZM815.257 112.226V113.643H813.671V116.646H811.955V109.158H813.671V112.226H815.257ZM825.006 116.867L823.29 116.698C823.68 114.527 823.693 112.915 823.693 111.537H816.608V110.172H825.409V111.329C825.409 112.798 825.409 114.449 825.006 116.867ZM822.471 118.297H826.397V119.675H815.555V118.297H817.83V114.514H819.52V118.297H820.794V114.514H822.471V118.297ZM837.425 109.132H839.141V121.144H837.425V109.132ZM832.706 109.977C834.513 109.977 835.852 111.615 835.852 114.241C835.852 116.88 834.513 118.531 832.706 118.531C830.899 118.531 829.56 116.88 829.56 114.241C829.56 111.615 830.899 109.977 832.706 109.977ZM832.706 111.524C831.822 111.524 831.211 112.473 831.211 114.241C831.211 116.022 831.822 116.971 832.706 116.971C833.59 116.971 834.201 116.022 834.201 114.241C834.201 112.473 833.59 111.524 832.706 111.524ZM847.59 114.449L846.693 115.775C845.432 115.359 844.561 114.553 844.054 113.539C843.534 114.709 842.611 115.632 841.246 116.113L840.349 114.761C842.351 114.098 843.157 112.499 843.157 110.874V109.795H844.899V111.017C844.899 112.46 845.705 113.864 847.59 114.449ZM846.043 119.792C847.564 119.792 848.383 119.48 848.383 118.804C848.383 118.141 847.564 117.829 846.043 117.829C844.509 117.829 843.69 118.141 843.69 118.804C843.69 119.48 844.509 119.792 846.043 119.792ZM846.043 116.503C848.526 116.503 850.086 117.361 850.086 118.804C850.086 120.26 848.526 121.118 846.043 121.118C843.547 121.118 841.987 120.26 841.987 118.804C841.987 117.361 843.547 116.503 846.043 116.503ZM849.956 111.927H851.542V113.344H849.956V116.23H848.24V109.158H849.956V111.927Z" fill="#2C2C2C"/>
</svg>
