<svg width="40" height="40" viewBox="0 0 40 40" fill="none" xmlns="http://www.w3.org/2000/svg">
<g clip-path="url(#clip0_76_2366)">
<path d="M5.24685 39.0993C5.32346 39.6168 5.76761 40 6.291 40H33.4336C33.9568 40 34.4011 39.6168 34.4777 39.0993L37.1846 20.8024H2.54004L5.24685 39.0993ZM29.4366 24.9499C29.4366 24.3092 29.9563 23.7898 30.5973 23.7898H30.818C31.459 23.7898 31.9787 24.3092 31.9787 24.9499V34.7728C31.9787 35.4135 31.459 35.9329 30.818 35.9329H30.5973C29.9563 35.9329 29.4366 35.4135 29.4366 34.7728V24.9499ZM24.0138 24.9499C24.0138 24.3092 24.5335 23.7898 25.1746 23.7898H25.3952C26.0363 23.7898 26.556 24.3092 26.556 24.9499V34.7728C26.556 35.4135 26.0363 35.9329 25.3952 35.9329H25.1746C24.5335 35.9329 24.0138 35.4135 24.0138 34.7728V24.9499ZM18.591 24.9499C18.591 24.3092 19.1108 23.7898 19.7518 23.7898H19.9725C20.6135 23.7898 21.1332 24.3092 21.1332 24.9499V34.7728C21.1332 35.4135 20.6135 35.9329 19.9725 35.9329H19.7518C19.1108 35.9329 18.591 35.4135 18.591 34.7728V24.9499ZM13.1684 24.9499C13.1684 24.3092 13.6881 23.7898 14.3292 23.7898H14.5499C15.1909 23.7898 15.7106 24.3092 15.7106 24.9499V34.7728C15.7106 35.4135 15.1909 35.9329 14.5499 35.9329H14.3292C13.6881 35.9329 13.1684 35.4135 13.1684 34.7728V24.9499ZM7.74567 24.9499C7.74567 24.3092 8.26537 23.7898 8.90641 23.7898H9.12708C9.76812 23.7898 10.2878 24.3092 10.2878 24.9499V34.7728C10.2878 35.4135 9.76812 35.9329 9.12708 35.9329H8.90641C8.26537 35.9329 7.74567 35.4135 7.74567 34.7728V24.9499Z" fill="#B52028"/>
<path d="M9.12719 23.7898H8.90635C8.26529 23.7898 7.74561 24.3092 7.74561 24.9499V34.7728C7.74561 35.4135 8.26529 35.933 8.90635 35.933H9.12719C9.76825 35.933 10.2879 35.4135 10.2879 34.7728V24.9499C10.2879 24.3092 9.76825 23.7898 9.12719 23.7898Z" fill="#EF4343"/>
<path d="M14.55 23.7898H14.3292C13.6881 23.7898 13.1685 24.3092 13.1685 24.9499V34.7728C13.1685 35.4135 13.6881 35.933 14.3292 35.933H14.55C15.1911 35.933 15.7108 35.4135 15.7108 34.7728V24.9499C15.7108 24.3092 15.1911 23.7898 14.55 23.7898Z" fill="#EF4343"/>
<path d="M19.9724 23.7898H19.7516C19.1105 23.7898 18.5908 24.3092 18.5908 24.9499V34.7728C18.5908 35.4135 19.1105 35.933 19.7516 35.933H19.9724C20.6135 35.933 21.1331 35.4135 21.1331 34.7728V24.9499C21.1331 24.3092 20.6135 23.7898 19.9724 23.7898Z" fill="#EF4343"/>
<path d="M25.3953 23.7898H25.1744C24.5334 23.7898 24.0137 24.3092 24.0137 24.9499V34.7728C24.0137 35.4135 24.5334 35.933 25.1744 35.933H25.3953C26.0363 35.933 26.556 35.4135 26.556 34.7728V24.9499C26.556 24.3092 26.0363 23.7898 25.3953 23.7898Z" fill="#EF4343"/>
<path d="M30.8181 23.7898H30.5973C29.9562 23.7898 29.4365 24.3092 29.4365 24.9499V34.7728C29.4365 35.4135 29.9562 35.933 30.5973 35.933H30.8181C31.4592 35.933 31.9788 35.4135 31.9788 34.7728V24.9499C31.9788 24.3092 31.4592 23.7898 30.8181 23.7898Z" fill="#EF4343"/>
<path d="M37.5802 13.9926H23.9889L21.5899 18.7815C21.1082 19.7429 19.938 20.1321 18.9761 19.6508C18.0142 19.1694 17.6248 17.9998 18.1063 17.0384L19.6319 13.9927H2.14402C1.16697 13.9927 0.375 14.7843 0.375 15.7608V19.0344C0.375 20.011 1.16697 20.8025 2.14402 20.8025H37.5802C38.5572 20.8025 39.3492 20.011 39.3492 19.0344V15.7608C39.3492 14.7843 38.5572 13.9927 37.5802 13.9927V13.9926Z" fill="#D32427"/>
<path d="M18.9761 19.6507C19.938 20.1321 21.1084 19.7429 21.5899 18.7813L23.9889 13.9924L29.8662 2.25991C30.0976 1.79804 29.9106 1.23619 29.4485 1.0049L27.6382 0.0991079C27.1761 -0.13218 26.614 0.0547513 26.3826 0.516624L19.6321 13.9924L18.1065 17.0381C17.6248 17.9995 18.0142 19.1693 18.9763 19.6505L18.9761 19.6507ZM19.8621 16.4641C20.6114 16.4641 21.219 17.0712 21.219 17.8203C21.219 18.5694 20.6116 19.1765 19.8621 19.1765C19.1126 19.1765 18.5052 18.5694 18.5052 17.8203C18.5052 17.0712 19.1126 16.4641 19.8621 16.4641Z" fill="#1B1C1C"/>
<path d="M20.2562 19.1161C20.9735 18.899 21.3788 18.1419 21.1616 17.425C20.9443 16.7082 20.1868 16.303 19.4696 16.5201C18.7523 16.7373 18.347 17.4944 18.5642 18.2113C18.7815 18.9281 19.539 19.3333 20.2562 19.1161Z" fill="#4E4E4F"/>
</g>
<defs>
<clipPath id="clip0_76_2366">
<rect width="38.9744" height="40" fill="white" transform="translate(0.375)"/>
</clipPath>
</defs>
</svg>
