<svg width="41" height="40" viewBox="0 0 41 40" fill="none" xmlns="http://www.w3.org/2000/svg">
<path d="M8.29618 1.81818C7.4354 1.81818 6.73877 2.53228 6.73877 3.41466V36.8182C6.73877 37.7006 7.4354 38.4147 8.29618 38.4147H32.4541C33.3149 38.4147 34.0115 37.7006 34.0115 36.8182V9.22601L26.7849 1.81818H8.29618Z" fill="#548CEB"/>
<path d="M28.3061 9.0909H34.0115L26.7388 1.81818V7.52354C26.7388 8.38982 27.4399 9.0909 28.3061 9.0909Z" fill="#D6E3F5"/>
<path d="M12.1025 29.6654L17.2425 15.1454C17.6425 14.0254 18.7425 13.4854 19.8225 13.4854C20.8425 13.4854 21.9025 14.0654 22.2825 15.1454L27.5025 29.6654H23.1025L22.3225 27.1854H17.1825L16.4225 29.6654H12.1025ZM19.7625 18.8254L18.2225 23.8054H21.2825L19.7625 18.8254Z" fill="white"/>
<line opacity="0.3" x1="10.375" y1="15.8636" x2="30.375" y2="15.8636" stroke="white" stroke-dasharray="2 2"/>
<line opacity="0.3" x1="10.375" y1="24.0455" x2="30.375" y2="24.0455" stroke="white" stroke-dasharray="2 2"/>
<line x1="10.375" y1="32.2273" x2="30.375" y2="32.2273" stroke="white"/>
</svg>
