<svg width="60" height="60" viewBox="0 0 60 60" fill="none" xmlns="http://www.w3.org/2000/svg">
<rect x="6" y="6" width="47" height="53" rx="4" fill="#EAA03D"/>
<rect x="6" y="4" width="47" height="53" rx="3" fill="#FFBA62"/>
<rect x="9" y="8" width="41" height="47" rx="2" fill="white"/>
<g filter="url(#filter0_d_6644_10410)">
<rect x="9" y="7" width="41" height="47" rx="2" fill="white"/>
</g>
<g filter="url(#filter1_d_6644_10410)">
<rect x="9" y="7" width="41" height="46" rx="2" fill="white"/>
</g>
<path d="M18 23H31" stroke="#D2D2D2" stroke-width="5" stroke-miterlimit="10" stroke-linecap="round"/>
<path d="M18 35H31" stroke="#D2D2D2" stroke-width="5" stroke-miterlimit="10" stroke-linecap="round"/>
<path d="M18 44H41" stroke="#D2D2D2" stroke-width="5" stroke-miterlimit="10" stroke-linecap="round"/>
<path d="M25.5717 27.2349L25.8354 27.0527H25.7432C25.9032 26.8116 25.8835 26.5169 25.759 26.2987C25.6801 26.1603 25.5563 26.0466 25.4024 25.9952C25.246 25.9429 25.0677 25.9582 24.8908 26.0628L24.8908 26.0627L24.8876 26.0647C24.8218 26.107 24.7449 26.1539 24.6685 26.2005L24.6513 26.2109C22.831 27.2708 20.8433 28.139 18.8004 28.3645L18.7998 28.3646C16.7957 28.5991 14.959 27.9364 13.9506 25.9986C13.3377 24.4586 13.5242 23.0634 14.1589 21.8623C14.7962 20.6565 15.8871 19.6434 17.0823 18.8833L17.0823 18.8834L17.0839 18.8823C17.8798 18.3544 18.8233 17.9013 19.6742 17.5291C21.4763 16.891 23.4037 16.4604 25.2854 16.5513C26.3461 16.6167 27.1339 16.8918 27.6964 17.3123C28.2579 17.7322 28.6023 18.3025 28.7676 18.9731C29.0998 20.3203 28.7078 22.0704 27.8874 23.7763C27.362 24.8631 26.7018 25.8834 25.9983 26.8476L25.9983 26.8476L25.9968 26.8497C25.8832 27.0144 25.9318 27.1995 26.0414 27.3035C26.0962 27.3555 26.1701 27.3913 26.2518 27.3924C26.3357 27.3936 26.4175 27.358 26.4836 27.2859L26.4841 27.2853C27.5936 26.0544 28.5953 24.7011 29.2978 23.1274L29.2979 23.1271C30.0002 21.5414 30.4503 19.5136 29.7462 17.788L29.7462 17.788L29.7453 17.786C28.8771 15.7879 27.0423 15.0385 25.0399 14.918C23.0391 14.7976 20.85 15.3019 19.2267 15.8317L19.2266 15.8315L19.2201 15.8341C16.7408 16.8393 14.0255 18.3906 12.6535 21.0231L12.6534 21.0233C11.7322 22.799 11.6218 25.0791 12.511 26.9056L12.5109 26.9057L12.5128 26.9093C13.3629 28.4873 14.7981 29.6416 16.4666 29.9626C19.5573 30.5858 23.0369 28.9865 25.5717 27.2349ZM26.4098 27.2183C26.2156 27.4303 25.9154 27.1439 26.0791 26.9065L19.2577 15.9268C22.4942 14.8704 27.9591 13.9262 29.6536 17.8258C30.3423 19.5137 29.9048 21.5099 29.2065 23.0866C28.5097 24.6475 27.5152 25.9921 26.4098 27.2183Z" fill="#D84A35" stroke="#D84A35" stroke-width="0.2"/>
<path d="M25.5717 45.2349L25.8354 45.0527H25.7432C25.9032 44.8116 25.8835 44.5169 25.759 44.2987C25.6801 44.1603 25.5563 44.0466 25.4024 43.9952C25.246 43.9429 25.0677 43.9582 24.8908 44.0628L24.8908 44.0627L24.8876 44.0647C24.8218 44.107 24.7449 44.1539 24.6685 44.2005L24.6513 44.2109C22.831 45.2708 20.8433 46.139 18.8004 46.3645L18.7998 46.3646C16.7957 46.5991 14.959 45.9364 13.9506 43.9986C13.3377 42.4586 13.5242 41.0634 14.1589 39.8623C14.7962 38.6565 15.8871 37.6434 17.0823 36.8833L17.0823 36.8834L17.0839 36.8823C17.8798 36.3544 18.8233 35.9013 19.6742 35.5291C21.4763 34.891 23.4037 34.4604 25.2854 34.5513C26.3461 34.6167 27.1339 34.8918 27.6964 35.3123C28.2579 35.7322 28.6023 36.3025 28.7676 36.9731C29.0998 38.3203 28.7078 40.0704 27.8874 41.7763C27.362 42.8631 26.7018 43.8834 25.9983 44.8476L25.9983 44.8476L25.9968 44.8497C25.8832 45.0144 25.9318 45.1995 26.0414 45.3035C26.0962 45.3555 26.1701 45.3913 26.2518 45.3924C26.3357 45.3936 26.4175 45.358 26.4836 45.2859L26.4841 45.2853C27.5936 44.0544 28.5953 42.7011 29.2978 41.1274L29.2979 41.1271C30.0002 39.5414 30.4503 37.5136 29.7462 35.788L29.7462 35.788L29.7453 35.786C28.8771 33.7879 27.0423 33.0385 25.0399 32.918C23.0391 32.7976 20.85 33.3019 19.2267 33.8317L19.2266 33.8315L19.2201 33.8341C16.7408 34.8393 14.0255 36.3906 12.6535 39.0231L12.6534 39.0233C11.7322 40.799 11.6218 43.0791 12.511 44.9056L12.5109 44.9057L12.5128 44.9093C13.3629 46.4873 14.7981 47.6416 16.4666 47.9626C19.5573 48.5858 23.0369 46.9865 25.5717 45.2349ZM26.4098 45.2183C26.2156 45.4303 25.9154 45.1439 26.0791 44.9065L19.2577 33.9268C22.4942 32.8704 27.9591 31.9262 29.6536 35.8258C30.3423 37.5137 29.9048 39.5099 29.2065 41.0866C28.5097 42.6475 27.5152 43.9921 26.4098 45.2183Z" fill="#D84A35" stroke="#D84A35" stroke-width="0.2"/>
<g filter="url(#filter2_d_6644_10410)">
<path fill-rule="evenodd" clip-rule="evenodd" d="M32.3933 2.99993C32.2546 2.88465 32.1158 2.73897 31.9865 2.55485C31.7619 1.10765 30.5104 0 29.0002 0C27.4904 0 26.2391 1.10722 26.0141 2.554C25.8847 2.73852 25.7457 2.88447 25.6067 2.99993H24C22.3431 2.99993 21 4.34307 21 5.99993V7.99993C21 9.1045 21.8954 9.99993 23 9.99993H35C36.1046 9.99993 37 9.1045 37 7.99993V5.99993C37 4.34307 35.6569 2.99993 34 2.99993H32.3933Z" fill="#D9D9D9"/>
</g>
<circle cx="29.0002" cy="3.14084" r="0.888889" fill="white"/>
<path d="M21 8H37C37 9.10457 36.1046 10 35 10H23C21.8954 10 21 9.10457 21 8Z" fill="#D2D2D2"/>
<g filter="url(#filter3_d_6644_10410)">
<path d="M42.8714 53.7717L43.2165 54.3694C44.5854 56.7404 46.5687 56.9128 48.782 56.0964C49.5198 55.8242 50.2832 55.4421 51.0577 54.9949C51.0954 54.9732 51.1331 54.9514 51.1706 54.9293C54.2069 53.1534 56.2398 51.0142 54.4369 47.8916L45.6193 32.6191L42.2987 34.5363L48.7476 45.7062L40.848 50.2671L42.8714 53.7717Z" fill="#D84A35"/>
<path d="M42.8714 53.7717L43.2165 54.3694C44.5854 56.7404 46.5687 56.9128 48.782 56.0964C49.5198 55.8242 50.2832 55.4421 51.0577 54.9949C51.0954 54.9732 51.1331 54.9514 51.1706 54.9293L46.6518 50.715L45.8264 51.2227L37.7187 37.1798L34.3981 39.097L42.8714 53.7717Z" fill="#D84A35"/>
<path d="M51.0577 54.9949C52.3222 54.2649 52.9417 52.9697 51.1166 49.8085L42.2987 34.5363L37.7199 37.1795L46.5376 52.4522C48.3629 55.6132 49.7933 55.725 51.0577 54.9949Z" fill="#D84A35"/>
<path d="M34.3981 39.097L34.7353 32.2878L34.8755 29.4523C34.9098 28.7579 35.3885 28.2394 35.9817 28.0875C36.3136 28.0023 36.6817 28.0319 37.0279 28.2096L39.5536 29.5059L45.6193 32.6191L34.3981 39.097Z" fill="#D84A35"/>
<path d="M34.7353 32.2878L34.8755 29.4523C34.8767 29.4281 34.8794 29.404 34.8817 29.3801C34.885 29.3443 34.8897 29.309 34.8954 29.2743C34.9047 29.2164 34.9176 29.16 34.9333 29.1052C34.971 28.9736 35.0257 28.8512 35.0946 28.7398C35.1001 28.7307 35.1059 28.7215 35.1117 28.7125C35.1178 28.7034 35.124 28.6942 35.1303 28.6851C35.1364 28.6762 35.1426 28.6672 35.1488 28.6585C35.1494 28.6579 35.1498 28.6572 35.1503 28.6564C35.1562 28.6483 35.1621 28.6403 35.168 28.6322C35.1744 28.6236 35.1809 28.6154 35.1874 28.607C35.1886 28.6053 35.1899 28.6039 35.1911 28.6022C35.2032 28.5866 35.2159 28.5714 35.2288 28.5564C35.2427 28.54 35.257 28.5239 35.2717 28.5083C35.279 28.5004 35.2864 28.4929 35.294 28.4851C35.7224 28.0474 36.4106 27.8922 37.029 28.2095L39.5547 29.5059L34.7364 32.2877L34.7353 32.2878Z" fill="#D84A35"/>
<path d="M35.9817 28.0875C36.3136 28.0023 36.6817 28.0319 37.0279 28.2096L39.5536 29.5059L45.6193 32.6191L42.2987 34.5363L35.9817 28.0875Z" fill="#D84A35"/>
<path d="M35.2923 28.4849C35.0526 28.7298 34.8947 29.0637 34.8755 29.4523L34.7353 32.2878L34.3981 39.097L37.7187 37.1798L35.2923 28.4849Z" fill="#D84A35"/>
<path d="M34.7364 32.2877L34.8764 29.4518C34.8776 29.4276 34.8794 29.404 34.8817 29.3801C34.885 29.3443 34.8897 29.309 34.8954 29.2743C34.9047 29.2164 34.9176 29.16 34.9333 29.1052C34.971 28.9736 35.0257 28.8512 35.0946 28.7398C35.1001 28.7307 35.1059 28.7215 35.1117 28.7125C35.1178 28.7034 35.124 28.6942 35.1303 28.6851C35.1364 28.6762 35.1426 28.6672 35.1488 28.6585C35.1494 28.6579 35.1498 28.6572 35.1503 28.6564C35.1562 28.6483 35.1621 28.6403 35.168 28.6322C35.1744 28.6236 35.1809 28.6154 35.1874 28.607C35.1886 28.6053 35.1899 28.6039 35.1911 28.6022C35.2032 28.5866 35.2159 28.5714 35.2288 28.5564C35.2427 28.54 35.257 28.5239 35.2717 28.5083C35.279 28.5004 35.2864 28.4929 35.294 28.4851C35.4825 28.2924 35.7216 28.1539 35.9828 28.087C35.9895 28.0853 35.9962 28.0836 36.0031 28.0821C36.0098 28.0804 36.0162 28.079 36.0227 28.0774C36.0382 28.0739 36.0538 28.0705 36.0696 28.0678C36.0746 28.0669 36.0793 28.0658 36.0844 28.0651C36.0923 28.0635 36.1007 28.0621 36.1088 28.0608C36.1176 28.0594 36.1266 28.0579 36.1352 28.0566C36.1592 28.0531 36.1834 28.0501 36.2076 28.0479C36.2166 28.0472 36.2254 28.0462 36.2343 28.0458C36.2407 28.0452 36.2473 28.0446 36.254 28.0445C36.2635 28.0439 36.273 28.0433 36.2825 28.043C36.289 28.0426 36.2958 28.0424 36.3026 28.0421C36.3121 28.0418 36.3218 28.0416 36.3315 28.0417C36.3338 28.0415 36.3362 28.0416 36.3389 28.0416C36.3487 28.0415 36.3583 28.0416 36.3683 28.0417C36.3792 28.0418 36.3903 28.0423 36.4012 28.0426C36.4123 28.0431 36.4231 28.0434 36.4343 28.0441C36.4452 28.0447 36.4564 28.0456 36.4675 28.0465C36.4858 28.048 36.5045 28.0499 36.523 28.0523C36.5377 28.0541 36.5523 28.056 36.567 28.0585C36.578 28.0602 36.5889 28.062 36.6001 28.0639C36.6113 28.0658 36.6224 28.068 36.6334 28.0702C36.6445 28.0724 36.6555 28.0749 36.6667 28.0772C36.6889 28.0823 36.7112 28.0876 36.7331 28.0939C36.744 28.0969 36.7551 28.1 36.7662 28.1034C36.7772 28.1066 36.7883 28.11 36.7994 28.1137L36.8005 28.114C36.8111 28.1175 36.8219 28.1211 36.8325 28.125C36.8431 28.1287 36.8539 28.1325 36.8644 28.1365L36.8694 28.1385C36.8791 28.1423 36.8887 28.146 36.8983 28.1498C36.9093 28.1543 36.9203 28.1587 36.9312 28.1634C36.9408 28.1675 36.9501 28.1717 36.9596 28.176C36.9635 28.1777 36.9672 28.1795 36.971 28.1812C36.9792 28.185 36.9875 28.1889 36.9956 28.193L36.9971 28.1939C37.0077 28.199 37.0184 28.2041 37.029 28.2095L39.5547 29.5059L34.7364 32.2877Z" fill="#D84A35"/>
<path d="M34.7364 32.2877L34.8764 29.4518C34.8776 29.4276 34.8794 29.404 34.8817 29.3801C34.885 29.3443 34.8897 29.309 34.8954 29.2743C34.9047 29.2164 34.9176 29.16 34.9333 29.1052C34.971 28.9736 35.0257 28.8512 35.0946 28.7398C35.1001 28.7307 35.1059 28.7215 35.1117 28.7125C35.1178 28.7034 35.124 28.6942 35.1303 28.6851C35.1364 28.6762 35.1426 28.6672 35.1488 28.6585C35.1494 28.6579 35.1498 28.6572 35.1503 28.6564C35.1562 28.6483 35.1621 28.6403 35.168 28.6322C35.1744 28.6236 35.1809 28.6154 35.1874 28.607C35.1886 28.6053 35.1899 28.6039 35.1911 28.6022C35.2032 28.5866 35.2159 28.5714 35.2288 28.5564C35.2427 28.54 35.257 28.5239 35.2717 28.5083C35.279 28.5004 35.2864 28.4929 35.294 28.4851L36.1302 31.4829L34.7364 32.2877Z" fill="#D84A35"/>
<path d="M35.9808 28.087C35.9876 28.0853 35.9943 28.0836 36.0011 28.0821C36.0078 28.0804 36.0142 28.079 36.0207 28.0774C36.0362 28.0739 36.0519 28.0705 36.0676 28.0678C36.0726 28.0669 36.0773 28.0658 36.0824 28.0651C36.0904 28.0635 36.0987 28.0621 36.1069 28.0608C36.1157 28.0594 36.1247 28.0579 36.1333 28.0566C36.1572 28.0531 36.1815 28.0501 36.2057 28.0479C36.2146 28.0472 36.2235 28.0462 36.2323 28.0458C36.2388 28.0452 36.2454 28.0446 36.252 28.0445C36.2615 28.0439 36.2711 28.0433 36.2805 28.043C36.287 28.0426 36.2939 28.0424 36.3007 28.0421C36.3101 28.0418 36.3199 28.0416 36.3295 28.0417C36.3318 28.0415 36.3343 28.0416 36.3369 28.0416C36.3467 28.0415 36.3564 28.0416 36.3663 28.0417C36.3772 28.0418 36.3883 28.0423 36.3993 28.0426C36.4104 28.0431 36.4212 28.0434 36.4324 28.0441C36.4433 28.0447 36.4544 28.0456 36.4655 28.0465C36.4839 28.048 36.5026 28.0499 36.521 28.0523C36.5358 28.0541 36.5503 28.056 36.565 28.0585C36.5761 28.0602 36.587 28.062 36.5982 28.0639C36.6094 28.0658 36.6205 28.068 36.6314 28.0702C36.6425 28.0724 36.6535 28.0749 36.6648 28.0772C36.6869 28.0823 36.7092 28.0876 36.7311 28.0939C36.742 28.0969 36.7532 28.1 36.7643 28.1034C36.7753 28.1066 36.7864 28.11 36.7974 28.1137C36.7979 28.1137 36.7991 28.1137 36.7994 28.1137C36.81 28.1172 36.8199 28.1211 36.8306 28.125C36.8411 28.1287 36.852 28.1325 36.8625 28.1365C36.8642 28.137 36.8658 28.1377 36.8675 28.1385C36.8771 28.1423 36.8867 28.146 36.8964 28.1498C36.9074 28.1543 36.9183 28.1587 36.9292 28.1634C36.9388 28.1675 36.9482 28.1717 36.9577 28.176C36.9615 28.1777 36.9652 28.1795 36.9691 28.1812C36.9773 28.185 36.9855 28.1889 36.9937 28.193C36.9942 28.1931 36.9951 28.1925 36.9956 28.193C37.0063 28.1981 37.0173 28.2042 37.0279 28.2096L39.5536 29.5059L38.1586 30.3107L35.9808 28.087Z" fill="#D84A35"/>
</g>
<g clip-path="url(#clip0_6644_10410)">
<path d="M42.8714 53.7717L43.2165 54.3694C44.5854 56.7404 46.5687 56.9128 48.782 56.0964C49.5198 55.8242 50.2832 55.4421 51.0577 54.9949C51.0954 54.9732 51.1331 54.9514 51.1706 54.9293C54.2069 53.1534 56.2398 51.0142 54.4369 47.8916L53.2031 45.7545L52.0684 43.7892L45.6193 32.6191L42.2987 34.5363L48.7476 45.7062L40.848 50.2671L42.8714 53.7717Z" fill="#D84A35"/>
<path d="M42.8705 53.7717L43.2156 54.3694C44.5845 56.7404 46.5678 56.9128 48.7811 56.0964C49.5189 55.8243 50.2824 55.4421 51.0569 54.995C51.0945 54.9732 51.1322 54.9514 51.1697 54.9293L46.6518 50.715L45.8264 51.2227L37.7187 37.1798L34.3981 39.097L42.8705 53.7717Z" fill="#B33522"/>
<path d="M51.0583 54.9946C52.3227 54.2646 52.9417 52.9697 51.1166 49.8085L49.8826 47.6713L42.2989 34.5359L37.7199 37.1795L46.5376 52.4522C48.3629 55.6132 49.7938 55.7247 51.0583 54.9946Z" fill="#C03A26"/>
<path d="M34.3988 39.0972L34.7353 32.2878L34.8755 29.4523C34.9098 28.7579 35.3885 28.2394 35.9817 28.0875C36.3136 28.0023 36.6817 28.0319 37.0279 28.2096L39.5536 29.5059L45.6191 32.6191L34.399 39.0971L34.3988 39.0972Z" fill="#FFDDBF"/>
<path d="M34.7362 32.2878L34.8765 29.4523C34.8776 29.4281 34.8794 29.404 34.8817 29.3801C34.885 29.3443 34.8897 29.309 34.8954 29.2743C34.9047 29.2164 34.9176 29.16 34.9333 29.1052C34.971 28.9736 35.0257 28.8512 35.0946 28.7398C35.1001 28.7307 35.1059 28.7215 35.1117 28.7125C35.1117 28.7125 35.1119 28.7124 35.1121 28.7123C35.1181 28.7032 35.124 28.6942 35.1303 28.6851C35.1364 28.6762 35.1426 28.6672 35.1488 28.6585C35.1494 28.6579 35.1498 28.6572 35.1503 28.6564C35.1562 28.6483 35.1621 28.6403 35.168 28.6322C35.1744 28.6236 35.1809 28.6154 35.1874 28.607C35.1886 28.6053 35.1899 28.6039 35.1911 28.6022C35.2032 28.5866 35.2159 28.5714 35.2288 28.5564C35.2427 28.54 35.257 28.5239 35.2717 28.5083C35.279 28.5004 35.2864 28.4929 35.294 28.4851C35.7224 28.0474 36.4106 27.8922 37.029 28.2095L39.5547 29.5059L34.7364 32.2877L34.7362 32.2878Z" fill="#69707C"/>
<path d="M35.9816 28.0873C36.3135 28.0022 36.6816 28.0317 37.0278 28.2094L39.5535 29.5058L45.6191 32.6191L42.2985 34.5363L35.9816 28.0873Z" fill="#FFF2E9"/>
<path d="M35.2923 28.4849C35.0526 28.7298 34.8941 29.0633 34.8749 29.452L34.7347 32.2874L34.3982 39.0969L37.7189 37.1797L35.2923 28.4846L35.2923 28.4849Z" fill="#CDAB92"/>
<path d="M34.7362 32.2873L34.8764 29.4518C34.8776 29.4276 34.8793 29.4035 34.8816 29.3796C34.885 29.3438 34.8896 29.3085 34.8953 29.2739C34.9047 29.216 34.9175 29.1595 34.9333 29.1048C34.971 28.9731 35.0257 28.8508 35.0945 28.7394C35.1001 28.7303 35.1058 28.7211 35.1117 28.712C35.1177 28.7029 35.1239 28.6937 35.1303 28.6846C35.1364 28.6757 35.1425 28.6668 35.1488 28.658L35.1502 28.6559C35.1562 28.6479 35.1621 28.6398 35.168 28.6317C35.1743 28.6231 35.1809 28.6149 35.1874 28.6065C35.1886 28.6049 35.1899 28.6034 35.1911 28.6017C35.2032 28.5861 35.2159 28.571 35.2288 28.5559C35.2427 28.5395 35.2569 28.5234 35.2717 28.5078C35.279 28.4999 35.2864 28.4924 35.2939 28.4847C35.4825 28.2919 35.7216 28.1539 35.9828 28.087C35.9895 28.0853 35.9962 28.0836 36.0031 28.0821C36.0098 28.0804 36.0162 28.079 36.0227 28.0774C36.0382 28.0739 36.0538 28.0705 36.0696 28.0678C36.0746 28.0669 36.0793 28.0658 36.0844 28.0651C36.0923 28.0635 36.1007 28.0621 36.1088 28.0608C36.1176 28.0594 36.1266 28.0579 36.1352 28.0566C36.1592 28.0531 36.1834 28.0501 36.2076 28.0479C36.2166 28.0472 36.2254 28.0462 36.2343 28.0458C36.2407 28.0452 36.2473 28.0446 36.254 28.0445C36.2635 28.0439 36.273 28.0433 36.2825 28.043C36.289 28.0426 36.2958 28.0424 36.3026 28.0421C36.3121 28.0418 36.3218 28.0416 36.3315 28.0417C36.3338 28.0415 36.3362 28.0416 36.3389 28.0416C36.3487 28.0415 36.3584 28.0416 36.3683 28.0417C36.3792 28.0418 36.3903 28.0423 36.4012 28.0426C36.4123 28.0431 36.4231 28.0434 36.4343 28.0441C36.4452 28.0447 36.4564 28.0456 36.4675 28.0465C36.4858 28.048 36.5045 28.0499 36.523 28.0523C36.5377 28.0541 36.5523 28.056 36.567 28.0585C36.578 28.0602 36.5889 28.062 36.6001 28.0639C36.6113 28.0658 36.6224 28.068 36.6334 28.0702C36.6445 28.0724 36.6555 28.0749 36.6667 28.0772C36.6889 28.0823 36.7112 28.0876 36.7331 28.0939C36.744 28.0969 36.7551 28.1 36.7662 28.1034C36.7772 28.1066 36.7883 28.11 36.7994 28.1137L36.8005 28.1141C36.8111 28.1175 36.8219 28.1211 36.8325 28.125C36.8431 28.1287 36.8539 28.1325 36.8644 28.1365L36.8694 28.1385C36.8791 28.1423 36.8887 28.146 36.8983 28.1498C36.9093 28.1543 36.9203 28.1587 36.9312 28.1634C36.9408 28.1675 36.9501 28.1717 36.9596 28.176C36.9635 28.1777 36.9672 28.1795 36.971 28.1812C36.9792 28.185 36.9875 28.1889 36.9956 28.193L36.9971 28.1939C37.0077 28.199 37.0184 28.2041 37.029 28.2095L39.5547 29.5059L34.7362 32.2873Z" fill="#C03A26"/>
<path d="M34.7358 32.2877L34.876 29.4522C34.8772 29.428 34.8791 29.4038 34.8812 29.38C34.8846 29.3442 34.8892 29.3089 34.8949 29.2742C34.9046 29.2164 34.9173 29.1597 34.9329 29.1051C34.9706 28.9735 35.0252 28.8511 35.0941 28.7397C35.0997 28.7306 35.1054 28.7214 35.1113 28.7124C35.1113 28.7124 35.1114 28.7123 35.1116 28.7122C35.1177 28.7031 35.1235 28.6941 35.1298 28.685C35.136 28.6761 35.1421 28.6671 35.1484 28.6584C35.149 28.6578 35.1493 28.6571 35.1498 28.6563C35.1557 28.6482 35.1616 28.6402 35.1676 28.6321C35.1739 28.6235 35.1805 28.6153 35.1869 28.6069C35.1881 28.6052 35.1894 28.6038 35.1906 28.6021C35.2029 28.5867 35.2154 28.5713 35.2284 28.5563C35.2423 28.5401 35.2566 28.524 35.2713 28.5082C35.2785 28.5003 35.286 28.4928 35.2935 28.485L36.1302 31.4829L34.7361 32.2878L34.7358 32.2877Z" fill="#B33522"/>
<path d="M35.9808 28.087C35.9876 28.0853 35.9943 28.0836 36.0011 28.0821C36.0078 28.0804 36.0142 28.079 36.0208 28.0774C36.0363 28.0739 36.0519 28.0705 36.0676 28.0678C36.0726 28.0669 36.0773 28.0658 36.0824 28.0651C36.0904 28.0635 36.0987 28.0621 36.1069 28.0608C36.1157 28.0594 36.1247 28.0579 36.1333 28.0566C36.1572 28.0531 36.1815 28.0501 36.2057 28.0479C36.2146 28.0472 36.2235 28.0462 36.2323 28.0458C36.2388 28.0452 36.2454 28.0446 36.252 28.0445C36.2615 28.0439 36.2711 28.0433 36.2805 28.043C36.287 28.0426 36.2939 28.0424 36.3007 28.0421C36.3101 28.0418 36.3199 28.0416 36.3295 28.0417C36.3318 28.0415 36.3343 28.0416 36.3369 28.0416C36.3467 28.0415 36.3564 28.0416 36.3663 28.0417C36.3772 28.0418 36.3883 28.0423 36.3993 28.0426C36.4104 28.0431 36.4212 28.0434 36.4324 28.0441C36.4433 28.0447 36.4544 28.0456 36.4655 28.0465C36.4839 28.048 36.5026 28.0499 36.521 28.0523C36.5358 28.0541 36.5503 28.056 36.565 28.0585C36.5761 28.0602 36.587 28.062 36.5982 28.0639C36.6094 28.0658 36.6205 28.068 36.6314 28.0702C36.6425 28.0724 36.6535 28.0749 36.6648 28.0772C36.6869 28.0823 36.7092 28.0876 36.7311 28.0939C36.742 28.0969 36.7532 28.1 36.7643 28.1034C36.7753 28.1066 36.7864 28.11 36.7974 28.1137C36.7979 28.1137 36.7983 28.114 36.7985 28.1141C36.8092 28.1175 36.8199 28.1211 36.8306 28.125C36.8411 28.1287 36.852 28.1325 36.8625 28.1365C36.8642 28.137 36.8658 28.1377 36.8675 28.1385C36.8771 28.1423 36.8867 28.146 36.8964 28.1498C36.9074 28.1543 36.9183 28.1587 36.9293 28.1634C36.9388 28.1675 36.9482 28.1717 36.9577 28.176C36.9615 28.1777 36.9652 28.1795 36.9691 28.1812C36.9773 28.185 36.9855 28.1889 36.9937 28.193C36.9942 28.1931 36.9946 28.1934 36.9951 28.1939C37.0058 28.199 37.0164 28.2041 37.027 28.2095L39.5527 29.5059L38.1586 30.3107L35.9808 28.0873L35.9808 28.087Z" fill="#D84A35"/>
</g>
<defs>
<filter id="filter0_d_6644_10410" x="8" y="7" width="43" height="49" filterUnits="userSpaceOnUse" color-interpolation-filters="sRGB">
<feFlood flood-opacity="0" result="BackgroundImageFix"/>
<feColorMatrix in="SourceAlpha" type="matrix" values="0 0 0 0 0 0 0 0 0 0 0 0 0 0 0 0 0 0 127 0" result="hardAlpha"/>
<feOffset dy="1"/>
<feGaussianBlur stdDeviation="0.5"/>
<feComposite in2="hardAlpha" operator="out"/>
<feColorMatrix type="matrix" values="0 0 0 0 0 0 0 0 0 0 0 0 0 0 0 0 0 0 0.25 0"/>
<feBlend mode="normal" in2="BackgroundImageFix" result="effect1_dropShadow_6644_10410"/>
<feBlend mode="normal" in="SourceGraphic" in2="effect1_dropShadow_6644_10410" result="shape"/>
</filter>
<filter id="filter1_d_6644_10410" x="8" y="7" width="43" height="48" filterUnits="userSpaceOnUse" color-interpolation-filters="sRGB">
<feFlood flood-opacity="0" result="BackgroundImageFix"/>
<feColorMatrix in="SourceAlpha" type="matrix" values="0 0 0 0 0 0 0 0 0 0 0 0 0 0 0 0 0 0 127 0" result="hardAlpha"/>
<feOffset dy="1"/>
<feGaussianBlur stdDeviation="0.5"/>
<feComposite in2="hardAlpha" operator="out"/>
<feColorMatrix type="matrix" values="0 0 0 0 0 0 0 0 0 0 0 0 0 0 0 0 0 0 0.25 0"/>
<feBlend mode="normal" in2="BackgroundImageFix" result="effect1_dropShadow_6644_10410"/>
<feBlend mode="normal" in="SourceGraphic" in2="effect1_dropShadow_6644_10410" result="shape"/>
</filter>
<filter id="filter2_d_6644_10410" x="20.8" y="0" width="16.4" height="10.4" filterUnits="userSpaceOnUse" color-interpolation-filters="sRGB">
<feFlood flood-opacity="0" result="BackgroundImageFix"/>
<feColorMatrix in="SourceAlpha" type="matrix" values="0 0 0 0 0 0 0 0 0 0 0 0 0 0 0 0 0 0 127 0" result="hardAlpha"/>
<feOffset dy="0.2"/>
<feGaussianBlur stdDeviation="0.1"/>
<feComposite in2="hardAlpha" operator="out"/>
<feColorMatrix type="matrix" values="0 0 0 0 0 0 0 0 0 0 0 0 0 0 0 0 0 0 0.25 0"/>
<feBlend mode="normal" in2="BackgroundImageFix" result="effect1_dropShadow_6644_10410"/>
<feBlend mode="normal" in="SourceGraphic" in2="effect1_dropShadow_6644_10410" result="shape"/>
</filter>
<filter id="filter3_d_6644_10410" x="33.3984" y="28.042" width="22.7168" height="30.4971" filterUnits="userSpaceOnUse" color-interpolation-filters="sRGB">
<feFlood flood-opacity="0" result="BackgroundImageFix"/>
<feColorMatrix in="SourceAlpha" type="matrix" values="0 0 0 0 0 0 0 0 0 0 0 0 0 0 0 0 0 0 127 0" result="hardAlpha"/>
<feOffset dy="1"/>
<feGaussianBlur stdDeviation="0.5"/>
<feComposite in2="hardAlpha" operator="out"/>
<feColorMatrix type="matrix" values="0 0 0 0 0 0 0 0 0 0 0 0 0 0 0 0 0 0 0.25 0"/>
<feBlend mode="normal" in2="BackgroundImageFix" result="effect1_dropShadow_6644_10410"/>
<feBlend mode="normal" in="SourceGraphic" in2="effect1_dropShadow_6644_10410" result="shape"/>
</filter>
<clipPath id="clip0_6644_10410">
<rect width="12.9561" height="30.8953" fill="white" transform="translate(56.668 51.7559) rotate(150)"/>
</clipPath>
</defs>
</svg>
