<svg width="60" height="60" viewBox="0 0 60 60" fill="none" xmlns="http://www.w3.org/2000/svg">
<g clip-path="url(#clip0_6651_10294)">
<path d="M46.8445 58.5712H13.2662C11.6139 58.5712 9.08008 53.8572 9.08008 55.3089V12.7196C9.08008 11.0674 10.4209 9.72656 12.0731 9.72656H46.6914C48.3437 9.72656 49.6845 11.0674 49.6845 12.7196L49.8376 55.425C49.8376 57.0773 48.4968 58.5712 46.8445 58.5712Z" fill="#00D3FF"/>
<path d="M10.0195 53.8373C10.0195 55.1834 11.1122 56.2761 12.4583 56.2761H45.5141C46.5171 56.2761 47.33 55.4632 47.33 54.4602V53.8373C47.33 53.8373 47.33 53.832 47.3247 53.832H10.0301C10.0301 53.832 10.0248 53.832 10.0248 53.8373H10.0195Z" fill="#F4F4F4"/>
<path d="M12.4536 49.6455C11.1128 49.6455 10.0254 50.7329 10.0254 52.0738V53.8633H47.3253V49.6455H12.4536Z" fill="#E5E5E5"/>
<path d="M47.8901 2.65372H12.0683C10.416 2.65372 9.0805 3.98925 9.0805 5.64151V52.8972C9.06466 53.0503 9.04883 53.1981 9.04883 53.3512V54.4544C9.04883 56.434 10.6589 58.5719 12.6384 58.5719H45.578V56.3179H13.6942C12.3745 56.3179 11.3029 55.7741 11.3029 54.4544V53.3512C11.3029 52.0843 12.2953 51.5353 13.5411 51.493H47.8901C49.5424 51.493 50.8832 50.1522 50.8832 48.5V5.64151C50.8832 3.98925 49.5424 2.64844 47.8901 2.64844V2.65372Z" fill="#00D3FF"/>
<path d="M47.5896 1.42871H13.7051V49.1753H47.5896C49.2419 49.1753 50.8836 47.8345 50.8836 46.1823V4.42178C50.8836 2.76952 49.2419 1.42871 47.5896 1.42871Z" fill="#00D3FF"/>
<path d="M12.1005 1.42871C10.4482 1.42871 9.10742 2.76952 9.10742 4.42178V52.2106C9.10742 50.759 10.4482 49.2176 12.1005 49.2176H14.0378V1.42871H12.1005V1.42871Z" fill="#00B4DC"/>
<path d="M44.2736 11.2002H20.0176V13.8132H44.2736V11.2002Z" fill="white"/>
<path d="M44.2736 16.7695H20.0176V19.3825H44.2736V16.7695Z" fill="white"/>
</g>
<path d="M44.2799 30.013C43.6008 30.0835 42.9217 30.154 42.243 30.2252C41.5339 30.2994 40.8323 30.4037 40.1469 30.5906C39.5676 30.7486 39.1531 31.0781 38.8493 31.5295C38.4857 32.0689 38.3225 32.6684 38.2232 33.2808C38.0955 34.0673 37.9895 34.8563 37.8738 35.6442C37.8705 35.6683 37.8638 35.6921 37.8434 35.7147C37.7933 35.2569 37.7436 34.7992 37.6931 34.3414C37.6163 33.6451 37.5019 32.9548 37.2882 32.2792C37.0124 31.406 36.3712 30.8625 35.4096 30.5884C34.7497 30.4003 34.0702 30.3068 33.3878 30.2263C32.763 30.1529 32.1365 30.0898 31.5108 30.0223C31.4828 30.0193 31.4549 30.0145 31.4277 29.9986C31.9516 29.9522 32.4758 29.9099 32.9988 29.8587C33.8143 29.7786 34.6328 29.7033 35.4142 29.4629C35.9668 29.293 36.4698 29.0467 36.8312 28.6208C37.0495 28.3634 37.158 28.0595 37.2549 27.7546C37.4961 26.9953 37.5871 26.2125 37.6923 25.4324C37.744 25.0503 37.7924 24.6682 37.8659 24.2861C37.9256 24.7428 37.9832 25.1994 38.045 25.6557C38.1552 26.4659 38.2428 27.2798 38.5508 28.057C38.7595 28.5833 39.0747 29.0304 39.6911 29.2459C39.9499 29.336 40.2074 29.4447 40.4775 29.4907C41.2392 29.6202 42.006 29.7292 42.7731 29.8316C43.2748 29.8988 43.7807 29.9403 44.2849 29.9934C44.2832 30 44.282 30.0071 44.2803 30.0138L44.2799 30.013Z" fill="#F8C300"/>
<path d="M47.1415 35.005C46.9151 35.0314 46.6887 35.0579 46.4625 35.0846C46.2261 35.1124 45.9923 35.1515 45.7638 35.2216C45.5707 35.2809 45.4326 35.4044 45.3313 35.5737C45.2101 35.776 45.1557 36.0008 45.1226 36.2304C45.08 36.5253 45.0447 36.8212 45.0061 37.1167C45.005 37.1257 45.0028 37.1347 44.996 37.1431C44.9793 36.9715 44.9627 36.7998 44.9459 36.6281C44.9203 36.367 44.8822 36.1082 44.8109 35.8548C44.719 35.5274 44.5053 35.3236 44.1847 35.2208C43.9647 35.1502 43.7382 35.1152 43.5108 35.085C43.3025 35.0575 43.0937 35.0338 42.8851 35.0085C42.8758 35.0074 42.8665 35.0056 42.8574 34.9996C43.032 34.9822 43.2068 34.9663 43.3811 34.9471C43.653 34.9171 43.9258 34.8889 44.1862 34.7987C44.3704 34.735 44.5381 34.6426 44.6586 34.4829C44.7313 34.3864 44.7675 34.2725 44.7998 34.1581C44.8802 33.8733 44.9105 33.5798 44.9456 33.2873C44.9629 33.144 44.979 33.0007 45.0035 32.8574C45.0234 33.0287 45.0426 33.1999 45.0632 33.371C45.0999 33.6748 45.1291 33.98 45.2318 34.2715C45.3014 34.4689 45.4064 34.6365 45.6119 34.7173C45.6981 34.7511 45.784 34.7919 45.874 34.8091C46.1279 34.8577 46.3835 34.8986 46.6392 34.937C46.8064 34.9622 46.9751 34.9777 47.1431 34.9976C47.1426 35.0001 47.1422 35.0028 47.1416 35.0053L47.1415 35.005Z" fill="#F8C300"/>
<path d="M5.60938 33.0195H31.5453C32.6499 33.0195 33.5453 33.915 33.5453 35.0195V42.3324C33.5453 43.437 32.6499 44.3324 31.5453 44.3324H5.60938V33.0195Z" fill="#D9D9D9"/>
<path d="M5.60938 33.0195H31.5453C32.6499 33.0195 33.5453 33.915 33.5453 35.0195V42.3324C33.5453 43.437 32.6499 44.3324 31.5453 44.3324H5.60938V33.0195Z" fill="url(#paint0_linear_6651_10294)"/>
<path d="M15.583 41.6424C15.4131 41.6885 15.2027 41.7116 14.968 41.7116C14.7333 41.7116 14.4986 41.6808 14.2882 41.6117C14.0778 41.5425 13.8997 41.3811 13.7622 41.1199L12.7991 39.2602C12.702 39.0681 12.613 38.8913 12.5402 38.7223C12.4592 38.5532 12.3783 38.3611 12.2893 38.1382L12.2246 38.1536C12.2569 38.5378 12.2731 38.899 12.2812 39.2294C12.2812 39.5599 12.2812 39.875 12.2812 40.1747V41.6424C12.2084 41.6578 12.1032 41.6732 11.9575 41.6885C11.8118 41.7039 11.6662 41.7193 11.5205 41.7193C11.1887 41.7193 10.9621 41.6655 10.8326 41.5579C10.7031 41.4503 10.6465 41.2582 10.6465 40.9815V36.34C10.7355 36.2171 10.8731 36.1249 11.0673 36.0634C11.2615 36.0019 11.4558 35.9712 11.6662 35.9712C11.9089 35.9712 12.1355 36.0096 12.354 36.0788C12.5725 36.1479 12.7425 36.3093 12.872 36.5629L13.8431 38.4226C13.9402 38.6147 14.0292 38.7914 14.1021 38.9605C14.183 39.1296 14.2639 39.3217 14.3529 39.5445H14.3934C14.3691 39.2371 14.3529 38.9605 14.3529 38.6992C14.3529 38.4379 14.3529 38.1843 14.3529 37.9461V36.0173C14.4258 36.0019 14.531 35.9865 14.6766 35.9712C14.8223 35.9558 14.968 35.9404 15.1136 35.9404C15.4454 35.9404 15.672 35.9942 15.8015 36.1018C15.931 36.2094 15.9877 36.4015 15.9877 36.6782V41.4349C15.8986 41.5195 15.7692 41.5886 15.5911 41.6347L15.583 41.6424Z" fill="#BC1D1D"/>
<path d="M18.529 40.0129C18.618 40.2357 18.7718 40.3894 18.9822 40.4816C19.1926 40.5739 19.4354 40.6123 19.7024 40.6123C19.9695 40.6123 20.2365 40.5815 20.4793 40.5124C20.7221 40.4509 20.9244 40.3741 21.0701 40.2895C21.1753 40.351 21.2643 40.4355 21.329 40.5508C21.4019 40.6584 21.4342 40.7813 21.4342 40.9043C21.4342 41.058 21.3857 41.1886 21.2967 41.3039C21.2076 41.4115 21.0782 41.5037 20.9163 41.5805C20.7545 41.6574 20.5521 41.7112 20.3255 41.7419C20.099 41.7727 19.8481 41.7957 19.581 41.7957C19.2007 41.7957 18.8446 41.7419 18.5209 41.642C18.1972 41.5421 17.9139 41.3884 17.6711 41.1886C17.4284 40.9888 17.2422 40.7276 17.1047 40.4202C16.9671 40.1128 16.9023 39.7516 16.9023 39.3443C16.9023 38.937 16.9752 38.5912 17.1128 38.2992C17.2503 38.0072 17.4365 37.769 17.6631 37.5769C17.8896 37.3924 18.1567 37.2541 18.448 37.1619C18.7394 37.0697 19.0388 37.0312 19.3382 37.0312C19.6781 37.0312 19.9937 37.0774 20.277 37.1773C20.5602 37.2772 20.803 37.4078 21.0053 37.5845C21.2077 37.7613 21.3695 37.9611 21.4747 38.1993C21.588 38.4375 21.6366 38.6988 21.6366 38.9831C21.6366 39.1906 21.5718 39.352 21.4504 39.4596C21.329 39.5672 21.1591 39.644 20.9325 39.6748L18.5128 40.0283L18.529 40.0129ZM19.3544 38.1609C19.1116 38.1609 18.9012 38.2301 18.7394 38.3761C18.5775 38.5144 18.4723 38.7142 18.44 38.9755L20.0909 38.7142C20.0909 38.6527 20.0666 38.5912 20.0342 38.5221C20.0018 38.4529 19.9533 38.3991 19.8966 38.3453C19.84 38.2915 19.7672 38.2454 19.67 38.2147C19.581 38.1839 19.4758 38.1609 19.3463 38.1609H19.3544Z" fill="#BC1D1D"/>
<path d="M25.82 39.1219C25.7714 39.337 25.7229 39.5599 25.6581 39.7904C25.5934 40.021 25.5287 40.2438 25.4558 40.4513C25.383 40.6588 25.3263 40.8586 25.2697 41.043C25.213 41.2274 25.1645 41.3734 25.1321 41.481C25.0431 41.5579 24.9217 41.6117 24.7599 41.6578C24.6061 41.7039 24.42 41.7269 24.2096 41.7269C23.9425 41.7269 23.7159 41.6885 23.5217 41.6194C23.3275 41.5502 23.198 41.4503 23.1332 41.3197C23.0847 41.2198 23.0361 41.0814 22.9795 40.9047C22.9228 40.7279 22.8581 40.5281 22.8014 40.2976C22.7367 40.0747 22.68 39.8288 22.6153 39.5752C22.5506 39.3217 22.4939 39.0604 22.4373 38.7991C22.3806 38.5378 22.3321 38.2919 22.2835 38.046C22.2349 37.8001 22.1945 37.5772 22.1621 37.3774C22.2511 37.2929 22.3725 37.2161 22.5263 37.1546C22.68 37.0931 22.8419 37.0547 23.028 37.0547C23.2546 37.0547 23.4408 37.1008 23.5864 37.2007C23.7321 37.2929 23.8211 37.462 23.8535 37.6925C23.9182 38.1613 23.9749 38.5455 24.0153 38.8529C24.0639 39.1603 24.0963 39.4062 24.1286 39.5983C24.161 39.7904 24.1772 39.9364 24.1934 40.044C24.2096 40.1516 24.2257 40.2284 24.2338 40.2899H24.2743C24.2905 40.19 24.3309 40.0517 24.3795 39.8596C24.4281 39.6675 24.4847 39.46 24.5494 39.2218C24.6142 38.9835 24.6789 38.7223 24.7518 38.4456C24.8246 38.169 24.8974 37.8846 24.9622 37.608C25.0917 37.5388 25.2211 37.485 25.3425 37.4543C25.472 37.4159 25.6258 37.4005 25.8119 37.4005C26.0385 37.4005 26.2327 37.4312 26.3946 37.5004C26.5564 37.5696 26.6616 37.6695 26.7021 37.8155C26.783 38.0844 26.8559 38.3457 26.9287 38.607C27.0015 38.8606 27.0663 39.0988 27.1229 39.314C27.1796 39.5291 27.2362 39.7289 27.2767 39.898C27.3252 40.0671 27.3576 40.1977 27.3738 40.2976H27.4224C27.4952 39.8212 27.5599 39.3293 27.6328 38.8222C27.7056 38.315 27.7622 37.7924 27.8189 37.2622C27.9322 37.193 28.0617 37.1469 28.1912 37.1162C28.3206 37.0854 28.4501 37.0701 28.5796 37.0701C28.8062 37.0701 28.9923 37.1162 29.1461 37.2084C29.2918 37.3006 29.3727 37.462 29.3727 37.6848C29.3727 37.7847 29.3565 37.9307 29.3241 38.1229C29.2918 38.315 29.2513 38.5378 29.1946 38.7837C29.1461 39.0296 29.0814 39.2909 29.0166 39.5599C28.9519 39.8288 28.879 40.0901 28.8143 40.336C28.7496 40.5819 28.6848 40.8125 28.6201 41.0123C28.5553 41.2121 28.5068 41.3734 28.4582 41.481C28.3692 41.5579 28.2316 41.6117 28.0374 41.6578C27.8513 41.7039 27.6489 41.7269 27.4385 41.7269C26.8963 41.7269 26.5726 41.5963 26.4755 41.3427C26.435 41.2351 26.3865 41.0891 26.3298 40.9201C26.2732 40.751 26.2084 40.5666 26.1437 40.3744C26.079 40.1746 26.0142 39.9672 25.9576 39.752C25.9009 39.5368 25.8524 39.3217 25.8119 39.1219H25.82Z" fill="#BC1D1D"/>
<path d="M15.4346 41.3827C15.2646 41.4288 15.0542 41.4518 14.8195 41.4518C14.5849 41.4518 14.3502 41.4211 14.1398 41.3519C13.9293 41.2828 13.7513 41.1214 13.6137 40.8601L12.6507 39.0004C12.5536 38.8083 12.4646 38.6316 12.3917 38.4625C12.3108 38.2934 12.2299 38.1013 12.1409 37.8785L12.0761 37.8938C12.1085 38.2781 12.1247 38.6392 12.1328 38.9697C12.1328 39.3001 12.1328 39.6152 12.1328 39.9149V41.3827C12.0599 41.398 11.9547 41.4134 11.8091 41.4288C11.6634 41.4441 11.5177 41.4595 11.3721 41.4595C11.0403 41.4595 10.8137 41.4057 10.6842 41.2981C10.5547 41.1905 10.498 40.9984 10.498 40.7218V36.0803C10.5871 35.9573 10.7246 35.8651 10.9189 35.8036C11.1131 35.7421 11.3073 35.7114 11.5177 35.7114C11.7605 35.7114 11.9871 35.7498 12.2056 35.819C12.4241 35.8881 12.5941 36.0495 12.7235 36.3031L13.6947 38.1628C13.7918 38.3549 13.8808 38.5317 13.9536 38.7007C14.0345 38.8698 14.1155 39.0619 14.2045 39.2848H14.245C14.2207 38.9774 14.2045 38.7007 14.2045 38.4394C14.2045 38.1782 14.2045 37.9246 14.2045 37.6864V35.7575C14.2773 35.7421 14.3825 35.7268 14.5282 35.7114C14.6739 35.696 14.8195 35.6807 14.9652 35.6807C15.297 35.6807 15.5236 35.7345 15.6531 35.842C15.7826 35.9496 15.8392 36.1417 15.8392 36.4184V41.1752C15.7502 41.2597 15.6207 41.3289 15.4427 41.375L15.4346 41.3827Z" fill="white"/>
<path d="M18.3805 39.7531C18.4696 39.976 18.6233 40.1297 18.8337 40.2219C19.0441 40.3141 19.2869 40.3525 19.554 40.3525C19.821 40.3525 20.0881 40.3218 20.3309 40.2526C20.5737 40.1911 20.776 40.1143 20.9216 40.0298C21.0268 40.0912 21.1159 40.1758 21.1806 40.291C21.2534 40.3986 21.2858 40.5216 21.2858 40.6445C21.2858 40.7982 21.2372 40.9289 21.1482 41.0441C21.0592 41.1517 20.9297 41.2439 20.7679 41.3208C20.606 41.3976 20.4037 41.4514 20.1771 41.4822C19.9505 41.5129 19.6996 41.536 19.4326 41.536C19.0522 41.536 18.6961 41.4822 18.3724 41.3823C18.0487 41.2824 17.7655 41.1287 17.5227 40.9289C17.2799 40.7291 17.0938 40.4678 16.9562 40.1604C16.8186 39.853 16.7539 39.4918 16.7539 39.0846C16.7539 38.6773 16.8267 38.3315 16.9643 38.0394C17.1019 37.7474 17.288 37.5092 17.5146 37.3171C17.7412 37.1327 18.0083 36.9943 18.2996 36.9021C18.5909 36.8099 18.8904 36.7715 19.1898 36.7715C19.5297 36.7715 19.8453 36.8176 20.1286 36.9175C20.4118 37.0174 20.6546 37.148 20.8569 37.3248C21.0592 37.5015 21.2211 37.7013 21.3263 37.9395C21.4396 38.1778 21.4881 38.439 21.4881 38.7234C21.4881 38.9309 21.4234 39.0922 21.302 39.1998C21.1806 39.3074 21.0107 39.3843 20.7841 39.415L18.3643 39.7685L18.3805 39.7531ZM19.206 37.9011C18.9632 37.9011 18.7528 37.9703 18.5909 38.1163C18.4291 38.2546 18.3239 38.4544 18.2915 38.7157L19.9424 38.4544C19.9424 38.3929 19.9181 38.3315 19.8858 38.2623C19.8534 38.1931 19.8048 38.1393 19.7482 38.0856C19.6915 38.0318 19.6187 37.9857 19.5216 37.9549C19.4326 37.9242 19.3274 37.9011 19.1979 37.9011H19.206Z" fill="white"/>
<path d="M25.6716 38.8621C25.623 39.0773 25.5745 39.3001 25.5097 39.5306C25.445 39.7612 25.3802 39.984 25.3074 40.1915C25.2346 40.399 25.1779 40.5988 25.1213 40.7832C25.0646 40.9677 25.0161 41.1137 24.9837 41.2213C24.8947 41.2981 24.7733 41.3519 24.6114 41.398C24.4577 41.4441 24.2715 41.4672 24.0611 41.4672C23.7941 41.4672 23.5675 41.4288 23.3732 41.3596C23.179 41.2904 23.0495 41.1905 22.9848 41.0599C22.9362 40.96 22.8877 40.8217 22.831 40.6449C22.7744 40.4682 22.7096 40.2684 22.653 40.0378C22.5882 39.815 22.5316 39.5691 22.4669 39.3155C22.4021 39.0619 22.3455 38.8006 22.2888 38.5393C22.2322 38.2781 22.1836 38.0321 22.1351 37.7862C22.0865 37.5403 22.046 37.3175 22.0137 37.1177C22.1027 37.0331 22.2241 36.9563 22.3778 36.8948C22.5316 36.8333 22.6935 36.7949 22.8796 36.7949C23.1062 36.7949 23.2923 36.841 23.438 36.9409C23.5837 37.0331 23.6727 37.2022 23.705 37.4327C23.7698 37.9015 23.8264 38.2857 23.8669 38.5931C23.9154 38.9005 23.9478 39.1464 23.9802 39.3385C24.0126 39.5306 24.0287 39.6767 24.0449 39.7842C24.0611 39.8918 24.0773 39.9687 24.0854 40.0302H24.1259C24.142 39.9303 24.1825 39.7919 24.2311 39.5998C24.2796 39.4077 24.3363 39.2002 24.401 38.962C24.4658 38.7238 24.5305 38.4625 24.6033 38.1858C24.6762 37.9092 24.749 37.6249 24.8137 37.3482C24.9432 37.2791 25.0727 37.2253 25.1941 37.1945C25.3236 37.1561 25.4773 37.1407 25.6635 37.1407C25.8901 37.1407 26.0843 37.1715 26.2461 37.2406C26.408 37.3098 26.5132 37.4097 26.5537 37.5557C26.6346 37.8247 26.7074 38.0859 26.7803 38.3472C26.8531 38.6008 26.9178 38.839 26.9745 39.0542C27.0311 39.2694 27.0878 39.4692 27.1282 39.6382C27.1768 39.8073 27.2092 39.9379 27.2254 40.0378H27.2739C27.3467 39.5614 27.4115 39.0696 27.4843 38.5624C27.5572 38.0552 27.6138 37.5326 27.6705 37.0024C27.7838 36.9332 27.9132 36.8871 28.0427 36.8564C28.1722 36.8257 28.3017 36.8103 28.4312 36.8103C28.6578 36.8103 28.8439 36.8564 28.9977 36.9486C29.1433 37.0408 29.2243 37.2022 29.2243 37.4251C29.2243 37.525 29.2081 37.671 29.1757 37.8631C29.1433 38.0552 29.1029 38.2781 29.0462 38.524C28.9977 38.7699 28.9329 39.0311 28.8682 39.3001C28.8034 39.5691 28.7306 39.8303 28.6659 40.0763C28.6011 40.3222 28.5364 40.5527 28.4716 40.7525C28.4069 40.9523 28.3583 41.1137 28.3098 41.2213C28.2208 41.2981 28.0832 41.3519 27.889 41.398C27.7028 41.4441 27.5005 41.4672 27.2901 41.4672C26.7479 41.4672 26.4242 41.3365 26.3271 41.0829C26.2866 40.9754 26.238 40.8294 26.1814 40.6603C26.1248 40.4912 26.06 40.3068 25.9953 40.1147C25.9305 39.9149 25.8658 39.7074 25.8091 39.4922C25.7525 39.2771 25.7039 39.0619 25.6635 38.8621H25.6716Z" fill="white"/>
<path d="M5.60938 44.332H9.10137V47.6593L5.60938 44.332Z" fill="#9D1E18"/>
<path d="M60 9.28296C59.3311 9.19218 58.6607 9.11809 57.9967 9.00495C57.6219 8.94121 57.2501 8.83608 56.8904 8.70992C56.1306 8.44326 55.6856 7.87089 55.4605 7.10327C55.2333 6.32899 55.1516 5.52967 55.0627 4.73168C55.0463 4.58317 55.0328 4.43432 54.9856 4.28613C54.9606 4.53244 54.936 4.77874 54.9111 5.02504C54.8408 5.7179 54.7407 6.40408 54.5514 7.07657C54.2987 7.97502 53.7404 8.54872 52.8589 8.80904C52.0519 9.04734 51.2222 9.13812 50.3912 9.22522C50.2616 9.23891 50.1313 9.24892 50 9.28163C50.2996 9.31433 50.5996 9.34404 50.8986 9.38042C51.6229 9.46886 52.3466 9.56164 53.042 9.80527C53.8412 10.0853 54.3154 10.6593 54.5507 11.4717C54.8011 12.3371 54.8819 13.2282 54.9705 14.1189C54.9744 14.1596 54.977 14.2007 54.9819 14.2411C54.9829 14.2488 54.9921 14.2558 55.0154 14.2861C55.043 14.0215 55.065 13.7808 55.0932 13.5409C55.1753 12.85 55.2626 12.1615 55.4483 11.488C55.704 10.5615 56.2885 9.98883 57.1913 9.72918C57.9997 9.49689 58.8303 9.41012 59.6603 9.31867C59.7749 9.30599 59.8894 9.29464 60 9.2833V9.28296Z" fill="#BDD9DD"/>
<path d="M52.8703 4.27907C52.8903 4.04065 52.9079 3.80184 52.931 3.56459C53.0131 2.72894 53.2006 2.4313 53.7404 2.28935C53.916 2.24308 54.0933 2.21523 54.2849 2.17563C54.0456 2.11641 53.8235 2.06426 53.6022 2.00583C53.2239 1.90544 53.0164 1.54389 52.9526 0.972929C52.9249 0.724311 52.9051 0.473732 52.8812 0.223938C52.8754 0.161195 52.868 0.0988456 52.8576 0.000418096C52.8164 0.383933 52.7839 0.727056 52.7422 1.06744C52.6774 1.59369 52.4663 1.9023 52.1287 2.00073C51.9043 2.06583 51.678 2.11563 51.4277 2.17837C51.572 2.20621 51.6953 2.22268 51.8167 2.25562C51.962 2.29484 52.1084 2.33523 52.2501 2.39719C52.5189 2.51483 52.6772 2.80737 52.7377 3.21794C52.7806 3.51008 52.8042 3.80929 52.836 4.10575C52.8423 4.16575 52.8477 4.22574 52.8538 4.28613C52.8594 4.28417 52.8649 4.28182 52.8705 4.27986L52.8703 4.27907Z" fill="#BDD9DD"/>
<path d="M57.1426 6.41993C57.5285 6.4738 57.9277 6.44621 58.2212 6.58913C58.5219 6.73553 58.4841 6.95122 58.5858 7.14258C58.6172 7.04418 58.6417 6.94492 58.6815 6.84739C58.7764 6.61542 58.9802 6.51289 59.4156 6.4738C59.6033 6.45686 59.7919 6.44317 59.9997 6.42645C59.7489 6.40212 59.5185 6.38127 59.289 6.35694C58.9456 6.32067 58.7563 6.20012 58.6847 6.02157C58.6437 5.9197 58.6152 5.81631 58.5529 5.71401C58.536 5.77461 58.5187 5.83521 58.5026 5.89581C58.4134 6.23226 58.2075 6.34347 57.5828 6.39104C57.4489 6.40125 57.3142 6.40885 57.143 6.41993H57.1426Z" fill="#BDD9DD"/>
<defs>
<linearGradient id="paint0_linear_6651_10294" x1="31.7993" y1="44.3324" x2="31.7993" y2="33.0195" gradientUnits="userSpaceOnUse">
<stop stop-color="#E34039"/>
<stop offset="1" stop-color="#F26458"/>
</linearGradient>
<clipPath id="clip0_6651_10294">
<rect width="41.8344" height="57.1429" fill="white" transform="translate(9.04883 1.42871)"/>
</clipPath>
</defs>
</svg>
