<svg width="61" height="60" viewBox="0 0 61 60" fill="none" xmlns="http://www.w3.org/2000/svg">
<path d="M37.979 57.6361H6.01422C4.44136 57.6361 2.0293 53.1364 2.0293 54.5221V13.8687C2.0293 12.2916 3.30568 11.0117 4.87854 11.0117H37.8333C39.4062 11.0117 40.6826 12.2916 40.6826 13.8687L40.8283 54.633C40.8283 56.2101 39.5519 57.6361 37.979 57.6361V57.6361Z" fill="#26A991"/>
<path d="M2.92383 53.1173C2.92383 54.4022 3.96403 55.4453 5.24544 55.4453H36.7128C37.6675 55.4453 38.4414 54.6693 38.4414 53.7119V53.1173C38.4414 53.1173 38.4414 53.1123 38.4364 53.1123H2.93388C2.93388 53.1123 2.92885 53.1123 2.92885 53.1173H2.92383Z" fill="#EEEEEE"/>
<path d="M5.24125 49.1162C3.96486 49.1162 2.92969 50.1542 2.92969 51.4341V53.1422H38.4372V49.1162H5.24125Z" fill="#E5E5E5"/>
<path d="M38.9749 4.25992H4.87437C3.30151 4.25992 2.03015 5.53475 2.03015 7.11191V52.2196C2.01508 52.3657 2 52.5068 2 52.653V53.7061C2 55.5956 3.53266 57.6364 5.41709 57.6364H36.7739V55.4848H6.42211C5.16583 55.4848 4.14573 54.9658 4.14573 53.7061V52.653C4.14573 51.4436 5.09045 50.9196 6.27638 50.8793H38.9749C40.5477 50.8793 41.8241 49.5994 41.8241 48.0223V7.11191C41.8241 5.53475 40.5477 4.25488 38.9749 4.25488V4.25992Z" fill="#4BB5EF"/>
<path d="M38.6879 3.09082H6.43164V48.6671H38.6879C40.2608 48.6671 41.8236 47.3873 41.8236 45.8101V5.94784C41.8236 4.37069 40.2608 3.09082 38.6879 3.09082Z" fill="#4BB5EF"/>
<path d="M4.90589 3.09082C3.33302 3.09082 2.05664 4.37069 2.05664 5.94784V51.5645C2.05664 50.1788 3.33302 48.7075 4.90589 48.7075H6.75011V3.09082H4.90589V3.09082Z" fill="#1A89C6"/>
<path d="M35.5338 12.418H12.4434V14.9122H35.5338V12.418Z" fill="#26A991"/>
<path d="M35.5338 17.7344H12.4434V20.2286H35.5338V17.7344Z" fill="#26A991"/>
<path d="M46.0767 57.6361H14.1119C12.539 57.6361 10.127 53.1364 10.127 54.5221V13.8687C10.127 12.2916 11.4033 11.0117 12.9762 11.0117H45.931C47.5038 11.0117 48.7802 12.2916 48.7802 13.8687L48.9259 54.633C48.9259 56.2101 47.6496 57.6361 46.0767 57.6361Z" fill="#26A991"/>
<path d="M11.0215 53.1173C11.0215 54.4022 12.0617 55.4453 13.3431 55.4453H44.8104C45.7652 55.4453 46.5391 54.6693 46.5391 53.7119V53.1173C46.5391 53.1173 46.5391 53.1123 46.534 53.1123H11.0315C11.0315 53.1123 11.0265 53.1123 11.0265 53.1173H11.0215Z" fill="#EEEEEE"/>
<path d="M13.3389 49.1162C12.0625 49.1162 11.0273 50.1542 11.0273 51.4341V53.1422H46.5349V49.1162H13.3389Z" fill="#E5E5E5"/>
<path d="M47.0717 4.25992H12.9712C11.3983 4.25992 10.1219 5.53979 10.1219 7.11694V52.2196C10.1069 52.3657 10.0918 52.5068 10.0918 52.653V53.7061C10.0918 55.5956 11.6245 57.6364 13.5089 57.6364H44.8657V55.4848H14.5189C13.2627 55.4848 12.2426 54.9658 12.2426 53.7061V52.653C12.2426 51.4436 13.1873 50.9196 14.3732 50.8793H47.0717C48.6446 50.8793 49.9209 49.5994 49.9209 48.0223V7.11191C49.9209 5.53475 48.6446 4.25488 47.0717 4.25488V4.25992Z" fill="#00D6D6"/>
<path d="M46.7836 3.09082H14.5273V48.6671H46.7836C48.3565 48.6671 49.9193 47.3873 49.9193 45.8101V5.94784C49.9193 4.37069 48.3565 3.09082 46.7836 3.09082Z" fill="#00D6D6"/>
<path d="M13.0016 3.09082C11.4287 3.09082 10.1523 4.37069 10.1523 5.94784V51.5645C10.1523 50.1788 11.4287 48.7075 13.0016 48.7075H14.8458V3.09082H13.0016Z" fill="#279CA8"/>
<path d="M43.6256 12.418H20.5352V14.9122H43.6256V12.418Z" fill="#26A991"/>
<path d="M43.6256 17.7344H20.5352V20.2286H43.6256V17.7344Z" fill="#26A991"/>
<path d="M55.0767 57.6361H23.1119C21.539 57.6361 19.127 53.1364 19.127 54.5221V13.8687C19.127 12.2916 20.4033 11.0117 21.9762 11.0117H54.931C56.5038 11.0117 57.7802 12.2916 57.7802 13.8687L57.9259 54.633C57.9259 56.2101 56.6496 57.6361 55.0767 57.6361Z" fill="#00DB93"/>
<path d="M20.0215 53.1173C20.0215 54.4022 21.0617 55.4453 22.3431 55.4453H53.8104C54.7652 55.4453 55.5391 54.6693 55.5391 53.7119V53.1173C55.5391 53.1173 55.5391 53.1123 55.534 53.1123H20.0265C20.0265 53.1123 20.0215 53.1123 20.0215 53.1173Z" fill="#F4F4F4"/>
<path d="M22.333 49.1162C21.0567 49.1162 20.0215 50.1542 20.0215 51.4341V53.1422H55.5341V49.1162H22.333Z" fill="#E5E5E5"/>
<path d="M56.0667 4.25992H21.9712C20.3983 4.25992 19.1219 5.53979 19.1219 7.11694V52.2196C19.1069 52.3657 19.0918 52.5068 19.0918 52.653V53.7061C19.0918 55.5956 20.6245 57.6364 22.5089 57.6364H53.8657V55.4848H23.5189C22.2626 55.4848 21.2425 54.9658 21.2425 53.7061V52.653C21.2425 51.4436 22.1873 50.9196 23.3732 50.8793H56.0667C57.6395 50.8793 58.9159 49.5994 58.9159 48.0223V7.11191C58.9159 5.53475 57.6395 4.25488 56.0667 4.25488V4.25992Z" fill="#00DB93"/>
<path d="M55.7806 3.09082H23.5293V48.6671H55.7806C57.3534 48.6671 58.9162 47.3873 58.9162 45.8101V5.94784C58.9162 4.37069 57.3534 3.09082 55.7806 3.09082Z" fill="#00DB93"/>
<path d="M21.9977 3.09082C20.4248 3.09082 19.1484 4.37069 19.1484 5.94784V51.5645C19.1484 50.1788 20.4248 48.7075 21.9977 48.7075H23.8419V3.09082H21.9977Z" fill="#26A991"/>
<path d="M52.6256 12.418H29.5352V14.9122H52.6256V12.418Z" fill="#26A991"/>
<path d="M52.6256 17.7344H29.5352V20.2286H52.6256V17.7344Z" fill="#26A991"/>
</svg>
